M48
INCH,LZ
;TYPE=PLATED
T1F00S00C0.024
T2F00S00C0.035
T3F00S00C0.045
T4F00S00C0.047
T5F00S00C0.055
T6F00S00C0.070
T7F00S00C0.079
T8F00S00C0.130
%
T01
X-03575Y-02875
X-0385Y-0265
X-03975Y-027
X-041Y-02775
X-042Y-03025
X-07669Y-02875
X-07944Y-0265
X-08069Y-027
X-08194Y-02775
X-08294Y-03025
X-10294Y-01125
X-11111Y-01161
X-10069Y-01275
X-09819Y-01325
Y-01525
X-09544Y-0145
Y-0135
X-09369Y-01275
X-09119Y-01325
Y-01525
X-08844Y-0145
Y-0135
X-08894Y-01125
X-09594
X-08669Y-01275
X-08469Y-014
X-08094Y-0145
X-08044Y-01625
Y-01725
X-08144Y-01875
X-07919
X-07857Y-02113
X-07944Y-0245
X-07294Y-02425
X-07219Y-0255
X-07169Y-0185
X-07394Y-01875
X-07369Y-01375
X-07232Y-01288
X-07675Y-01196
X-07869Y-016
X-08594Y-017
X-07069Y-0185
X-06994Y-01575
X-06969Y-01325
X-062Y-01125
X-05975Y-01275
X-05725Y-01325
Y-01525
X-0545Y-0145
Y-0135
X-05275Y-01275
X-05025Y-01325
Y-01525
X-0475Y-0145
Y-0135
X-04575Y-01275
X-04375Y-014
X-045Y-017
X-0405Y-01875
X-048Y-01125
X-055
X-04Y-0145
X-0395Y-01625
Y-01725
X-03825Y-01875
X-03763Y-02113
X-0385Y-0245
X-032Y-02425
X-03125Y-0255
X-03075Y-0185
X-02975
X-029Y-01575
X-02875Y-01325
X-03137Y-01288
X-03275Y-01375
X-03571Y-01196
X-03775Y-016
X-033Y-01875
X-0345Y-009
X-02975
X-07075
X-0755Y-009
T02
X-0371Y-03175
X-0381
X-06466
X-06566
X-112Y-0315
X-113
X-116Y-03275
X-117
X-113Y-0245
X-112
Y-02075
X-114
X-03775Y-00975
X-03675
Y-00675
X-03775
X-03875
X-03975
X-03976Y-0049
X-033Y-00675
X-032
X-031
X-03
X-029
X-028
X-027
Y-00975
X-028
X-033
X-03092Y-0049
X-02992
X-04076
X-04075Y-00675
X-04175
X-04275
Y-00975
X-04685Y-0049
X-04785
X-05394
X-05494
X-06102
X-06202
X-06794Y-00675
X-06894
X-06994
X-07094
X-07087Y-0049
X-06894Y-00975
X-06794
X-07394
Y-00675
X-07294
X-07194
X-07187Y-0049
X-07769Y-00675
X-07869
X-07969
X-08069
X-08169
X-08269
X-08369
Y-00975
X-07869
X-07769
X-08071Y-0049
X-08171
X-0878
X-0888
X-09488
X-09588
X-10197
X-10297
T03
X-1105Y-027
Y-028
Y-029
X-15375Y-02975
Y-0268
Y-02575
T04
X-1205Y-023
X-1175
T05
X-12864Y-02809
X-14636
X-15392Y-02308
Y-02142
X-15608Y-02142
Y-02308
X-155Y-0175
Y-0155
Y-0115
X-14636Y-01194
Y-01785
Y-02218
X-12864Y-02415
Y-01785
Y-01391
X-128Y-006
X-155Y-0095
T06
X-14217Y-00705
X-14567
X-14917
T07
X-02792Y-0029
X-03192
X-03776
X-04176
X-04485
X-04885
X-05194
X-05594
X-05902
X-06302
X-06887
X-07287
X-07871
X-08271
X-0858
X-0898
X-09288
X-09688
X-09997
X-10397
T08
X-02598Y-03228
X-08701
X-1035Y-028
X-12047Y-03228
X-1252Y-03084
X-1498
X-15591Y-03228
X-1498Y-01116
X-1252
X-13782Y-00325
X-15352
M30
