%FSLAX23Y23*%
%MOIN*%
G70*
G01*
G75*
G04 Layer_Physical_Order=2*
%ADD10C,0.024*%
%ADD11R,0.035X0.037*%
%ADD12R,0.024X0.047*%
%ADD13R,0.060X0.052*%
%ADD14R,0.052X0.060*%
%ADD15R,0.118X0.059*%
%ADD16R,0.028X0.036*%
%ADD17R,0.036X0.028*%
%ADD18R,0.059X0.051*%
%ADD19R,0.024X0.087*%
%ADD20R,0.024X0.087*%
%ADD21R,0.063X0.071*%
%ADD22R,0.051X0.059*%
%ADD23R,0.083X0.024*%
%ADD24R,0.024X0.083*%
%ADD25R,0.071X0.063*%
%ADD26C,0.047*%
%ADD27C,0.012*%
%ADD28C,0.010*%
%ADD29C,0.059*%
%ADD30R,0.059X0.059*%
%ADD31C,0.100*%
%ADD32C,0.236*%
%ADD33C,0.237*%
%ADD34C,0.110*%
%ADD35R,0.079X0.079*%
%ADD36C,0.079*%
%ADD37C,0.059*%
%ADD38R,0.059X0.059*%
%ADD39C,0.070*%
%ADD40C,0.079*%
%ADD41C,0.130*%
%ADD42C,0.047*%
D10*
X-2696Y-290D02*
G03*
X-2696Y-290I-96J0D01*
G01*
X-3096D02*
G03*
X-3096Y-290I-96J0D01*
G01*
X-3053Y-443D02*
G03*
X-3053Y-537I-39J-47D01*
G01*
X-3680Y-290D02*
G03*
X-3680Y-290I-96J0D01*
G01*
X-4080D02*
G03*
X-4080Y-290I-96J0D01*
G01*
X-4037Y-443D02*
G03*
X-4037Y-537I-39J-47D01*
G01*
X-2639Y-675D02*
G03*
X-2750Y-640I-61J0D01*
G01*
G03*
X-2850Y-640I-50J-35D01*
G01*
G03*
X-2950Y-640I-50J-35D01*
G01*
X-2750Y-710D02*
G03*
X-2639Y-675I50J35D01*
G01*
X-2850Y-710D02*
G03*
X-2750Y-710I50J35D01*
G01*
X-2950D02*
G03*
X-2850Y-710I50J35D01*
G01*
X-2950Y-640D02*
G03*
X-3050Y-640I-50J-35D01*
G01*
G03*
X-3150Y-640I-50J-35D01*
G01*
G03*
X-3250Y-640I-50J-35D01*
G01*
X-2744Y-869D02*
G03*
X-2775Y-857I-31J-31D01*
G01*
X-2744Y-869D02*
G03*
X-2775Y-857I-31J-31D01*
G01*
X-2639Y-975D02*
G03*
X-2700Y-914I-61J0D01*
G01*
X-3050Y-710D02*
G03*
X-2950Y-710I50J35D01*
G01*
X-3150D02*
G03*
X-3050Y-710I50J35D01*
G01*
X-3250D02*
G03*
X-3150Y-710I50J35D01*
G01*
X-3250Y-640D02*
G03*
X-3250Y-710I-50J-35D01*
G01*
X-2941Y-857D02*
G03*
X-2941Y-943I-34J-43D01*
G01*
X-3725Y-640D02*
G03*
X-3825Y-640I-50J-35D01*
G01*
X-3614Y-675D02*
G03*
X-3725Y-640I-61J0D01*
G01*
X-3825D02*
G03*
X-3925Y-640I-50J-35D01*
G01*
G03*
X-4025Y-640I-50J-35D01*
G01*
G03*
X-4125Y-640I-50J-35D01*
G01*
G03*
X-4225Y-640I-50J-35D01*
G01*
X-3725Y-710D02*
G03*
X-3614Y-675I50J35D01*
G01*
X-3395Y-900D02*
G03*
X-3407Y-866I-55J0D01*
G01*
X-3413Y-940D02*
G03*
X-3395Y-900I-37J40D01*
G01*
X-3493Y-866D02*
G03*
X-3487Y-940I43J-34D01*
G01*
X-3825Y-710D02*
G03*
X-3725Y-710I50J35D01*
G01*
X-3925D02*
G03*
X-3825Y-710I50J35D01*
G01*
X-4025D02*
G03*
X-3925Y-710I50J35D01*
G01*
X-4125D02*
G03*
X-4025Y-710I50J35D01*
G01*
X-4225Y-640D02*
G03*
X-4225Y-710I-50J-35D01*
G01*
G03*
X-4125Y-710I50J35D01*
G01*
X-3614Y-975D02*
G03*
X-3725Y-940I-61J0D01*
G01*
X-4389Y-290D02*
G03*
X-4389Y-290I-96J0D01*
G01*
X-4746Y-443D02*
G03*
X-4746Y-537I-39J-47D01*
G01*
X-4789Y-290D02*
G03*
X-4789Y-290I-96J0D01*
G01*
X-5097D02*
G03*
X-5097Y-290I-96J0D01*
G01*
X-5497D02*
G03*
X-5497Y-290I-96J0D01*
G01*
X-5806D02*
G03*
X-5806Y-290I-96J0D01*
G01*
X-5455Y-443D02*
G03*
X-5455Y-537I-39J-47D01*
G01*
X-6206Y-290D02*
G03*
X-6206Y-290I-96J0D01*
G01*
X-6163Y-443D02*
G03*
X-6163Y-537I-39J-47D01*
G01*
X-4643Y-620D02*
G03*
X-4680Y-583I-37J0D01*
G01*
X-4643Y-620D02*
G03*
X-4680Y-583I-37J0D01*
G01*
X-4720D02*
G03*
X-4757Y-620I0J-37D01*
G01*
X-4720Y-583D02*
G03*
X-4757Y-620I0J-37D01*
G01*
X-5343D02*
G03*
X-5380Y-583I-37J0D01*
G01*
X-5343Y-620D02*
G03*
X-5380Y-583I-37J0D01*
G01*
X-5420D02*
G03*
X-5457Y-620I0J-37D01*
G01*
X-5420Y-583D02*
G03*
X-5457Y-620I0J-37D01*
G01*
X-4680Y-942D02*
G03*
X-4643Y-905I0J37D01*
G01*
X-4820Y-758D02*
G03*
X-4857Y-795I0J-37D01*
G01*
X-4680Y-942D02*
G03*
X-4643Y-905I0J37D01*
G01*
X-4820Y-758D02*
G03*
X-4857Y-795I0J-37D01*
G01*
X-4478Y-995D02*
G03*
X-4515Y-958I-37J0D01*
G01*
X-4478Y-995D02*
G03*
X-4515Y-958I-37J0D01*
G01*
X-4585D02*
G03*
X-4622Y-995I0J-37D01*
G01*
X-4585Y-958D02*
G03*
X-4622Y-995I0J-37D01*
G01*
X-4857Y-905D02*
G03*
X-4820Y-942I37J0D01*
G01*
X-4857Y-905D02*
G03*
X-4820Y-942I37J0D01*
G01*
X-5178Y-995D02*
G03*
X-5215Y-958I-37J0D01*
G01*
X-5178Y-995D02*
G03*
X-5215Y-958I-37J0D01*
G01*
X-5285D02*
G03*
X-5322Y-995I0J-37D01*
G01*
X-5380Y-942D02*
G03*
X-5343Y-905I0J37D01*
G01*
X-5285Y-958D02*
G03*
X-5322Y-995I0J-37D01*
G01*
X-5380Y-942D02*
G03*
X-5343Y-905I0J37D01*
G01*
X-6043Y-620D02*
G03*
X-6080Y-583I-37J0D01*
G01*
X-6043Y-620D02*
G03*
X-6080Y-583I-37J0D01*
G01*
X-6120D02*
G03*
X-6157Y-620I0J-37D01*
G01*
X-6120Y-583D02*
G03*
X-6157Y-620I0J-37D01*
G01*
X-5520Y-758D02*
G03*
X-5557Y-795I0J-37D01*
G01*
X-5520Y-758D02*
G03*
X-5557Y-795I0J-37D01*
G01*
Y-905D02*
G03*
X-5520Y-942I37J0D01*
G01*
X-5557Y-905D02*
G03*
X-5520Y-942I37J0D01*
G01*
X-5878Y-995D02*
G03*
X-5915Y-958I-37J0D01*
G01*
X-5878Y-995D02*
G03*
X-5915Y-958I-37J0D01*
G01*
X-5985D02*
G03*
X-6022Y-995I0J-37D01*
G01*
X-5985Y-958D02*
G03*
X-6022Y-995I0J-37D01*
G01*
X-6220Y-758D02*
G03*
X-6257Y-795I0J-37D01*
G01*
X-6220Y-758D02*
G03*
X-6257Y-795I0J-37D01*
G01*
X-6080Y-942D02*
G03*
X-6043Y-905I0J37D01*
G01*
X-6080Y-942D02*
G03*
X-6043Y-905I0J37D01*
G01*
X-6257D02*
G03*
X-6220Y-942I37J0D01*
G01*
X-6257Y-905D02*
G03*
X-6220Y-942I37J0D01*
G01*
X-2852Y-943D02*
G03*
X-2750Y-1010I52J-32D01*
G01*
G03*
X-2639Y-975I50J35D01*
G01*
X-3111Y-1808D02*
G03*
X-3115Y-1808I-4J-37D01*
G01*
X-3111Y-1808D02*
G03*
X-3115Y-1808I-4J-37D01*
G01*
X-3487Y-1575D02*
G03*
X-3413Y-1575I37J0D01*
G01*
X-3035Y-1813D02*
G03*
X-3111Y-1808I-40J-37D01*
G01*
X-2920Y-1850D02*
G03*
X-3015Y-1813I-55J0D01*
G01*
X-3185Y-1808D02*
G03*
X-3222Y-1845I0J-37D01*
G01*
X-3185Y-1808D02*
G03*
X-3222Y-1845I0J-37D01*
G01*
X-3725Y-1010D02*
G03*
X-3614Y-975I50J35D01*
G01*
X-3725Y-940D02*
G03*
X-3725Y-1010I-50J-35D01*
G01*
X-3678Y-1320D02*
G03*
X-3715Y-1283I-37J0D01*
G01*
X-3678Y-1320D02*
G03*
X-3715Y-1283I-37J0D01*
G01*
X-3843Y-1105D02*
G03*
X-3880Y-1068I-37J0D01*
G01*
X-3843Y-1105D02*
G03*
X-3880Y-1068I-37J0D01*
G01*
Y-1267D02*
G03*
X-3843Y-1230I0J37D01*
G01*
X-3880Y-1267D02*
G03*
X-3843Y-1230I0J37D01*
G01*
X-3785Y-1283D02*
G03*
X-3822Y-1320I0J-37D01*
G01*
X-3785Y-1283D02*
G03*
X-3822Y-1320I0J-37D01*
G01*
X-3715Y-1442D02*
G03*
X-3678Y-1405I0J37D01*
G01*
X-3715Y-1442D02*
G03*
X-3678Y-1405I0J37D01*
G01*
X-3822D02*
G03*
X-3785Y-1442I37J0D01*
G01*
X-3822Y-1405D02*
G03*
X-3785Y-1442I37J0D01*
G01*
X-3913Y-1665D02*
G03*
X-3895Y-1625I-37J40D01*
G01*
X-3770Y-1875D02*
G03*
X-3825Y-1820I-55J0D01*
G01*
X-3770Y-1875D02*
G03*
X-3825Y-1820I-55J0D01*
G01*
X-3895Y-1625D02*
G03*
X-3987Y-1665I-55J0D01*
G01*
X-3895Y-1725D02*
G03*
X-3913Y-1685I-55J0D01*
G01*
X-3987D02*
G03*
X-3895Y-1725I37J-40D01*
G01*
X-3015Y-1887D02*
G03*
X-2920Y-1850I40J37D01*
G01*
X-3078Y-1905D02*
G03*
X-3035Y-1887I3J55D01*
G01*
X-3115Y-1967D02*
G03*
X-3078Y-1930I0J37D01*
G01*
X-3115Y-1967D02*
G03*
X-3078Y-1930I0J37D01*
G01*
X-3168Y-2080D02*
G03*
X-3205Y-2043I-37J0D01*
G01*
X-3168Y-2080D02*
G03*
X-3205Y-2043I-37J0D01*
G01*
X-3222Y-1930D02*
G03*
X-3185Y-1967I37J0D01*
G01*
X-3222Y-1930D02*
G03*
X-3185Y-1967I37J0D01*
G01*
X-3430Y-2043D02*
G03*
X-3467Y-2080I0J-37D01*
G01*
X-3430Y-2043D02*
G03*
X-3467Y-2080I0J-37D01*
G01*
X-3538Y-2095D02*
G03*
X-3575Y-2058I-37J0D01*
G01*
X-3538Y-2095D02*
G03*
X-3575Y-2058I-37J0D01*
G01*
X-3205Y-2257D02*
G03*
X-3168Y-2220I0J37D01*
G01*
X-3205Y-2257D02*
G03*
X-3168Y-2220I0J37D01*
G01*
X-3467D02*
G03*
X-3430Y-2257I37J0D01*
G01*
X-3467Y-2220D02*
G03*
X-3430Y-2257I37J0D01*
G01*
X-3158Y-2640D02*
G03*
X-3195Y-2603I-37J0D01*
G01*
X-3158Y-2640D02*
G03*
X-3195Y-2603I-37J0D01*
G01*
Y-2747D02*
G03*
X-3158Y-2710I0J37D01*
G01*
X-3195Y-2747D02*
G03*
X-3158Y-2710I0J37D01*
G01*
X-3205Y-2603D02*
G03*
X-3242Y-2640I0J-37D01*
G01*
X-3205Y-2603D02*
G03*
X-3242Y-2640I0J-37D01*
G01*
Y-2710D02*
G03*
X-3205Y-2747I37J0D01*
G01*
X-3242Y-2710D02*
G03*
X-3205Y-2747I37J0D01*
G01*
X-3630Y-2058D02*
G03*
X-3663Y-2078I0J-37D01*
G01*
X-3630Y-2058D02*
G03*
X-3663Y-2078I0J-37D01*
G01*
X-3685D02*
G03*
X-3722Y-2115I0J-37D01*
G01*
X-3575Y-2242D02*
G03*
X-3538Y-2205I0J37D01*
G01*
X-3685Y-2078D02*
G03*
X-3722Y-2115I0J-37D01*
G01*
Y-2190D02*
G03*
X-3685Y-2227I37J0D01*
G01*
X-3575Y-2242D02*
G03*
X-3538Y-2205I0J37D01*
G01*
X-3660Y-2227D02*
G03*
X-3630Y-2242I30J22D01*
G01*
X-3660Y-2227D02*
G03*
X-3630Y-2242I30J22D01*
G01*
X-3722Y-2190D02*
G03*
X-3685Y-2227I37J0D01*
G01*
X-3825Y-1930D02*
G03*
X-3770Y-1875I0J55D01*
G01*
X-3825Y-1930D02*
G03*
X-3770Y-1875I0J55D01*
G01*
X-3795Y-2650D02*
G03*
X-3890Y-2613I-55J0D01*
G01*
Y-2687D02*
G03*
X-3795Y-2650I40J37D01*
G01*
X-3858Y-2765D02*
G03*
X-3895Y-2728I-37J0D01*
G01*
X-3858Y-2765D02*
G03*
X-3895Y-2728I-37J0D01*
G01*
X-3925Y-2613D02*
G03*
X-3951Y-2624I0J-37D01*
G01*
X-3925Y-2613D02*
G03*
X-3951Y-2624I0J-37D01*
G01*
X-3927Y-2728D02*
G03*
X-3920Y-2700I-48J28D01*
G01*
X-3649Y-3175D02*
G03*
X-3749Y-3128I-61J0D01*
G01*
Y-3222D02*
G03*
X-3649Y-3175I39J47D01*
G01*
X-3895Y-2872D02*
G03*
X-3858Y-2835I0J37D01*
G01*
X-3895Y-2872D02*
G03*
X-3858Y-2835I0J37D01*
G01*
X-4180Y-1068D02*
G03*
X-4217Y-1105I0J-37D01*
G01*
X-4180Y-1068D02*
G03*
X-4217Y-1105I0J-37D01*
G01*
X-4057Y-1230D02*
G03*
X-4020Y-1267I37J0D01*
G01*
X-4057Y-1230D02*
G03*
X-4020Y-1267I37J0D01*
G01*
X-4217Y-1145D02*
G03*
X-4180Y-1182I37J0D01*
G01*
X-4217Y-1145D02*
G03*
X-4180Y-1182I37J0D01*
G01*
X-4515Y-1117D02*
G03*
X-4478Y-1080I0J37D01*
G01*
X-4515Y-1117D02*
G03*
X-4478Y-1080I0J37D01*
G01*
X-4622D02*
G03*
X-4585Y-1117I37J0D01*
G01*
X-4622Y-1080D02*
G03*
X-4585Y-1117I37J0D01*
G01*
X-5215D02*
G03*
X-5178Y-1080I0J37D01*
G01*
X-5215Y-1117D02*
G03*
X-5178Y-1080I0J37D01*
G01*
X-4970Y-1325D02*
G03*
X-5080Y-1325I-55J0D01*
G01*
X-5322Y-1080D02*
G03*
X-5285Y-1117I37J0D01*
G01*
X-5322Y-1080D02*
G03*
X-5285Y-1117I37J0D01*
G01*
X-5915D02*
G03*
X-5878Y-1080I0J37D01*
G01*
X-5915Y-1117D02*
G03*
X-5878Y-1080I0J37D01*
G01*
X-6022D02*
G03*
X-5985Y-1117I37J0D01*
G01*
X-6022Y-1080D02*
G03*
X-5985Y-1117I37J0D01*
G01*
X-6053Y-1295D02*
G03*
X-6090Y-1258I-37J0D01*
G01*
X-6053Y-1295D02*
G03*
X-6090Y-1258I-37J0D01*
G01*
X-6160D02*
G03*
X-6197Y-1295I0J-37D01*
G01*
X-6160Y-1258D02*
G03*
X-6197Y-1295I0J-37D01*
G01*
X-4320Y-1400D02*
G03*
X-4430Y-1400I-55J0D01*
G01*
X-4320D02*
G03*
X-4430Y-1400I-55J0D01*
G01*
X-4336Y-1614D02*
G03*
X-4320Y-1575I-39J39D01*
G01*
X-4336Y-1614D02*
G03*
X-4320Y-1575I-39J39D01*
G01*
X-4695Y-1350D02*
G03*
X-4787Y-1390I-55J0D01*
G01*
X-4713D02*
G03*
X-4695Y-1350I-37J40D01*
G01*
X-4970Y-1325D02*
G03*
X-5080Y-1325I-55J0D01*
G01*
X-4695Y-1450D02*
G03*
X-4713Y-1410I-55J0D01*
G01*
X-4787D02*
G03*
X-4695Y-1450I37J-40D01*
G01*
X-5080Y-1525D02*
G03*
X-4970Y-1525I55J-0D01*
G01*
X-5080D02*
G03*
X-4970Y-1525I55J0D01*
G01*
X-4050Y-1820D02*
G03*
X-4050Y-1930I-0J-55D01*
G01*
X-4050Y-1820D02*
G03*
X-4050Y-1930I0J-55D01*
G01*
X-4010Y-2743D02*
G03*
X-4017Y-2765I30J-22D01*
G01*
X-3973Y-2645D02*
G03*
X-4010Y-2743I-2J-55D01*
G01*
G03*
X-4017Y-2765I30J-22D01*
G01*
Y-2835D02*
G03*
X-3980Y-2872I37J0D01*
G01*
X-4017Y-2835D02*
G03*
X-3980Y-2872I37J0D01*
G01*
X-4539Y-1661D02*
G03*
X-4461Y-1739I39J-39D01*
G01*
X-4539Y-1661D02*
G03*
X-4461Y-1739I39J-39D01*
G01*
X-5395Y-1350D02*
G03*
X-5487Y-1390I-55J0D01*
G01*
X-5413D02*
G03*
X-5395Y-1350I-37J40D01*
G01*
Y-1450D02*
G03*
X-5413Y-1410I-55J0D01*
G01*
X-5487D02*
G03*
X-5395Y-1450I37J-40D01*
G01*
X-5670Y-1325D02*
G03*
X-5780Y-1325I-55J0D01*
G01*
X-5670D02*
G03*
X-5780Y-1325I-55J0D01*
G01*
X-6090Y-1342D02*
G03*
X-6053Y-1305I0J37D01*
G01*
X-6090Y-1342D02*
G03*
X-6053Y-1305I0J37D01*
G01*
X-6197D02*
G03*
X-6160Y-1342I37J0D01*
G01*
X-6197Y-1305D02*
G03*
X-6160Y-1342I37J0D01*
G01*
X-5780Y-1525D02*
G03*
X-5670Y-1525I55J-0D01*
G01*
X-5780D02*
G03*
X-5670Y-1525I55J0D01*
G01*
X-6405Y-3175D02*
G03*
X-6505Y-3128I-61J0D01*
G01*
Y-3222D02*
G03*
X-6405Y-3175I39J47D01*
G01*
X-6612Y-1700D02*
G03*
X-6538Y-1700I37J0D01*
G01*
X-6790Y-290D02*
G03*
X-6790Y-290I-96J0D01*
G01*
X-7190D02*
G03*
X-7190Y-290I-96J0D01*
G01*
X-7148Y-443D02*
G03*
X-7148Y-537I-39J-47D01*
G01*
X-7774Y-290D02*
G03*
X-7774Y-290I-96J0D01*
G01*
X-8174D02*
G03*
X-8174Y-290I-96J0D01*
G01*
X-8132Y-443D02*
G03*
X-8132Y-537I-39J-47D01*
G01*
X-6733Y-675D02*
G03*
X-6844Y-640I-61J0D01*
G01*
G03*
X-6944Y-640I-50J-35D01*
G01*
G03*
X-7044Y-640I-50J-35D01*
G01*
G03*
X-7144Y-640I-50J-35D01*
G01*
X-6844Y-710D02*
G03*
X-6733Y-675I50J35D01*
G01*
X-6944Y-710D02*
G03*
X-6844Y-710I50J35D01*
G01*
X-7044D02*
G03*
X-6944Y-710I50J35D01*
G01*
X-7144D02*
G03*
X-7044Y-710I50J35D01*
G01*
X-7144Y-640D02*
G03*
X-7244Y-640I-50J-35D01*
G01*
G03*
X-7344Y-640I-50J-35D01*
G01*
G03*
X-7344Y-710I-50J-35D01*
G01*
X-7244D02*
G03*
X-7144Y-710I50J35D01*
G01*
X-7344D02*
G03*
X-7244Y-710I50J35D01*
G01*
X-6839Y-869D02*
G03*
X-6869Y-857I-31J-31D01*
G01*
X-6839Y-869D02*
G03*
X-6869Y-857I-31J-31D01*
G01*
X-6733Y-975D02*
G03*
X-6794Y-914I-61J0D01*
G01*
X-6844Y-1010D02*
G03*
X-6733Y-975I50J35D01*
G01*
X-6947Y-943D02*
G03*
X-6844Y-1010I52J-32D01*
G01*
X-7041Y-857D02*
G03*
X-7041Y-943I-34J-43D01*
G01*
X-7819Y-640D02*
G03*
X-7919Y-640I-50J-35D01*
G01*
X-7708Y-675D02*
G03*
X-7819Y-640I-61J0D01*
G01*
X-7919D02*
G03*
X-8019Y-640I-50J-35D01*
G01*
X-7819Y-710D02*
G03*
X-7708Y-675I50J35D01*
G01*
X-7919Y-710D02*
G03*
X-7819Y-710I50J35D01*
G01*
X-8019D02*
G03*
X-7919Y-710I50J35D01*
G01*
X-8019Y-640D02*
G03*
X-8119Y-640I-50J-35D01*
G01*
G03*
X-8219Y-640I-50J-35D01*
G01*
G03*
X-8319Y-640I-50J-35D01*
G01*
G03*
X-8319Y-710I-50J-35D01*
G01*
X-8119D02*
G03*
X-8019Y-710I50J35D01*
G01*
X-8219D02*
G03*
X-8119Y-710I50J35D01*
G01*
X-8319D02*
G03*
X-8219Y-710I50J35D01*
G01*
X-7495Y-900D02*
G03*
X-7507Y-866I-55J0D01*
G01*
X-7513Y-940D02*
G03*
X-7495Y-900I-37J40D01*
G01*
X-7593Y-866D02*
G03*
X-7587Y-940I43J-34D01*
G01*
X-7708Y-975D02*
G03*
X-7819Y-940I-61J0D01*
G01*
G03*
X-7819Y-1010I-50J-35D01*
G01*
G03*
X-7708Y-975I50J35D01*
G01*
X-8483Y-290D02*
G03*
X-8483Y-290I-96J0D01*
G01*
X-8883D02*
G03*
X-8883Y-290I-96J0D01*
G01*
X-9192D02*
G03*
X-9192Y-290I-96J0D01*
G01*
X-8841Y-443D02*
G03*
X-8841Y-537I-39J-47D01*
G01*
X-9592Y-290D02*
G03*
X-9592Y-290I-96J0D01*
G01*
X-9900D02*
G03*
X-9900Y-290I-96J0D01*
G01*
X-9549Y-443D02*
G03*
X-9549Y-537I-39J-47D01*
G01*
X-10300Y-290D02*
G03*
X-10300Y-290I-96J0D01*
G01*
X-10258Y-443D02*
G03*
X-10258Y-537I-39J-47D01*
G01*
X-8738Y-620D02*
G03*
X-8775Y-583I-37J0D01*
G01*
X-8738Y-620D02*
G03*
X-8775Y-583I-37J0D01*
G01*
X-8815D02*
G03*
X-8852Y-620I0J-37D01*
G01*
X-8815Y-583D02*
G03*
X-8852Y-620I0J-37D01*
G01*
X-9438D02*
G03*
X-9475Y-583I-37J0D01*
G01*
X-9438Y-620D02*
G03*
X-9475Y-583I-37J0D01*
G01*
X-9515D02*
G03*
X-9552Y-620I0J-37D01*
G01*
X-9515Y-583D02*
G03*
X-9552Y-620I0J-37D01*
G01*
X-8573Y-995D02*
G03*
X-8610Y-958I-37J0D01*
G01*
X-8573Y-995D02*
G03*
X-8610Y-958I-37J0D01*
G01*
X-8680D02*
G03*
X-8717Y-995I0J-37D01*
G01*
X-8680Y-958D02*
G03*
X-8717Y-995I0J-37D01*
G01*
X-8915Y-758D02*
G03*
X-8952Y-795I0J-37D01*
G01*
X-8915Y-758D02*
G03*
X-8952Y-795I0J-37D01*
G01*
X-8775Y-942D02*
G03*
X-8738Y-905I0J37D01*
G01*
X-8775Y-942D02*
G03*
X-8738Y-905I0J37D01*
G01*
X-8952D02*
G03*
X-8915Y-942I37J0D01*
G01*
X-8952Y-905D02*
G03*
X-8915Y-942I37J0D01*
G01*
X-9273Y-995D02*
G03*
X-9310Y-958I-37J0D01*
G01*
X-9273Y-995D02*
G03*
X-9310Y-958I-37J0D01*
G01*
X-9475Y-942D02*
G03*
X-9438Y-905I0J37D01*
G01*
X-9380Y-958D02*
G03*
X-9417Y-995I0J-37D01*
G01*
X-9380Y-958D02*
G03*
X-9417Y-995I0J-37D01*
G01*
X-9475Y-942D02*
G03*
X-9438Y-905I0J37D01*
G01*
X-10138Y-620D02*
G03*
X-10175Y-583I-37J0D01*
G01*
X-10138Y-620D02*
G03*
X-10175Y-583I-37J0D01*
G01*
X-10215D02*
G03*
X-10252Y-620I0J-37D01*
G01*
X-10215Y-583D02*
G03*
X-10252Y-620I0J-37D01*
G01*
X-9615Y-758D02*
G03*
X-9652Y-795I0J-37D01*
G01*
X-9615Y-758D02*
G03*
X-9652Y-795I0J-37D01*
G01*
Y-905D02*
G03*
X-9615Y-942I37J0D01*
G01*
X-9652Y-905D02*
G03*
X-9615Y-942I37J0D01*
G01*
X-9973Y-995D02*
G03*
X-10010Y-958I-37J0D01*
G01*
X-9973Y-995D02*
G03*
X-10010Y-958I-37J0D01*
G01*
X-10080D02*
G03*
X-10117Y-995I0J-37D01*
G01*
X-10080Y-958D02*
G03*
X-10117Y-995I0J-37D01*
G01*
X-10315Y-758D02*
G03*
X-10352Y-795I0J-37D01*
G01*
X-10315Y-758D02*
G03*
X-10352Y-795I0J-37D01*
G01*
X-10175Y-942D02*
G03*
X-10138Y-905I0J37D01*
G01*
X-10175Y-942D02*
G03*
X-10138Y-905I0J37D01*
G01*
X-10352D02*
G03*
X-10315Y-942I37J0D01*
G01*
X-10352Y-905D02*
G03*
X-10315Y-942I37J0D01*
G01*
X-7205Y-1808D02*
G03*
X-7210Y-1808I-5J-37D01*
G01*
X-7129Y-1813D02*
G03*
X-7205Y-1808I-40J-37D01*
G01*
G03*
X-7210Y-1808I-5J-37D01*
G01*
X-7587Y-1575D02*
G03*
X-7513Y-1575I37J0D01*
G01*
X-7014Y-1850D02*
G03*
X-7110Y-1813I-55J0D01*
G01*
Y-1887D02*
G03*
X-7014Y-1850I40J37D01*
G01*
X-7173Y-1905D02*
G03*
X-7129Y-1887I3J55D01*
G01*
X-7280Y-1808D02*
G03*
X-7317Y-1845I0J-37D01*
G01*
X-7280Y-1808D02*
G03*
X-7317Y-1845I0J-37D01*
G01*
X-7773Y-1320D02*
G03*
X-7810Y-1283I-37J0D01*
G01*
X-7773Y-1320D02*
G03*
X-7810Y-1283I-37J0D01*
G01*
X-7880D02*
G03*
X-7917Y-1320I0J-37D01*
G01*
X-7880Y-1283D02*
G03*
X-7917Y-1320I0J-37D01*
G01*
X-7810Y-1442D02*
G03*
X-7773Y-1405I0J37D01*
G01*
X-7810Y-1442D02*
G03*
X-7773Y-1405I0J37D01*
G01*
X-7933Y-1105D02*
G03*
X-7970Y-1068I-37J0D01*
G01*
X-7933Y-1105D02*
G03*
X-7970Y-1068I-37J0D01*
G01*
Y-1267D02*
G03*
X-7933Y-1230I0J37D01*
G01*
X-7970Y-1267D02*
G03*
X-7933Y-1230I0J37D01*
G01*
X-7917Y-1405D02*
G03*
X-7880Y-1442I37J0D01*
G01*
X-7917Y-1405D02*
G03*
X-7880Y-1442I37J0D01*
G01*
X-7864Y-1875D02*
G03*
X-7919Y-1820I-55J0D01*
G01*
X-7989Y-1625D02*
G03*
X-8082Y-1665I-55J0D01*
G01*
X-8007D02*
G03*
X-7989Y-1625I-37J40D01*
G01*
X-7864Y-1875D02*
G03*
X-7920Y-1820I-55J0D01*
G01*
X-7919Y-1930D02*
G03*
X-7864Y-1875I0J55D01*
G01*
X-7920Y-1930D02*
G03*
X-7864Y-1875I0J55D01*
G01*
X-7989Y-1725D02*
G03*
X-8007Y-1685I-55J0D01*
G01*
X-8082D02*
G03*
X-7989Y-1725I37J-40D01*
G01*
X-7210Y-1967D02*
G03*
X-7173Y-1930I0J37D01*
G01*
X-7210Y-1967D02*
G03*
X-7173Y-1930I0J37D01*
G01*
X-7258Y-2080D02*
G03*
X-7295Y-2043I-37J0D01*
G01*
X-7258Y-2080D02*
G03*
X-7295Y-2043I-37J0D01*
G01*
X-7317Y-1930D02*
G03*
X-7280Y-1967I37J0D01*
G01*
X-7317Y-1930D02*
G03*
X-7280Y-1967I37J0D01*
G01*
X-7525Y-2043D02*
G03*
X-7562Y-2080I0J-37D01*
G01*
X-7525Y-2043D02*
G03*
X-7562Y-2080I0J-37D01*
G01*
X-7295Y-2257D02*
G03*
X-7258Y-2220I0J37D01*
G01*
X-7633Y-2095D02*
G03*
X-7670Y-2058I-37J0D01*
G01*
X-7633Y-2095D02*
G03*
X-7670Y-2058I-37J0D01*
G01*
X-7730D02*
G03*
X-7763Y-2078I0J-37D01*
G01*
X-7730Y-2058D02*
G03*
X-7763Y-2078I0J-37D01*
G01*
X-7775D02*
G03*
X-7812Y-2115I0J-37D01*
G01*
X-7775Y-2078D02*
G03*
X-7812Y-2115I0J-37D01*
G01*
X-7670Y-2242D02*
G03*
X-7633Y-2205I0J37D01*
G01*
X-7670Y-2242D02*
G03*
X-7633Y-2205I0J37D01*
G01*
X-7812Y-2185D02*
G03*
X-7775Y-2222I37J0D01*
G01*
X-7763D02*
G03*
X-7730Y-2242I33J17D01*
G01*
X-7763Y-2222D02*
G03*
X-7730Y-2242I33J17D01*
G01*
X-7253Y-2640D02*
G03*
X-7290Y-2603I-37J0D01*
G01*
X-7253Y-2640D02*
G03*
X-7290Y-2603I-37J0D01*
G01*
X-7295Y-2257D02*
G03*
X-7258Y-2220I0J37D01*
G01*
X-7300Y-2603D02*
G03*
X-7337Y-2640I0J-37D01*
G01*
X-7300Y-2603D02*
G03*
X-7337Y-2640I0J-37D01*
G01*
X-7290Y-2747D02*
G03*
X-7253Y-2710I0J37D01*
G01*
X-7290Y-2747D02*
G03*
X-7253Y-2710I0J37D01*
G01*
X-7337D02*
G03*
X-7300Y-2747I37J0D01*
G01*
X-7562Y-2220D02*
G03*
X-7525Y-2257I37J0D01*
G01*
X-7562Y-2220D02*
G03*
X-7525Y-2257I37J0D01*
G01*
X-7337Y-2710D02*
G03*
X-7300Y-2747I37J0D01*
G01*
X-7812Y-2185D02*
G03*
X-7775Y-2222I37J0D01*
G01*
X-8019Y-2613D02*
G03*
X-8046Y-2624I0J-37D01*
G01*
X-7889Y-2650D02*
G03*
X-7985Y-2613I-55J0D01*
G01*
X-8019D02*
G03*
X-8046Y-2624I0J-37D01*
G01*
X-7985Y-2687D02*
G03*
X-7889Y-2650I40J37D01*
G01*
X-8022Y-2728D02*
G03*
X-8014Y-2700I-48J28D01*
G01*
X-7953Y-2765D02*
G03*
X-7990Y-2728I-37J0D01*
G01*
X-7953Y-2765D02*
G03*
X-7990Y-2728I-37J0D01*
G01*
X-8067Y-2645D02*
G03*
X-8105Y-2742I-2J-55D01*
G01*
X-7990Y-2872D02*
G03*
X-7953Y-2835I0J37D01*
G01*
X-7990Y-2872D02*
G03*
X-7953Y-2835I0J37D01*
G01*
X-8112D02*
G03*
X-8075Y-2872I37J0D01*
G01*
X-8275Y-1068D02*
G03*
X-8312Y-1105I0J-37D01*
G01*
X-8275Y-1068D02*
G03*
X-8312Y-1105I0J-37D01*
G01*
X-8157Y-1230D02*
G03*
X-8120Y-1267I37J0D01*
G01*
X-8157Y-1230D02*
G03*
X-8120Y-1267I37J0D01*
G01*
X-8610Y-1117D02*
G03*
X-8573Y-1080I0J37D01*
G01*
X-8312Y-1150D02*
G03*
X-8275Y-1187I37J0D01*
G01*
X-8312Y-1150D02*
G03*
X-8275Y-1187I37J0D01*
G01*
X-8610Y-1117D02*
G03*
X-8573Y-1080I0J37D01*
G01*
X-8717D02*
G03*
X-8680Y-1117I37J0D01*
G01*
X-8717Y-1080D02*
G03*
X-8680Y-1117I37J0D01*
G01*
X-9064Y-1325D02*
G03*
X-9175Y-1325I-55J0D01*
G01*
X-9310Y-1117D02*
G03*
X-9273Y-1080I0J37D01*
G01*
X-9310Y-1117D02*
G03*
X-9273Y-1080I0J37D01*
G01*
X-9064Y-1325D02*
G03*
X-9175Y-1325I-55J0D01*
G01*
X-9417Y-1080D02*
G03*
X-9380Y-1117I37J0D01*
G01*
X-8789Y-1350D02*
G03*
X-8882Y-1390I-55J0D01*
G01*
X-9417Y-1080D02*
G03*
X-9380Y-1117I37J0D01*
G01*
X-10010D02*
G03*
X-9973Y-1080I0J37D01*
G01*
X-10010Y-1117D02*
G03*
X-9973Y-1080I0J37D01*
G01*
X-10117D02*
G03*
X-10080Y-1117I37J0D01*
G01*
X-10117Y-1080D02*
G03*
X-10080Y-1117I37J0D01*
G01*
X-10148Y-1295D02*
G03*
X-10185Y-1258I-37J0D01*
G01*
X-10148Y-1295D02*
G03*
X-10185Y-1258I-37J0D01*
G01*
X-10255D02*
G03*
X-10292Y-1295I0J-37D01*
G01*
X-10255Y-1258D02*
G03*
X-10292Y-1295I0J-37D01*
G01*
X-9489Y-1350D02*
G03*
X-9582Y-1390I-55J0D01*
G01*
X-9764Y-1325D02*
G03*
X-9875Y-1325I-55J0D01*
G01*
X-9764D02*
G03*
X-9875Y-1325I-55J0D01*
G01*
X-10185Y-1342D02*
G03*
X-10148Y-1305I0J37D01*
G01*
X-10185Y-1342D02*
G03*
X-10148Y-1305I0J37D01*
G01*
X-10292D02*
G03*
X-10255Y-1342I37J0D01*
G01*
X-10292Y-1305D02*
G03*
X-10255Y-1342I37J0D01*
G01*
X-8414Y-1400D02*
G03*
X-8525Y-1400I-55J0D01*
G01*
X-8414D02*
G03*
X-8525Y-1400I-55J0D01*
G01*
X-8807Y-1390D02*
G03*
X-8789Y-1350I-37J40D01*
G01*
Y-1450D02*
G03*
X-8807Y-1410I-55J0D01*
G01*
X-8882D02*
G03*
X-8789Y-1450I37J-40D01*
G01*
X-8431Y-1614D02*
G03*
X-8414Y-1575I-39J39D01*
G01*
X-8431Y-1614D02*
G03*
X-8414Y-1575I-39J39D01*
G01*
X-9507Y-1390D02*
G03*
X-9489Y-1350I-37J40D01*
G01*
X-9175Y-1525D02*
G03*
X-9064Y-1525I55J-0D01*
G01*
X-9175D02*
G03*
X-9064Y-1525I55J0D01*
G01*
X-9489Y-1450D02*
G03*
X-9507Y-1410I-55J0D01*
G01*
X-8144Y-1820D02*
G03*
X-8144Y-1930I-0J-55D01*
G01*
X-8144Y-1820D02*
G03*
X-8144Y-1930I0J-55D01*
G01*
X-8105Y-2742D02*
G03*
X-8112Y-2765I30J-23D01*
G01*
X-8105Y-2742D02*
G03*
X-8112Y-2765I30J-23D01*
G01*
Y-2835D02*
G03*
X-8075Y-2872I37J0D01*
G01*
X-8569Y-3300D02*
G03*
X-8551Y-3228I-131J72D01*
G01*
X-8633Y-1661D02*
G03*
X-8555Y-1739I39J-39D01*
G01*
X-8633Y-1661D02*
G03*
X-8556Y-1739I39J-39D01*
G01*
X-8551Y-3228D02*
G03*
X-8832Y-3300I-150J0D01*
G01*
X-9582Y-1410D02*
G03*
X-9489Y-1450I37J-40D01*
G01*
X-9875Y-1525D02*
G03*
X-9764Y-1525I55J-0D01*
G01*
X-9875D02*
G03*
X-9764Y-1525I55J0D01*
G01*
X-10200Y-2800D02*
G03*
X-10200Y-2800I-150J0D01*
G01*
X-2764Y-198D02*
Y-150D01*
X-2752Y-203D02*
X-2500D01*
X-2788Y-194D02*
Y-150D01*
X-2812Y-196D02*
Y-150D01*
X-2717Y-229D02*
Y-150D01*
X-2741Y-209D02*
Y-150D01*
X-3407D02*
X-2500D01*
X-3407Y-155D02*
X-2500D01*
X-3407Y-179D02*
X-2500D01*
X-2835Y-204D02*
Y-150D01*
X-3152Y-203D02*
X-2833D01*
X-2859Y-221D02*
Y-150D01*
X-2720Y-226D02*
X-2500D01*
X-2704Y-250D02*
X-2500D01*
X-2697Y-273D02*
X-2500D01*
X-2696Y-297D02*
X-2500D01*
X-2701Y-321D02*
X-2500D01*
X-2712Y-344D02*
X-2500D01*
X-3120Y-226D02*
X-2864D01*
X-2735Y-368D02*
X-2500D01*
X-3135D02*
X-2849D01*
X-3119Y-228D02*
Y-150D01*
X-3142Y-208D02*
Y-150D01*
X-3166Y-197D02*
Y-150D01*
X-3190Y-194D02*
Y-150D01*
X-2883Y-256D02*
Y-150D01*
X-3104Y-250D02*
X-2880D01*
X-3213Y-196D02*
Y-150D01*
X-3407Y-203D02*
X-3233D01*
X-3237Y-205D02*
Y-150D01*
X-3260Y-222D02*
Y-150D01*
X-3407Y-226D02*
X-3264D01*
X-3284Y-261D02*
Y-150D01*
X-3097Y-273D02*
X-2887D01*
X-3101Y-321D02*
X-2884D01*
X-3112Y-344D02*
X-2872D01*
X-3096Y-297D02*
X-2888D01*
X-3407Y-250D02*
X-3280D01*
X-3407Y-273D02*
X-3287D01*
X-3407Y-297D02*
X-3288D01*
X-3407Y-344D02*
X-3272D01*
X-3407Y-368D02*
X-3249D01*
X-3407Y-321D02*
X-3284D01*
X-2694Y-614D02*
Y-150D01*
X-2883Y-617D02*
Y-324D01*
X-2717Y-616D02*
Y-351D01*
X-2646Y-646D02*
Y-150D01*
X-2670Y-622D02*
Y-150D01*
X-2859Y-630D02*
Y-360D01*
X-2953Y-429D02*
Y-150D01*
X-2977Y-429D02*
Y-150D01*
X-3001Y-429D02*
Y-150D01*
X-2906Y-614D02*
Y-150D01*
X-2930Y-622D02*
Y-150D01*
X-3024Y-429D02*
Y-150D01*
X-2812Y-615D02*
Y-385D01*
X-2788Y-615D02*
Y-387D01*
X-2931Y-551D02*
Y-429D01*
X-2741Y-630D02*
Y-372D01*
X-2764Y-625D02*
Y-383D01*
X-2835Y-625D02*
Y-376D01*
X-3407Y-392D02*
X-2500D01*
X-2931Y-439D02*
X-2500D01*
X-3053Y-429D02*
X-2931D01*
Y-462D02*
X-2500D01*
X-2931Y-486D02*
X-2500D01*
X-2931Y-510D02*
X-2500D01*
X-3048Y-429D02*
Y-150D01*
X-3071Y-433D02*
Y-150D01*
X-3095Y-429D02*
Y-150D01*
X-3119Y-435D02*
Y-353D01*
X-3260Y-629D02*
Y-358D01*
X-3284Y-616D02*
Y-319D01*
X-3308Y-614D02*
Y-150D01*
X-3331Y-623D02*
Y-150D01*
X-3355Y-648D02*
Y-150D01*
X-3402Y-873D02*
Y-150D01*
X-3407Y-866D02*
Y-150D01*
X-3053Y-443D02*
Y-429D01*
X-3059Y-439D02*
X-3053D01*
X-3142Y-456D02*
Y-373D01*
X-3190Y-615D02*
Y-387D01*
X-3213Y-615D02*
Y-384D01*
X-3166Y-624D02*
Y-383D01*
X-3142Y-631D02*
Y-525D01*
X-3237Y-626D02*
Y-376D01*
X-3709Y-221D02*
Y-150D01*
X-3736Y-203D02*
X-3493D01*
X-3733Y-204D02*
Y-150D01*
X-3757Y-196D02*
Y-150D01*
X-3686Y-257D02*
Y-150D01*
X-3704Y-226D02*
X-3493D01*
X-6538Y-150D02*
X-3493D01*
X-6538Y-155D02*
X-3493D01*
X-6538Y-179D02*
X-3493D01*
X-3780Y-194D02*
Y-150D01*
X-3804Y-198D02*
Y-150D01*
X-3689Y-250D02*
X-3493D01*
X-3681Y-273D02*
X-3493D01*
X-3680Y-297D02*
X-3493D01*
X-3685Y-321D02*
X-3493D01*
X-3407Y-415D02*
X-2500D01*
X-3697Y-344D02*
X-3493D01*
X-3719Y-368D02*
X-3493D01*
X-6538Y-392D02*
X-3493D01*
X-6538Y-415D02*
X-3493D01*
X-3827Y-208D02*
Y-150D01*
X-4136Y-203D02*
X-3817D01*
X-4111Y-219D02*
Y-150D01*
X-4134Y-203D02*
Y-150D01*
X-3851Y-229D02*
Y-150D01*
X-3922Y-429D02*
Y-150D01*
X-4087Y-253D02*
Y-150D01*
X-4158Y-195D02*
Y-150D01*
X-4182Y-194D02*
Y-150D01*
X-4205Y-198D02*
Y-150D01*
X-4445Y-203D02*
X-4217D01*
X-4229Y-209D02*
Y-150D01*
X-4104Y-226D02*
X-3849D01*
X-4089Y-250D02*
X-3864D01*
X-4081Y-273D02*
X-3871D01*
X-4085Y-321D02*
X-3868D01*
X-4097Y-344D02*
X-3856D01*
X-4080Y-297D02*
X-3873D01*
X-4119Y-368D02*
X-3833D01*
X-4428D02*
X-4233D01*
X-3638Y-626D02*
Y-150D01*
X-3662Y-615D02*
Y-150D01*
X-3686Y-615D02*
Y-323D01*
X-3709Y-625D02*
Y-359D01*
X-3493Y-866D02*
Y-150D01*
X-3497Y-871D02*
Y-150D01*
X-3615Y-665D02*
Y-150D01*
X-3851Y-619D02*
Y-351D01*
X-3757Y-617D02*
Y-385D01*
X-3875Y-614D02*
Y-150D01*
X-3827Y-637D02*
Y-372D01*
X-3733Y-631D02*
Y-376D01*
X-3898Y-619D02*
Y-150D01*
X-3407Y-439D02*
X-3125D01*
X-3407Y-462D02*
X-3147D01*
X-3407Y-486D02*
X-3153D01*
X-3780Y-614D02*
Y-387D01*
X-3407Y-510D02*
X-3150D01*
X-3804Y-621D02*
Y-383D01*
X-3915Y-439D02*
X-3493D01*
X-3915Y-462D02*
X-3493D01*
X-4037Y-429D02*
X-3915D01*
Y-486D02*
X-3493D01*
X-3915Y-510D02*
X-3493D01*
X-3915Y-551D02*
Y-429D01*
X-3946D02*
Y-150D01*
X-3969Y-429D02*
Y-150D01*
X-3993Y-429D02*
Y-150D01*
X-4016Y-429D02*
Y-150D01*
X-4040Y-441D02*
Y-150D01*
X-4064Y-430D02*
Y-150D01*
X-4087Y-430D02*
Y-327D01*
X-4111Y-440D02*
Y-361D01*
X-4134Y-472D02*
Y-377D01*
X-4205Y-622D02*
Y-382D01*
X-4158Y-616D02*
Y-385D01*
X-4229Y-635D02*
Y-371D01*
X-4037Y-443D02*
Y-429D01*
X-4043Y-439D02*
X-4037D01*
X-4134Y-629D02*
Y-509D01*
X-4624Y-439D02*
X-4109D01*
X-4624Y-462D02*
X-4131D01*
X-4624Y-486D02*
X-4137D01*
X-4624Y-510D02*
X-4134D01*
X-4182Y-614D02*
Y-386D01*
X-2931Y-533D02*
X-2500D01*
X-2661Y-628D02*
X-2500D01*
X-2761D02*
X-2739D01*
X-2861D02*
X-2839D01*
X-3407Y-557D02*
X-2500D01*
X-3407Y-581D02*
X-2500D01*
X-3053Y-551D02*
X-2931D01*
X-3407Y-604D02*
X-2500D01*
X-2961Y-628D02*
X-2939D01*
X-2644Y-651D02*
X-2500D01*
X-2639Y-675D02*
X-2500D01*
X-2644Y-699D02*
X-2500D01*
X-2661Y-722D02*
X-2500D01*
X-2761D02*
X-2739D01*
X-2861D02*
X-2839D01*
X-2977Y-618D02*
Y-551D01*
X-3001Y-614D02*
Y-551D01*
X-3053D02*
Y-537D01*
X-3024Y-619D02*
Y-551D01*
X-2953Y-636D02*
Y-551D01*
X-3048Y-637D02*
Y-551D01*
X-3119Y-617D02*
Y-545D01*
X-3095Y-614D02*
Y-551D01*
X-3407Y-533D02*
X-3135D01*
X-3071Y-621D02*
Y-548D01*
X-3061Y-628D02*
X-3039D01*
X-3161D02*
X-3139D01*
X-2961Y-722D02*
X-2939D01*
X-3061D02*
X-3039D01*
X-3261Y-628D02*
X-3239D01*
X-3407D02*
X-3339D01*
X-3161Y-722D02*
X-3139D01*
X-3261D02*
X-3239D01*
X-2741Y-873D02*
Y-720D01*
X-2717Y-897D02*
Y-734D01*
X-2764Y-858D02*
Y-725D01*
X-2646Y-946D02*
Y-704D01*
X-2670Y-922D02*
Y-728D01*
X-2694Y-914D02*
Y-736D01*
X-2788Y-857D02*
Y-735D01*
X-2812Y-857D02*
Y-735D01*
X-2835Y-857D02*
Y-725D01*
X-2941Y-857D02*
X-2775D01*
X-2859D02*
Y-720D01*
X-2702Y-911D02*
X-2500D01*
X-2654Y-935D02*
X-2500D01*
X-2641Y-959D02*
X-2500D01*
X-2639Y-982D02*
X-2500D01*
X-2647Y-1006D02*
X-2500D01*
X-2751Y-864D02*
X-2500D01*
X-2726Y-888D02*
X-2500D01*
X-2744Y-869D02*
X-2700Y-914D01*
X-2941Y-943D02*
X-2852D01*
X-2859Y-959D02*
Y-943D01*
X-3239Y-959D02*
X-2859D01*
X-2883Y-857D02*
Y-733D01*
X-2953Y-849D02*
Y-714D01*
X-2977Y-845D02*
Y-732D01*
X-2930Y-857D02*
Y-728D01*
X-2906Y-857D02*
Y-736D01*
X-3024Y-875D02*
Y-731D01*
X-3260Y-914D02*
Y-721D01*
X-3331Y-914D02*
Y-727D01*
X-3355Y-914D02*
Y-702D01*
X-3001Y-851D02*
Y-736D01*
X-3239Y-935D02*
X-3018D01*
X-3284Y-914D02*
Y-734D01*
X-3239Y-982D02*
X-2861D01*
X-3396Y-888D02*
X-3029D01*
X-3396Y-911D02*
X-3029D01*
X-3308Y-914D02*
Y-736D01*
X-3361Y-914D02*
X-3239D01*
X-3636Y-628D02*
X-3493D01*
X-3736D02*
X-3714D01*
X-3836D02*
X-3814D01*
X-3915Y-533D02*
X-3493D01*
X-6538Y-557D02*
X-3493D01*
X-6538Y-581D02*
X-3493D01*
X-4646Y-604D02*
X-3493D01*
X-3936Y-628D02*
X-3914D01*
X-3407Y-651D02*
X-3356D01*
X-3407Y-675D02*
X-3361D01*
X-3619Y-651D02*
X-3493D01*
X-3407Y-699D02*
X-3356D01*
X-3407Y-722D02*
X-3339D01*
X-3614Y-675D02*
X-3493D01*
X-3619Y-699D02*
X-3493D01*
X-3636Y-722D02*
X-3493D01*
X-3736D02*
X-3714D01*
X-3836D02*
X-3814D01*
X-3946Y-622D02*
Y-551D01*
X-3969Y-614D02*
Y-551D01*
X-4037D02*
Y-537D01*
X-3993Y-617D02*
Y-551D01*
X-3922Y-636D02*
Y-551D01*
X-4016Y-630D02*
Y-551D01*
X-4037D02*
X-3915D01*
X-4064Y-615D02*
Y-550D01*
X-4624Y-533D02*
X-4120D01*
X-4040Y-625D02*
Y-539D01*
X-4087Y-615D02*
Y-550D01*
X-4111Y-626D02*
Y-541D01*
X-4036Y-628D02*
X-4014D01*
X-3936Y-722D02*
X-3914D01*
X-4036D02*
X-4014D01*
X-4136Y-628D02*
X-4114D01*
X-4236D02*
X-4214D01*
X-4136Y-722D02*
X-4114D01*
X-3407Y-746D02*
X-2500D01*
X-3407Y-770D02*
X-2500D01*
X-3407Y-793D02*
X-2500D01*
X-3407Y-817D02*
X-2500D01*
X-3407Y-840D02*
X-2500D01*
X-3407Y-864D02*
X-3017D01*
X-3615Y-965D02*
Y-685D01*
X-4643Y-746D02*
X-3493D01*
X-4643Y-770D02*
X-3493D01*
X-4643Y-793D02*
X-3493D01*
X-4643Y-817D02*
X-3493D01*
X-4643Y-840D02*
X-3493D01*
X-3407Y-935D02*
X-3361D01*
X-3413Y-959D02*
X-3361D01*
X-3413Y-982D02*
X-3361D01*
X-4643Y-864D02*
X-3493D01*
X-4643Y-888D02*
X-3504D01*
X-4643Y-911D02*
X-3504D01*
X-3616Y-959D02*
X-3487D01*
X-3614Y-982D02*
X-3487D01*
X-3629Y-935D02*
X-3493D01*
X-3709Y-925D02*
Y-725D01*
X-3733Y-931D02*
Y-719D01*
X-3638Y-926D02*
Y-724D01*
X-3827Y-944D02*
Y-713D01*
X-4236Y-722D02*
X-4214D01*
X-4229Y-914D02*
Y-715D01*
X-3662Y-915D02*
Y-735D01*
X-3686Y-915D02*
Y-735D01*
X-3780Y-914D02*
Y-736D01*
X-3729Y-935D02*
X-3721D01*
X-3757Y-917D02*
Y-733D01*
X-3804Y-921D02*
Y-729D01*
X-4214Y-935D02*
X-3821D01*
X-4336Y-914D02*
X-4214D01*
Y-959D02*
X-3834D01*
X-4214Y-982D02*
X-3836D01*
X-4418Y-221D02*
Y-150D01*
X-4413Y-226D02*
X-4249D01*
X-4442Y-204D02*
Y-150D01*
X-4465Y-196D02*
Y-150D01*
X-4253Y-231D02*
Y-150D01*
X-4394Y-257D02*
Y-150D01*
X-4489Y-194D02*
Y-150D01*
X-4512Y-198D02*
Y-150D01*
X-4845Y-203D02*
X-4526D01*
X-4536Y-208D02*
Y-150D01*
X-4560Y-229D02*
Y-150D01*
X-4796Y-253D02*
Y-150D01*
X-4397Y-250D02*
X-4264D01*
X-4390Y-273D02*
X-4271D01*
X-4389Y-297D02*
X-4273D01*
X-4394Y-321D02*
X-4268D01*
X-4813Y-226D02*
X-4557D01*
X-4797Y-250D02*
X-4573D01*
X-4790Y-273D02*
X-4580D01*
X-4789Y-297D02*
X-4581D01*
X-4794Y-321D02*
X-4577D01*
X-4843Y-203D02*
Y-150D01*
X-4867Y-195D02*
Y-150D01*
X-4890Y-194D02*
Y-150D01*
X-4914Y-198D02*
Y-150D01*
X-4820Y-219D02*
Y-150D01*
X-4938Y-209D02*
Y-150D01*
X-4961Y-231D02*
Y-150D01*
X-5174Y-196D02*
Y-150D01*
X-5197Y-194D02*
Y-150D01*
X-5221Y-198D02*
Y-150D01*
X-5103Y-257D02*
Y-150D01*
X-5127Y-221D02*
Y-150D01*
X-5150Y-204D02*
Y-150D01*
X-5121Y-226D02*
X-4957D01*
X-5106Y-250D02*
X-4973D01*
X-5099Y-273D02*
X-4980D01*
X-5097Y-297D02*
X-4981D01*
X-5245Y-208D02*
Y-150D01*
X-5153Y-203D02*
X-4926D01*
X-5268Y-229D02*
Y-150D01*
X-4276Y-614D02*
Y-150D01*
X-4300Y-619D02*
Y-150D01*
X-4323Y-638D02*
Y-150D01*
X-4583Y-958D02*
Y-150D01*
X-4607Y-965D02*
Y-150D01*
X-4631Y-429D02*
Y-150D01*
X-4654Y-429D02*
Y-150D01*
X-4678Y-429D02*
Y-150D01*
X-4701Y-429D02*
Y-150D01*
X-4725Y-429D02*
Y-150D01*
X-4749Y-441D02*
Y-150D01*
X-4405Y-344D02*
X-4256D01*
X-4253Y-618D02*
Y-349D01*
X-4512Y-958D02*
Y-383D01*
X-4536Y-958D02*
Y-372D01*
X-4489Y-968D02*
Y-387D01*
X-4560Y-958D02*
Y-351D01*
X-4805Y-344D02*
X-4565D01*
X-4828Y-368D02*
X-4542D01*
X-4746Y-429D02*
X-4624D01*
Y-551D02*
Y-429D01*
X-4746Y-443D02*
Y-429D01*
X-5102Y-321D02*
X-4977D01*
X-4772Y-430D02*
Y-150D01*
X-5292Y-958D02*
Y-150D01*
X-5339Y-429D02*
Y-150D01*
X-5363Y-429D02*
Y-150D01*
X-5386Y-429D02*
Y-150D01*
X-5316Y-973D02*
Y-150D01*
X-5410Y-429D02*
Y-150D01*
X-5434Y-429D02*
Y-150D01*
X-4796Y-430D02*
Y-327D01*
X-5137Y-368D02*
X-4942D01*
X-5114Y-344D02*
X-4965D01*
X-4820Y-440D02*
Y-361D01*
X-4843Y-471D02*
Y-377D01*
X-5197Y-962D02*
Y-387D01*
X-5455Y-429D02*
X-5333D01*
Y-551D02*
Y-429D01*
X-5455Y-443D02*
Y-429D01*
X-5245Y-958D02*
Y-372D01*
X-5221Y-958D02*
Y-383D01*
X-5268Y-958D02*
Y-351D01*
X-5552Y-203D02*
Y-150D01*
X-5575Y-195D02*
Y-150D01*
X-5599Y-194D02*
Y-150D01*
X-5623Y-198D02*
Y-150D01*
X-5505Y-253D02*
Y-150D01*
X-5553Y-203D02*
X-5234D01*
X-5528Y-219D02*
Y-150D01*
X-5646Y-209D02*
Y-150D01*
X-5859Y-204D02*
Y-150D01*
X-5883Y-196D02*
Y-150D01*
X-5670Y-231D02*
Y-150D01*
X-5812Y-257D02*
Y-150D01*
X-5835Y-221D02*
Y-150D01*
X-5521Y-226D02*
X-5266D01*
X-5506Y-250D02*
X-5281D01*
X-5499Y-273D02*
X-5289D01*
X-5497Y-297D02*
X-5290D01*
X-5862Y-203D02*
X-5634D01*
X-5830Y-226D02*
X-5666D01*
X-5815Y-250D02*
X-5681D01*
X-5807Y-273D02*
X-5689D01*
X-5906Y-194D02*
Y-150D01*
X-5930Y-198D02*
Y-150D01*
X-5953Y-208D02*
Y-150D01*
X-6260Y-203D02*
Y-150D01*
X-5977Y-229D02*
Y-150D01*
X-6213Y-253D02*
Y-150D01*
X-6237Y-219D02*
Y-150D01*
X-6284Y-195D02*
Y-150D01*
X-6308Y-194D02*
Y-150D01*
X-6331Y-198D02*
Y-150D01*
X-6355Y-209D02*
Y-150D01*
X-6262Y-203D02*
X-5943D01*
X-6379Y-231D02*
Y-150D01*
X-6230Y-226D02*
X-5975D01*
X-6215Y-250D02*
X-5990D01*
X-6207Y-273D02*
X-5997D01*
X-6538Y-203D02*
X-6343D01*
X-6538Y-226D02*
X-6375D01*
X-6538Y-250D02*
X-6390D01*
X-6538Y-273D02*
X-6397D01*
X-5502Y-321D02*
X-5285D01*
X-5514Y-344D02*
X-5273D01*
X-5457Y-441D02*
Y-150D01*
X-5481Y-430D02*
Y-150D01*
X-5505Y-430D02*
Y-327D01*
X-5806Y-297D02*
X-5690D01*
X-5811Y-321D02*
X-5685D01*
X-6211D02*
X-5994D01*
X-5823Y-344D02*
X-5673D01*
X-5528Y-440D02*
Y-361D01*
X-5537Y-368D02*
X-5251D01*
X-5845D02*
X-5651D01*
X-5552Y-471D02*
Y-377D01*
X-5883Y-976D02*
Y-385D01*
X-6245Y-368D02*
X-5959D01*
X-5930Y-958D02*
Y-383D01*
X-6223Y-344D02*
X-5982D01*
X-5953Y-958D02*
Y-372D01*
X-5906Y-959D02*
Y-387D01*
X-5977Y-958D02*
Y-351D01*
X-6048Y-429D02*
Y-150D01*
X-6071Y-429D02*
Y-150D01*
X-6095Y-429D02*
Y-150D01*
X-6001Y-961D02*
Y-150D01*
X-6119Y-429D02*
Y-150D01*
X-6142Y-429D02*
Y-150D01*
X-6190Y-430D02*
Y-150D01*
X-6166Y-441D02*
Y-150D01*
X-6757Y-627D02*
Y-150D01*
X-6780Y-616D02*
Y-150D01*
X-6206Y-297D02*
X-5999D01*
X-6163Y-429D02*
X-6041D01*
X-6213Y-430D02*
Y-327D01*
X-6041Y-551D02*
Y-429D01*
X-6163Y-443D02*
Y-429D01*
X-6237Y-440D02*
Y-361D01*
X-6538Y-321D02*
X-6394D01*
X-6538Y-344D02*
X-6382D01*
X-6538Y-297D02*
X-6399D01*
X-6260Y-471D02*
Y-377D01*
X-6538Y-368D02*
X-6359D01*
X-4678Y-583D02*
Y-551D01*
X-4720Y-583D02*
X-4680D01*
X-4701D02*
Y-551D01*
X-4725Y-583D02*
Y-551D01*
X-4654Y-593D02*
Y-551D01*
X-4752Y-439D02*
X-4746D01*
Y-551D02*
X-4624D01*
X-4746D02*
Y-537D01*
X-4749Y-596D02*
Y-539D01*
X-4643Y-628D02*
X-4314D01*
X-4643Y-651D02*
X-4331D01*
X-5343Y-628D02*
X-4757D01*
X-4643Y-699D02*
X-4331D01*
X-4643Y-722D02*
X-4314D01*
X-4643Y-675D02*
X-4336D01*
X-5346Y-604D02*
X-4754D01*
X-5343Y-651D02*
X-4757D01*
X-5343Y-675D02*
X-4757D01*
X-5343Y-699D02*
X-4757D01*
X-5343Y-722D02*
X-4757D01*
X-5343Y-746D02*
X-4757D01*
X-5333Y-439D02*
X-4818D01*
X-5333Y-462D02*
X-4839D01*
X-5333Y-510D02*
X-4843D01*
X-5333Y-486D02*
X-4846D01*
X-5461Y-439D02*
X-5455D01*
X-5333Y-533D02*
X-4828D01*
X-5455Y-551D02*
Y-537D01*
X-5457Y-617D02*
Y-539D01*
X-5363Y-587D02*
Y-551D01*
X-5386Y-583D02*
Y-551D01*
X-4772Y-758D02*
Y-550D01*
X-4757Y-758D02*
Y-620D01*
X-5455Y-551D02*
X-5333D01*
X-5420Y-583D02*
X-5380D01*
X-5410D02*
Y-551D01*
X-5434Y-585D02*
Y-551D01*
X-4253Y-914D02*
Y-732D01*
X-4276Y-914D02*
Y-736D01*
X-4643Y-905D02*
Y-620D01*
X-4300Y-914D02*
Y-731D01*
X-4323Y-914D02*
Y-712D01*
X-4796Y-758D02*
Y-550D01*
X-4820Y-758D02*
X-4757D01*
X-4820D02*
Y-541D01*
X-4507Y-959D02*
X-4336D01*
X-4585Y-958D02*
X-4515D01*
X-4480Y-982D02*
X-4336D01*
X-4658Y-935D02*
X-4336D01*
X-5207Y-959D02*
X-4593D01*
X-4820Y-942D02*
X-4680D01*
X-5180Y-982D02*
X-4620D01*
X-4843Y-766D02*
Y-509D01*
X-5343Y-770D02*
X-4847D01*
X-5343Y-793D02*
X-4857D01*
X-4857Y-905D02*
Y-795D01*
X-5343Y-817D02*
X-4857D01*
X-5343Y-905D02*
Y-620D01*
X-5481Y-758D02*
Y-550D01*
X-5457Y-758D02*
Y-620D01*
X-5505Y-758D02*
Y-550D01*
X-5343Y-840D02*
X-4857D01*
X-5343Y-864D02*
X-4857D01*
X-5520Y-758D02*
X-5457D01*
X-5285Y-958D02*
X-5215D01*
X-5343Y-888D02*
X-4857D01*
X-5358Y-935D02*
X-4842D01*
X-5343Y-911D02*
X-4857D01*
X-6041Y-439D02*
X-5527D01*
X-6041Y-462D02*
X-5548D01*
X-6041Y-486D02*
X-5555D01*
X-6041Y-510D02*
X-5552D01*
X-6041Y-533D02*
X-5537D01*
X-6048Y-601D02*
Y-551D01*
X-6163D02*
X-6041D01*
X-6071Y-584D02*
Y-551D01*
X-6095Y-583D02*
Y-551D01*
X-6119Y-583D02*
Y-551D01*
X-6142Y-590D02*
Y-551D01*
X-6043Y-628D02*
X-5457D01*
X-6043Y-651D02*
X-5457D01*
X-6043Y-675D02*
X-5457D01*
X-6043Y-699D02*
X-5457D01*
X-6043Y-722D02*
X-5457D01*
X-6043Y-746D02*
X-5457D01*
X-6120Y-583D02*
X-6080D01*
X-6046Y-604D02*
X-5454D01*
X-6538D02*
X-6154D01*
X-6169Y-439D02*
X-6163D01*
Y-551D02*
Y-537D01*
X-6166Y-758D02*
Y-539D01*
X-6190Y-758D02*
Y-550D01*
X-6213Y-758D02*
Y-550D01*
X-6538Y-439D02*
X-6235D01*
X-6538Y-462D02*
X-6257D01*
X-6538Y-510D02*
X-6260D01*
X-6538Y-533D02*
X-6245D01*
X-6538Y-486D02*
X-6263D01*
X-6538Y-628D02*
X-6157D01*
X-6538Y-651D02*
X-6157D01*
X-6538Y-675D02*
X-6157D01*
X-6538Y-699D02*
X-6157D01*
X-6538Y-722D02*
X-6157D01*
Y-758D02*
Y-620D01*
X-6756Y-628D02*
X-6612D01*
X-6738Y-651D02*
X-6612D01*
X-6733Y-675D02*
X-6612D01*
X-6738Y-699D02*
X-6612D01*
X-6538Y-746D02*
X-6157D01*
X-6756Y-722D02*
X-6612D01*
X-5552Y-775D02*
Y-509D01*
X-5528Y-759D02*
Y-541D01*
X-5557Y-905D02*
Y-795D01*
X-6043Y-770D02*
X-5547D01*
X-6043Y-793D02*
X-5557D01*
X-6043Y-817D02*
X-5557D01*
X-6043Y-840D02*
X-5557D01*
X-6043Y-864D02*
X-5557D01*
X-6043Y-888D02*
X-5557D01*
X-5520Y-942D02*
X-5380D01*
X-5907Y-959D02*
X-5293D01*
X-5985Y-958D02*
X-5915D01*
X-5880Y-982D02*
X-5320D01*
X-6043Y-911D02*
X-5557D01*
X-6058Y-935D02*
X-5542D01*
X-6538Y-959D02*
X-5993D01*
X-6538Y-982D02*
X-6020D01*
X-6220Y-758D02*
X-6157D01*
X-6237Y-762D02*
Y-541D01*
X-6043Y-905D02*
Y-620D01*
X-6257Y-905D02*
Y-795D01*
X-6538Y-770D02*
X-6247D01*
X-6538Y-793D02*
X-6257D01*
X-6538Y-817D02*
X-6257D01*
X-6757Y-927D02*
Y-723D01*
X-6538Y-840D02*
X-6257D01*
X-6780Y-916D02*
Y-734D01*
X-6538Y-864D02*
X-6257D01*
X-6220Y-942D02*
X-6080D01*
X-6538Y-911D02*
X-6257D01*
X-6538Y-935D02*
X-6242D01*
X-6538Y-888D02*
X-6257D01*
X-6748Y-935D02*
X-6612D01*
X-6736Y-959D02*
X-6612D01*
X-6734Y-982D02*
X-6612D01*
X-2672Y-1029D02*
X-2500D01*
X-3413Y-1053D02*
X-2500D01*
X-3413Y-1077D02*
X-2500D01*
X-3413Y-1100D02*
X-2500D01*
X-3413Y-1124D02*
X-2500D01*
X-3413Y-1148D02*
X-2500D01*
X-3413Y-1171D02*
X-2500D01*
X-3413Y-1195D02*
X-2500D01*
X-3413Y-1218D02*
X-2500D01*
X-3413Y-1242D02*
X-2500D01*
X-3413Y-1266D02*
X-2500D01*
X-3413Y-1289D02*
X-2500D01*
X-3413Y-1313D02*
X-2500D01*
X-3413Y-1336D02*
X-2500D01*
X-3413Y-1360D02*
X-2500D01*
X-3413Y-1384D02*
X-2500D01*
X-3413Y-1407D02*
X-2500D01*
X-3413Y-1431D02*
X-2500D01*
X-3413Y-1455D02*
X-2500D01*
X-3413Y-1478D02*
X-2500D01*
X-3413Y-1502D02*
X-2500D01*
X-3413Y-1525D02*
X-2500D01*
X-3413Y-1549D02*
X-2500D01*
X-3413Y-1573D02*
X-2500D01*
X-3419Y-1596D02*
X-2500D01*
X-3071Y-1795D02*
Y-729D01*
X-2977Y-1795D02*
Y-955D01*
X-3001Y-1801D02*
Y-949D01*
X-2953Y-1799D02*
Y-951D01*
X-3048Y-1802D02*
Y-713D01*
X-3239Y-1036D02*
Y-914D01*
X-3361Y-1036D02*
Y-914D01*
X-3095Y-1799D02*
Y-736D01*
X-3413Y-1575D02*
Y-940D01*
X-3487Y-1575D02*
Y-940D01*
X-2772Y-1029D02*
X-2728D01*
X-2938Y-1809D02*
X-2500D01*
X-3239Y-1006D02*
X-2853D01*
X-3038Y-1809D02*
X-3012D01*
X-3413Y-1006D02*
X-3361D01*
X-3239Y-1029D02*
X-2828D01*
X-3622Y-1006D02*
X-3487D01*
X-3413Y-1029D02*
X-3361D01*
Y-1036D02*
X-3239D01*
X-2500Y-3050D02*
Y-150D01*
X-2505Y-3050D02*
Y-150D01*
X-2528Y-3050D02*
Y-150D01*
X-2552Y-3050D02*
Y-150D01*
X-2575Y-3050D02*
Y-150D01*
X-2599Y-3050D02*
Y-150D01*
X-2623Y-3050D02*
Y-150D01*
X-2930Y-1819D02*
Y-943D01*
X-2646Y-3050D02*
Y-1004D01*
X-3024Y-1813D02*
Y-925D01*
X-2883Y-3300D02*
Y-943D01*
X-2859Y-3300D02*
Y-991D01*
X-2906Y-3300D02*
Y-943D01*
X-2670Y-3050D02*
Y-1028D01*
X-2694Y-3050D02*
Y-1036D01*
X-2717Y-3050D02*
Y-1034D01*
X-2741Y-3050D02*
Y-1020D01*
X-2764Y-3050D02*
Y-1025D01*
X-2788Y-3300D02*
Y-1035D01*
X-3035Y-1813D02*
X-3015D01*
X-2923Y-1833D02*
X-2500D01*
X-2835Y-3300D02*
Y-1025D01*
X-2812Y-3300D02*
Y-1035D01*
X-3142Y-1808D02*
Y-719D01*
X-3119Y-1808D02*
Y-733D01*
X-3166Y-1808D02*
Y-726D01*
X-3190Y-1808D02*
Y-735D01*
X-3237Y-2043D02*
Y-724D01*
X-3213Y-1820D02*
Y-735D01*
X-3379Y-2043D02*
Y-150D01*
X-3568Y-2058D02*
Y-150D01*
X-3402Y-2043D02*
Y-927D01*
X-3591Y-2058D02*
Y-150D01*
X-3520Y-3300D02*
Y-150D01*
X-3497Y-3300D02*
Y-929D01*
X-3544Y-2074D02*
Y-150D01*
X-3185Y-1808D02*
X-3115D01*
X-3260Y-2043D02*
Y-1036D01*
X-3284Y-2043D02*
Y-1036D01*
X-3308Y-2043D02*
Y-1036D01*
X-3331Y-2043D02*
Y-1036D01*
X-3355Y-2043D02*
Y-1036D01*
X-3426Y-2043D02*
Y-1604D01*
X-3473Y-3300D02*
Y-1604D01*
X-3449Y-2048D02*
Y-1612D01*
X-3615Y-2058D02*
Y-985D01*
X-3647Y-1029D02*
X-3487D01*
X-3747D02*
X-3703D01*
X-3686Y-1297D02*
Y-1035D01*
X-3843Y-1100D02*
X-3487D01*
X-3709Y-1283D02*
Y-1025D01*
X-4478Y-1053D02*
X-3487D01*
X-3856Y-1077D02*
X-3487D01*
X-3843Y-1124D02*
X-3487D01*
X-3843Y-1148D02*
X-3487D01*
X-3843Y-1171D02*
X-3487D01*
X-3843Y-1195D02*
X-3487D01*
X-3694Y-1289D02*
X-3487D01*
X-3678Y-1313D02*
X-3487D01*
X-3678Y-1336D02*
X-3487D01*
X-3678Y-1360D02*
X-3487D01*
X-3678Y-1384D02*
X-3487D01*
X-3678Y-1405D02*
Y-1320D01*
X-3843Y-1218D02*
X-3487D01*
X-3845Y-1242D02*
X-3487D01*
X-3869Y-1266D02*
X-3487D01*
X-3785Y-1283D02*
X-3715D01*
X-3733D02*
Y-1019D01*
X-3851Y-1081D02*
Y-731D01*
X-3875Y-1068D02*
Y-736D01*
X-3757Y-1283D02*
Y-1033D01*
X-3780Y-1283D02*
Y-1036D01*
X-3804Y-1288D02*
Y-1029D01*
X-4214Y-1006D02*
X-3828D01*
X-4214Y-1029D02*
X-3803D01*
X-3898Y-1068D02*
Y-731D01*
X-3922Y-1068D02*
Y-714D01*
X-3946Y-1068D02*
Y-728D01*
X-3843Y-1230D02*
Y-1105D01*
X-4020Y-1267D02*
X-3880D01*
X-4983Y-1289D02*
X-3806D01*
X-4709Y-1313D02*
X-3822D01*
X-4180Y-1068D02*
X-3880D01*
X-4697Y-1336D02*
X-3822D01*
X-4337Y-1360D02*
X-3822D01*
X-4322Y-1384D02*
X-3822D01*
X-3678Y-1407D02*
X-3487D01*
X-3688Y-1431D02*
X-3487D01*
X-3638Y-2059D02*
Y-1024D01*
X-3662Y-2076D02*
Y-1035D01*
X-3686Y-2078D02*
Y-1428D01*
X-3709Y-2087D02*
Y-1442D01*
X-4320Y-1455D02*
X-3487D01*
X-3785Y-1442D02*
X-3715D01*
X-3733Y-3119D02*
Y-1442D01*
X-4320Y-1478D02*
X-3487D01*
X-3757Y-3114D02*
Y-1442D01*
X-3895Y-1620D02*
X-2500D01*
X-3898Y-1644D02*
X-2500D01*
X-3903Y-1596D02*
X-3481D01*
X-3907Y-1691D02*
X-2500D01*
X-3896Y-1714D02*
X-2500D01*
X-3896Y-1738D02*
X-2500D01*
X-4320Y-1502D02*
X-3487D01*
X-4320Y-1525D02*
X-3487D01*
X-4320Y-1549D02*
X-3487D01*
X-3913Y-1667D02*
X-2500D01*
X-3909Y-1762D02*
X-2500D01*
X-3933Y-1573D02*
X-3487D01*
X-3822Y-1405D02*
Y-1320D01*
X-3827Y-1820D02*
Y-1006D01*
X-3804Y-1824D02*
Y-1437D01*
X-3851Y-1820D02*
Y-1254D01*
X-4320Y-1407D02*
X-3822D01*
X-4320Y-1431D02*
X-3812D01*
X-3946Y-1570D02*
Y-1267D01*
X-3875Y-1820D02*
Y-1267D01*
X-3898Y-1606D02*
Y-1267D01*
X-3922Y-1578D02*
Y-1267D01*
X-3898Y-1706D02*
Y-1644D01*
Y-1820D02*
Y-1744D01*
X-3780Y-1843D02*
Y-1442D01*
X-3913Y-1685D02*
Y-1665D01*
X-4050Y-1820D02*
X-3825D01*
X-3922D02*
Y-1772D01*
X-2920Y-1856D02*
X-2500D01*
X-2929Y-1880D02*
X-2500D01*
X-3035Y-1887D02*
X-3015D01*
X-2961Y-1903D02*
X-2500D01*
X-3061D02*
X-2989D01*
X-3078Y-1927D02*
X-2500D01*
X-3084Y-1951D02*
X-2500D01*
X-3078Y-1930D02*
Y-1905D01*
X-3185Y-1967D02*
X-3115D01*
X-3169Y-2069D02*
X-2500D01*
X-3168Y-2092D02*
X-2500D01*
X-3168Y-2116D02*
X-2500D01*
X-3168Y-2140D02*
X-2500D01*
X-3168Y-2163D02*
X-2500D01*
X-3168Y-2220D02*
Y-2080D01*
X-3191Y-2045D02*
X-2500D01*
X-3168Y-2187D02*
X-2500D01*
X-3168Y-2210D02*
X-2500D01*
X-3170Y-2234D02*
X-2500D01*
X-3222Y-1930D02*
Y-1845D01*
X-3213Y-2043D02*
Y-1955D01*
X-3190Y-2046D02*
Y-1967D01*
X-3430Y-2043D02*
X-3205D01*
X-3548Y-2069D02*
X-3466D01*
X-3538Y-2092D02*
X-3467D01*
Y-2220D02*
Y-2080D01*
X-3538Y-2205D02*
Y-2095D01*
X-3430Y-2257D02*
X-3205D01*
X-3538Y-2116D02*
X-3467D01*
X-3538Y-2140D02*
X-3467D01*
X-3538Y-2163D02*
X-3467D01*
X-3538Y-2187D02*
X-3467D01*
X-3552Y-2234D02*
X-3465D01*
X-3538Y-2210D02*
X-3467D01*
X-2930Y-3300D02*
Y-1881D01*
X-2953Y-3300D02*
Y-1901D01*
X-3001Y-3300D02*
Y-1899D01*
X-2977Y-3300D02*
Y-1905D01*
X-3024Y-3300D02*
Y-1887D01*
X-3048Y-3300D02*
Y-1898D01*
X-3071Y-3300D02*
Y-1905D01*
X-3166Y-2616D02*
Y-1967D01*
X-3095Y-3300D02*
Y-1962D01*
X-3119Y-3300D02*
Y-1967D01*
X-3142Y-3300D02*
Y-1967D01*
X-3158Y-2636D02*
X-2500D01*
X-3158Y-2659D02*
X-2500D01*
X-3158Y-2683D02*
X-2500D01*
X-2775Y-3050D02*
X-2500D01*
X-2775Y-3300D02*
Y-3050D01*
X-3158Y-2710D02*
Y-2640D01*
X-3170Y-2612D02*
X-2500D01*
X-3158Y-2707D02*
X-2500D01*
X-3164Y-2730D02*
X-2500D01*
X-3166Y-3300D02*
Y-2734D01*
X-3190Y-2603D02*
Y-2254D01*
X-3213Y-2604D02*
Y-2257D01*
X-3237Y-2620D02*
Y-2257D01*
X-3260Y-3300D02*
Y-2257D01*
X-3284Y-3300D02*
Y-2257D01*
X-3308Y-3300D02*
Y-2257D01*
X-3331Y-3300D02*
Y-2257D01*
X-3355Y-3300D02*
Y-2257D01*
X-3379Y-3300D02*
Y-2257D01*
X-3544Y-3300D02*
Y-2226D01*
X-3449Y-3300D02*
Y-2252D01*
X-3568Y-3300D02*
Y-2242D01*
X-3205Y-2603D02*
X-3195D01*
X-3205Y-2747D02*
X-3195D01*
X-3190Y-3300D02*
Y-2747D01*
X-3213Y-3300D02*
Y-2746D01*
X-3237Y-3300D02*
Y-2730D01*
X-3242Y-2710D02*
Y-2640D01*
X-3402Y-3300D02*
Y-2257D01*
X-3426Y-3300D02*
Y-2257D01*
X-3630Y-2058D02*
X-3575D01*
X-3685Y-2078D02*
X-3663D01*
X-3790Y-1833D02*
X-3220D01*
X-3773Y-1856D02*
X-3222D01*
X-3770Y-1880D02*
X-3222D01*
X-3778Y-1903D02*
X-3222D01*
X-3807Y-1927D02*
X-3222D01*
X-3630Y-2242D02*
X-3575D01*
X-3685Y-2227D02*
X-3660D01*
X-3796Y-2659D02*
X-3242D01*
X-3810Y-2612D02*
X-3230D01*
X-3797Y-2636D02*
X-3242D01*
X-3806Y-2683D02*
X-3242D01*
X-3881Y-2730D02*
X-3236D01*
X-3859Y-2754D02*
X-2500D01*
X-3920Y-2707D02*
X-3242D01*
X-3722Y-2190D02*
Y-2115D01*
X-3804Y-2620D02*
Y-1926D01*
X-3827Y-2600D02*
Y-1930D01*
X-3851Y-2595D02*
Y-1930D01*
X-4050D02*
X-3825D01*
X-3875Y-2601D02*
Y-1930D01*
X-3898Y-2613D02*
Y-1930D01*
X-3925Y-2613D02*
X-3890D01*
X-3922D02*
Y-1930D01*
X-3910Y-2687D02*
X-3890D01*
X-3898Y-2728D02*
Y-2687D01*
X-3875Y-2734D02*
Y-2699D01*
X-3920Y-2698D02*
X-3910Y-2687D01*
X-3927Y-2728D02*
X-3895D01*
X-3922D02*
Y-2715D01*
X-3662Y-3137D02*
Y-2227D01*
X-3709Y-3114D02*
Y-2218D01*
X-3686Y-3119D02*
Y-2227D01*
X-3591Y-3300D02*
Y-2242D01*
X-3615Y-3300D02*
Y-2242D01*
X-3638Y-3300D02*
Y-2241D01*
X-3858Y-2777D02*
X-2500D01*
X-3858Y-2801D02*
X-2500D01*
X-3858Y-2825D02*
X-2500D01*
X-3860Y-2848D02*
X-2500D01*
X-3889Y-2872D02*
X-2500D01*
X-3871Y-3114D02*
X-3749D01*
X-3667Y-3132D02*
X-2775D01*
X-3652Y-3155D02*
X-2775D01*
X-3649Y-3179D02*
X-2775D01*
X-3655Y-3203D02*
X-2775D01*
X-3677Y-3226D02*
X-2775D01*
X-3662Y-3300D02*
Y-3213D01*
X-3749Y-3226D02*
X-3743D01*
X-3749Y-3128D02*
Y-3114D01*
X-3686Y-3300D02*
Y-3231D01*
X-3709Y-3300D02*
Y-3236D01*
X-3733Y-3300D02*
Y-3231D01*
X-3780Y-3114D02*
Y-1907D01*
X-3804Y-3114D02*
Y-2680D01*
X-3858Y-2835D02*
Y-2765D01*
X-3827Y-3114D02*
Y-2700D01*
X-3851Y-3114D02*
Y-2705D01*
X-3871Y-3236D02*
Y-3114D01*
X-3980Y-2872D02*
X-3895D01*
X-3875Y-3300D02*
Y-2866D01*
X-3898Y-3300D02*
Y-2872D01*
X-3922Y-3300D02*
Y-2872D01*
X-3749Y-3236D02*
Y-3222D01*
X-3757Y-3300D02*
Y-3236D01*
X-3780Y-3300D02*
Y-3236D01*
X-3804Y-3300D02*
Y-3236D01*
X-3827Y-3300D02*
Y-3236D01*
X-3851Y-3300D02*
Y-3236D01*
X-6423Y-3132D02*
X-3871D01*
X-6408Y-3155D02*
X-3871D01*
X-6405Y-3179D02*
X-3871D01*
X-6411Y-3203D02*
X-3871D01*
Y-3236D02*
X-3749D01*
X-6433Y-3226D02*
X-3871D01*
X-3969Y-1068D02*
Y-736D01*
X-3993Y-1068D02*
Y-733D01*
X-4016Y-1068D02*
Y-720D01*
X-4040Y-1068D02*
Y-725D01*
X-4064Y-1068D02*
Y-735D01*
X-4087Y-1068D02*
Y-735D01*
X-4111Y-1068D02*
Y-724D01*
X-4134Y-1068D02*
Y-721D01*
X-4214Y-1036D02*
Y-914D01*
X-4158Y-1068D02*
Y-734D01*
X-4182Y-1068D02*
Y-736D01*
X-4205Y-1077D02*
Y-728D01*
X-4180Y-1182D02*
X-4057D01*
Y-1230D02*
Y-1182D01*
X-4336Y-1036D02*
X-4214D01*
X-4478Y-1077D02*
X-4204D01*
X-4484Y-1100D02*
X-4217D01*
X-4217Y-1145D02*
Y-1105D01*
X-4336Y-1036D02*
Y-914D01*
X-4478Y-1006D02*
X-4336D01*
X-4478Y-1080D02*
Y-995D01*
X-4622Y-1080D02*
Y-995D01*
X-4725Y-1301D02*
Y-942D01*
X-4749Y-1295D02*
Y-942D01*
X-4772Y-1300D02*
Y-942D01*
X-5008Y-1272D02*
Y-150D01*
X-5178Y-1006D02*
X-4622D01*
X-5178Y-1080D02*
Y-995D01*
X-4985Y-1287D02*
Y-150D01*
X-5032Y-1270D02*
Y-150D01*
X-5056Y-1279D02*
Y-150D01*
X-4478Y-1029D02*
X-4336D01*
X-4585Y-1117D02*
X-4515D01*
X-5178Y-1029D02*
X-4622D01*
X-5178Y-1053D02*
X-4622D01*
X-5178Y-1077D02*
X-4622D01*
X-5184Y-1100D02*
X-4616D01*
X-4229Y-3300D02*
Y-1036D01*
X-4323Y-1380D02*
Y-1036D01*
X-4347Y-1352D02*
Y-150D01*
X-4371Y-1345D02*
Y-150D01*
X-4253Y-3300D02*
Y-1036D01*
X-4276Y-3300D02*
Y-1036D01*
X-4300Y-3300D02*
Y-1036D01*
X-4394Y-1348D02*
Y-323D01*
X-4418Y-1365D02*
Y-359D01*
X-4442Y-1564D02*
Y-376D01*
X-4465Y-1587D02*
Y-385D01*
X-4489Y-1611D02*
Y-1107D01*
X-4512Y-1634D02*
Y-1117D01*
X-3969Y-1573D02*
Y-1267D01*
X-3993Y-1590D02*
Y-1267D01*
X-4016Y-1820D02*
Y-1267D01*
X-4064Y-1822D02*
Y-1182D01*
X-4040Y-1820D02*
Y-1262D01*
X-4087Y-1834D02*
Y-1182D01*
X-4111Y-3300D02*
Y-1182D01*
X-4134Y-3300D02*
Y-1182D01*
X-4536Y-1658D02*
Y-1117D01*
X-4158Y-3300D02*
Y-1182D01*
X-4182Y-3300D02*
Y-1182D01*
X-4205Y-3300D02*
Y-1173D01*
X-4631Y-3300D02*
Y-551D01*
X-4654Y-3300D02*
Y-932D01*
X-4867Y-3300D02*
Y-385D01*
X-4843Y-3300D02*
Y-934D01*
X-4914Y-3300D02*
Y-382D01*
X-4890Y-3300D02*
Y-386D01*
X-4938Y-3300D02*
Y-371D01*
X-5079Y-1316D02*
Y-150D01*
X-4961Y-3300D02*
Y-349D01*
X-5103Y-3300D02*
Y-323D01*
X-5127Y-3300D02*
Y-359D01*
X-5150Y-3300D02*
Y-376D01*
X-5174Y-3300D02*
Y-385D01*
X-4701Y-1324D02*
Y-942D01*
X-4560Y-3300D02*
Y-1117D01*
X-4796Y-1319D02*
Y-942D01*
X-4607Y-3300D02*
Y-1110D01*
X-4583Y-3300D02*
Y-1117D01*
X-4678Y-3300D02*
Y-942D01*
X-4820Y-3300D02*
Y-942D01*
X-5197Y-3300D02*
Y-1113D01*
X-5221Y-3300D02*
Y-1117D01*
X-5245Y-3300D02*
Y-1117D01*
X-5268Y-3300D02*
Y-1117D01*
X-5457Y-1295D02*
Y-942D01*
X-5322Y-1080D02*
Y-995D01*
X-5694Y-1280D02*
Y-150D01*
X-5717Y-1270D02*
Y-150D01*
X-5410Y-1312D02*
Y-942D01*
X-5434Y-1297D02*
Y-942D01*
X-5481Y-1304D02*
Y-942D01*
X-5878Y-1006D02*
X-5322D01*
X-5878Y-1029D02*
X-5322D01*
X-5878Y-1053D02*
X-5322D01*
X-5741Y-1272D02*
Y-150D01*
X-5764Y-1286D02*
Y-150D01*
X-5878Y-1080D02*
Y-995D01*
X-5884Y-1100D02*
X-5316D01*
X-5285Y-1117D02*
X-5215D01*
X-5878Y-1077D02*
X-5322D01*
X-6067Y-1266D02*
X-4031D01*
X-6538Y-1124D02*
X-4217D01*
X-6538Y-1171D02*
X-4207D01*
X-6538Y-1148D02*
X-4217D01*
X-6538Y-1195D02*
X-4057D01*
X-6538Y-1218D02*
X-4057D01*
X-6538Y-1242D02*
X-4055D01*
X-6095Y-1258D02*
Y-942D01*
X-6022Y-1080D02*
Y-995D01*
X-6119Y-1258D02*
Y-942D01*
X-6142Y-1258D02*
Y-942D01*
X-6071Y-1263D02*
Y-941D01*
X-6166Y-1258D02*
Y-942D01*
X-6190Y-1272D02*
Y-942D01*
X-6538Y-1006D02*
X-6022D01*
X-6538Y-1029D02*
X-6022D01*
X-6742Y-1006D02*
X-6612D01*
X-6538Y-1053D02*
X-6022D01*
X-6538Y-1077D02*
X-6022D01*
X-6767Y-1029D02*
X-6612D01*
X-5985Y-1117D02*
X-5915D01*
X-6538Y-1100D02*
X-6016D01*
X-6160Y-1258D02*
X-6090D01*
X-6538Y-1266D02*
X-6183D01*
X-5339Y-3300D02*
Y-551D01*
X-5552Y-3300D02*
Y-925D01*
X-5670Y-1323D02*
Y-349D01*
X-5575Y-3300D02*
Y-385D01*
X-5623Y-3300D02*
Y-382D01*
X-5599Y-3300D02*
Y-386D01*
X-5646Y-3300D02*
Y-371D01*
X-5788Y-3300D02*
Y-150D01*
X-5812Y-3300D02*
Y-323D01*
X-5835Y-3300D02*
Y-359D01*
X-6024Y-3300D02*
Y-150D01*
X-5859Y-3300D02*
Y-376D01*
X-6048Y-3300D02*
Y-924D01*
X-5316Y-3300D02*
Y-1102D01*
X-5292Y-3300D02*
Y-1117D01*
X-5505Y-1342D02*
Y-942D01*
X-5363Y-3300D02*
Y-938D01*
X-5386Y-3300D02*
Y-942D01*
X-5528Y-3300D02*
Y-941D01*
X-5883Y-3300D02*
Y-1099D01*
X-5906Y-3300D02*
Y-1116D01*
X-5930Y-3300D02*
Y-1117D01*
X-5953Y-3300D02*
Y-1117D01*
X-5977Y-3300D02*
Y-1117D01*
X-6001Y-3300D02*
Y-1114D01*
X-6449Y-3116D02*
Y-150D01*
X-6473Y-3114D02*
Y-150D01*
X-6520Y-3114D02*
Y-150D01*
X-6402Y-3300D02*
Y-150D01*
X-6426Y-3129D02*
Y-150D01*
X-6497Y-3122D02*
Y-150D01*
X-6538Y-1700D02*
Y-150D01*
X-6612Y-1700D02*
Y-150D01*
X-6615Y-3114D02*
Y-150D01*
X-6638Y-3300D02*
Y-150D01*
X-6662Y-3300D02*
Y-150D01*
X-6686Y-3300D02*
Y-150D01*
X-6237Y-3300D02*
Y-938D01*
X-6213Y-3300D02*
Y-942D01*
X-6260Y-3300D02*
Y-509D01*
X-6284Y-3300D02*
Y-385D01*
X-6308Y-3300D02*
Y-386D01*
X-6331Y-3300D02*
Y-382D01*
X-6379Y-3300D02*
Y-349D01*
X-6355Y-3300D02*
Y-371D01*
X-6709Y-3300D02*
Y-150D01*
X-6733Y-3300D02*
Y-150D01*
X-6757Y-3300D02*
Y-1023D01*
X-6780Y-3300D02*
Y-1034D01*
X-4696Y-1360D02*
X-4413D01*
X-4698Y-1431D02*
X-4430D01*
X-4320Y-1575D02*
Y-1400D01*
X-4695Y-1455D02*
X-4430D01*
Y-1552D02*
Y-1400D01*
X-4706Y-1384D02*
X-4428D01*
X-4713Y-1407D02*
X-4430D01*
X-4703Y-1478D02*
X-4430D01*
X-4731Y-1502D02*
X-4430D01*
X-4970Y-1525D02*
X-4430D01*
X-4975Y-1549D02*
X-4430D01*
X-4320Y-1573D02*
X-3967D01*
X-4324Y-1596D02*
X-3997D01*
X-3993Y-1690D02*
Y-1660D01*
X-3987Y-1685D02*
Y-1665D01*
X-4342Y-1620D02*
X-4005D01*
X-4366Y-1644D02*
X-4002D01*
X-4997Y-1573D02*
X-4451D01*
X-4389Y-1667D02*
X-3987D01*
X-4413Y-1691D02*
X-3993D01*
X-4539Y-1661D02*
X-4430Y-1552D01*
X-4971Y-1313D02*
X-4791D01*
X-4970Y-1336D02*
X-4803D01*
X-4701Y-1424D02*
Y-1376D01*
X-4796Y-1419D02*
Y-1381D01*
X-4970Y-1525D02*
Y-1325D01*
Y-1360D02*
X-4804D01*
X-5397Y-1336D02*
X-5080D01*
X-5396Y-1360D02*
X-5080D01*
X-4970Y-1384D02*
X-4794D01*
X-5080Y-1525D02*
Y-1325D01*
X-4713Y-1410D02*
Y-1390D01*
X-4787Y-1410D02*
Y-1390D01*
X-4970Y-1407D02*
X-4787D01*
X-4970Y-1431D02*
X-4802D01*
X-4970Y-1455D02*
X-4805D01*
X-4970Y-1478D02*
X-4797D01*
X-5395Y-1455D02*
X-5080D01*
X-4970Y-1502D02*
X-4769D01*
X-3946Y-1820D02*
Y-1780D01*
Y-2619D02*
Y-1930D01*
X-3993Y-1820D02*
Y-1760D01*
X-3969Y-1820D02*
Y-1777D01*
Y-2641D02*
Y-1930D01*
X-3993Y-2648D02*
Y-1930D01*
X-4016Y-2664D02*
Y-1930D01*
X-4436Y-1714D02*
X-4004D01*
X-4460Y-1738D02*
X-4004D01*
X-4040Y-3300D02*
Y-1930D01*
X-4064Y-3300D02*
Y-1928D01*
X-3973Y-2645D02*
X-3951Y-2624D01*
X-4016Y-2756D02*
Y-2736D01*
X-3946Y-3300D02*
Y-2872D01*
X-3969Y-3300D02*
Y-2872D01*
X-3993Y-3300D02*
Y-2870D01*
X-4017Y-2835D02*
Y-2765D01*
X-4016Y-3300D02*
Y-2844D01*
X-4323Y-3300D02*
Y-1595D01*
X-4461Y-1739D02*
X-4336Y-1614D01*
X-4701Y-3300D02*
Y-1476D01*
X-4725Y-3300D02*
Y-1499D01*
X-4749Y-3300D02*
Y-1505D01*
X-4772Y-3300D02*
Y-1500D01*
X-4796Y-3300D02*
Y-1481D01*
X-4985Y-3300D02*
Y-1563D01*
X-5008Y-3300D02*
Y-1578D01*
X-5056Y-3300D02*
Y-1571D01*
X-5032Y-3300D02*
Y-1580D01*
X-5079Y-3300D02*
Y-1534D01*
X-4347Y-3300D02*
Y-1625D01*
X-4087Y-3300D02*
Y-1916D01*
X-4371Y-3300D02*
Y-1649D01*
X-4394Y-3300D02*
Y-1672D01*
X-4418Y-3300D02*
Y-1696D01*
X-4442Y-3300D02*
Y-1720D01*
X-4465Y-3300D02*
Y-1743D01*
X-4489Y-3300D02*
Y-1754D01*
X-4512Y-3300D02*
Y-1754D01*
X-4536Y-3300D02*
Y-1742D01*
X-5409Y-1313D02*
X-5079D01*
X-5406Y-1384D02*
X-5080D01*
X-5410Y-1412D02*
Y-1388D01*
X-5413Y-1410D02*
Y-1390D01*
X-5487Y-1410D02*
Y-1390D01*
X-5683Y-1289D02*
X-5067D01*
X-5671Y-1313D02*
X-5491D01*
X-5670Y-1336D02*
X-5503D01*
X-5670Y-1360D02*
X-5504D01*
X-5670Y-1384D02*
X-5494D01*
X-5505Y-1442D02*
Y-1358D01*
X-5413Y-1407D02*
X-5080D01*
X-5398Y-1431D02*
X-5080D01*
X-5403Y-1478D02*
X-5080D01*
X-5431Y-1502D02*
X-5080D01*
X-5670Y-1407D02*
X-5487D01*
X-5670Y-1431D02*
X-5502D01*
X-5670Y-1455D02*
X-5505D01*
X-5670Y-1502D02*
X-5469D01*
X-5670Y-1525D02*
X-5080D01*
X-5670Y-1478D02*
X-5497D01*
X-6053Y-1289D02*
X-5767D01*
X-6053Y-1305D02*
Y-1295D01*
X-6053Y-1313D02*
X-5779D01*
X-5670Y-1525D02*
Y-1325D01*
X-6538Y-1289D02*
X-6197D01*
X-6197Y-1305D02*
Y-1295D01*
X-6538Y-1313D02*
X-6197D01*
X-6070Y-1336D02*
X-5780D01*
X-6160Y-1342D02*
X-6090D01*
X-6538Y-1336D02*
X-6180D01*
X-6538Y-1360D02*
X-5780D01*
X-6538Y-1384D02*
X-5780D01*
Y-1525D02*
Y-1325D01*
X-6538Y-1407D02*
X-5780D01*
X-6538Y-1431D02*
X-5780D01*
X-6538Y-1455D02*
X-5780D01*
X-6538Y-1478D02*
X-5780D01*
X-6538Y-1502D02*
X-5780D01*
X-6538Y-1525D02*
X-5780D01*
X-5410Y-3300D02*
Y-1488D01*
X-5675Y-1549D02*
X-5075D01*
X-5434Y-3300D02*
Y-1503D01*
X-5457Y-3300D02*
Y-1505D01*
X-5505Y-3300D02*
Y-1458D01*
X-5481Y-3300D02*
Y-1496D01*
X-5670Y-3300D02*
Y-1527D01*
X-6538Y-1549D02*
X-5775D01*
X-6071Y-3300D02*
Y-1337D01*
X-6095Y-3300D02*
Y-1342D01*
X-6119Y-3300D02*
Y-1342D01*
X-5694Y-3300D02*
Y-1570D01*
X-5697Y-1573D02*
X-5053D01*
X-6538D02*
X-5753D01*
X-5741Y-3300D02*
Y-1578D01*
X-5717Y-3300D02*
Y-1580D01*
X-5764Y-3300D02*
Y-1564D01*
X-6538Y-1596D02*
X-4474D01*
X-6538Y-1620D02*
X-4498D01*
X-6538Y-1644D02*
X-4522D01*
X-6538Y-1667D02*
X-4544D01*
X-6540Y-1714D02*
X-4553D01*
X-6538Y-1691D02*
X-4554D01*
X-6505Y-3128D02*
Y-3114D01*
X-6166Y-3300D02*
Y-1342D01*
X-6142Y-3300D02*
Y-1342D01*
X-6190Y-3300D02*
Y-1328D01*
X-6544Y-3114D02*
Y-1721D01*
X-6568Y-3114D02*
Y-1737D01*
X-6591Y-3114D02*
Y-1734D01*
X-6627Y-3114D02*
X-6505D01*
X-6627Y-3236D02*
Y-3114D01*
X-6426Y-3300D02*
Y-3221D01*
X-6505Y-3226D02*
X-6499D01*
X-6505Y-3236D02*
Y-3222D01*
X-6449Y-3300D02*
Y-3234D01*
X-6473Y-3300D02*
Y-3236D01*
X-6497Y-3300D02*
Y-3228D01*
X-6627Y-3236D02*
X-6505D01*
X-6520Y-3300D02*
Y-3236D01*
X-6544Y-3300D02*
Y-3236D01*
X-6568Y-3300D02*
Y-3236D01*
X-6591Y-3300D02*
Y-3236D01*
X-6615Y-3300D02*
Y-3236D01*
X-6851Y-201D02*
Y-150D01*
X-6846Y-203D02*
X-6612D01*
X-6875Y-194D02*
Y-150D01*
X-6898Y-194D02*
Y-150D01*
X-6804Y-241D02*
Y-150D01*
X-6827Y-214D02*
Y-150D01*
X-7507D02*
X-6612D01*
X-7507Y-155D02*
X-6612D01*
X-7507Y-179D02*
X-6612D01*
X-6922Y-200D02*
Y-150D01*
X-7246Y-203D02*
X-6927D01*
X-6945Y-214D02*
Y-150D01*
X-6814Y-226D02*
X-6612D01*
X-6799Y-250D02*
X-6612D01*
X-6792Y-273D02*
X-6612D01*
X-6790Y-297D02*
X-6612D01*
X-6795Y-321D02*
X-6612D01*
X-6807Y-344D02*
X-6612D01*
X-7214Y-226D02*
X-6959D01*
X-6830Y-368D02*
X-6612D01*
X-7230D02*
X-6944D01*
X-6969Y-240D02*
Y-150D01*
X-7229Y-213D02*
Y-150D01*
X-7253Y-200D02*
Y-150D01*
X-7276Y-194D02*
Y-150D01*
X-7205Y-238D02*
Y-150D01*
X-7199Y-250D02*
X-6974D01*
X-7300Y-195D02*
Y-150D01*
X-7323Y-201D02*
Y-150D01*
X-7507Y-203D02*
X-7327D01*
X-7347Y-215D02*
Y-150D01*
X-7507Y-226D02*
X-7359D01*
X-7371Y-243D02*
Y-150D01*
X-7192Y-273D02*
X-6982D01*
X-7195Y-321D02*
X-6978D01*
X-7207Y-344D02*
X-6966D01*
X-7190Y-297D02*
X-6983D01*
X-7507Y-250D02*
X-7374D01*
X-7507Y-273D02*
X-7382D01*
X-7507Y-297D02*
X-7383D01*
X-7507Y-344D02*
X-7366D01*
X-7507Y-368D02*
X-7344D01*
X-7507Y-321D02*
X-7378D01*
X-6804Y-615D02*
Y-340D01*
X-6993Y-614D02*
Y-150D01*
X-6969Y-619D02*
Y-340D01*
X-6827Y-624D02*
Y-366D01*
X-6851Y-632D02*
Y-380D01*
X-6945Y-639D02*
Y-367D01*
X-7040Y-429D02*
Y-150D01*
X-7064Y-429D02*
Y-150D01*
X-7087Y-429D02*
Y-150D01*
X-7016Y-618D02*
Y-150D01*
X-7111Y-429D02*
Y-150D01*
X-7134Y-429D02*
Y-150D01*
X-7026Y-439D02*
X-6612D01*
X-7026Y-462D02*
X-6612D01*
X-7026Y-551D02*
Y-429D01*
X-6875Y-617D02*
Y-386D01*
X-6898Y-614D02*
Y-386D01*
X-6922Y-620D02*
Y-380D01*
X-7507Y-392D02*
X-6612D01*
X-7507Y-415D02*
X-6612D01*
X-7148Y-429D02*
X-7026D01*
Y-486D02*
X-6612D01*
X-7026Y-510D02*
X-6612D01*
X-7026Y-533D02*
X-6612D01*
X-7158Y-436D02*
Y-150D01*
X-7182Y-429D02*
Y-150D01*
X-7205Y-432D02*
Y-342D01*
X-7229Y-446D02*
Y-367D01*
X-7253Y-631D02*
Y-380D01*
X-7347Y-637D02*
Y-365D01*
X-7371Y-619D02*
Y-337D01*
X-7394Y-614D02*
Y-150D01*
X-7418Y-619D02*
Y-150D01*
X-7442Y-636D02*
Y-150D01*
X-7507Y-866D02*
Y-150D01*
X-7148Y-443D02*
Y-429D01*
X-7154Y-439D02*
X-7148D01*
Y-551D02*
Y-537D01*
X-7158Y-626D02*
Y-544D01*
X-7300Y-614D02*
Y-386D01*
X-7276Y-617D02*
Y-386D01*
X-7229Y-625D02*
Y-534D01*
X-7323Y-621D02*
Y-379D01*
X-7843Y-198D02*
Y-150D01*
X-7830Y-203D02*
X-7593D01*
X-7867Y-194D02*
Y-150D01*
X-7890Y-196D02*
Y-150D01*
X-7796Y-229D02*
Y-150D01*
X-7820Y-209D02*
Y-150D01*
X-10600D02*
X-7593D01*
X-10600Y-155D02*
X-7593D01*
X-10600Y-179D02*
X-7593D01*
X-8230Y-203D02*
X-7911D01*
X-7914Y-204D02*
Y-150D01*
X-7799Y-226D02*
X-7593D01*
X-7783Y-250D02*
X-7593D01*
X-7776Y-273D02*
X-7593D01*
X-7775Y-297D02*
X-7593D01*
X-7779Y-321D02*
X-7593D01*
X-7791Y-344D02*
X-7593D01*
X-7814Y-368D02*
X-7593D01*
X-10600Y-392D02*
X-7593D01*
X-10600Y-415D02*
X-7593D01*
X-7938Y-221D02*
Y-150D01*
X-7961Y-256D02*
Y-150D01*
X-8197Y-228D02*
Y-150D01*
X-8221Y-208D02*
Y-150D01*
X-8032Y-429D02*
Y-150D01*
X-8056Y-429D02*
Y-150D01*
X-8079Y-429D02*
Y-150D01*
X-8245Y-197D02*
Y-150D01*
X-8268Y-194D02*
Y-150D01*
X-8292Y-196D02*
Y-150D01*
X-8539Y-203D02*
X-8311D01*
X-8316Y-205D02*
Y-150D01*
X-8199Y-226D02*
X-7943D01*
X-8183Y-250D02*
X-7959D01*
X-8176Y-273D02*
X-7966D01*
X-8179Y-321D02*
X-7962D01*
X-8191Y-344D02*
X-7951D01*
X-8175Y-297D02*
X-7967D01*
X-8214Y-368D02*
X-7928D01*
X-8523D02*
X-8328D01*
X-7749Y-618D02*
Y-150D01*
X-7772Y-614D02*
Y-150D01*
X-7796Y-620D02*
Y-351D01*
X-7843Y-620D02*
Y-383D01*
X-7593Y-866D02*
Y-150D01*
X-7725Y-633D02*
Y-150D01*
X-7820Y-640D02*
Y-372D01*
X-7961Y-615D02*
Y-324D01*
X-7867Y-614D02*
Y-387D01*
X-7985Y-616D02*
Y-150D01*
X-7914Y-633D02*
Y-376D01*
X-7890Y-618D02*
Y-385D01*
X-7938Y-623D02*
Y-360D01*
X-7507Y-439D02*
X-7220D01*
X-7507Y-462D02*
X-7241D01*
X-7507Y-486D02*
X-7248D01*
X-7507Y-510D02*
X-7244D01*
X-7507Y-533D02*
X-7230D01*
X-8010Y-551D02*
Y-429D01*
Y-439D02*
X-7593D01*
X-8010Y-462D02*
X-7593D01*
X-8132Y-429D02*
X-8010D01*
Y-486D02*
X-7593D01*
X-8010Y-510D02*
X-7593D01*
X-8010Y-533D02*
X-7593D01*
X-8103Y-429D02*
Y-150D01*
X-8127Y-429D02*
Y-150D01*
X-8174Y-429D02*
Y-150D01*
X-8008Y-628D02*
Y-150D01*
X-8132Y-443D02*
Y-429D01*
X-8150Y-433D02*
Y-150D01*
X-8197Y-435D02*
Y-353D01*
X-8221Y-455D02*
Y-373D01*
X-8268Y-614D02*
Y-387D01*
X-8245Y-619D02*
Y-383D01*
X-8292Y-618D02*
Y-384D01*
X-8316Y-635D02*
Y-376D01*
X-8138Y-439D02*
X-8132D01*
Y-551D02*
Y-537D01*
X-8221Y-638D02*
Y-525D01*
X-8719Y-439D02*
X-8204D01*
X-8719Y-462D02*
X-8225D01*
X-8719Y-486D02*
X-8232D01*
X-8719Y-533D02*
X-8214D01*
X-8719Y-510D02*
X-8229D01*
X-6856Y-628D02*
X-6833D01*
X-6956D02*
X-6933D01*
X-7040Y-634D02*
Y-551D01*
X-7056Y-628D02*
X-7033D01*
X-7507Y-557D02*
X-6612D01*
X-7507Y-581D02*
X-6612D01*
X-7148Y-551D02*
X-7026D01*
X-7507Y-604D02*
X-6612D01*
X-7064Y-622D02*
Y-551D01*
X-6856Y-722D02*
X-6833D01*
X-6956D02*
X-6933D01*
X-7056D02*
X-7033D01*
X-7507Y-746D02*
X-6612D01*
X-7087Y-614D02*
Y-551D01*
X-7111Y-616D02*
Y-551D01*
X-7205Y-615D02*
Y-548D01*
X-7182Y-615D02*
Y-551D01*
X-7134Y-629D02*
Y-551D01*
X-7156Y-628D02*
X-7133D01*
X-7256D02*
X-7233D01*
X-7356D02*
X-7333D01*
X-7507D02*
X-7433D01*
X-7156Y-722D02*
X-7133D01*
X-7256D02*
X-7233D01*
X-7507Y-651D02*
X-7451D01*
X-7507Y-699D02*
X-7451D01*
X-7507Y-675D02*
X-7456D01*
X-7356Y-722D02*
X-7333D01*
X-7507D02*
X-7433D01*
X-6845Y-864D02*
X-6612D01*
X-6851Y-861D02*
Y-718D01*
X-6875Y-857D02*
Y-733D01*
X-6827Y-881D02*
Y-726D01*
X-6804Y-904D02*
Y-735D01*
X-7507Y-770D02*
X-6612D01*
X-7507Y-793D02*
X-6612D01*
X-6898Y-857D02*
Y-736D01*
X-6922Y-857D02*
Y-730D01*
X-7041Y-857D02*
X-6869D01*
X-6945D02*
Y-711D01*
X-6821Y-888D02*
X-6612D01*
X-6797Y-911D02*
X-6612D01*
X-6839Y-869D02*
X-6794Y-914D01*
X-6867Y-1029D02*
X-6822D01*
X-7041Y-943D02*
X-6947D01*
X-7333Y-959D02*
X-6953D01*
X-7333Y-982D02*
X-6955D01*
X-7333Y-1029D02*
X-6922D01*
X-7333Y-1006D02*
X-6947D01*
X-7064Y-846D02*
Y-728D01*
X-6969Y-857D02*
Y-731D01*
X-7087Y-846D02*
Y-736D01*
X-7016Y-857D02*
Y-732D01*
X-6993Y-857D02*
Y-736D01*
X-7040Y-857D02*
Y-716D01*
X-7347Y-914D02*
Y-713D01*
X-7111Y-858D02*
Y-734D01*
X-7371Y-914D02*
Y-731D01*
X-7418Y-914D02*
Y-731D01*
X-7394Y-914D02*
Y-736D01*
X-7442Y-914D02*
Y-714D01*
X-7333Y-935D02*
X-7118D01*
X-7333Y-1036D02*
Y-914D01*
X-7496Y-888D02*
X-7129D01*
X-7496Y-911D02*
X-7129D01*
X-7456Y-914D02*
X-7333D01*
X-7456Y-1036D02*
X-7333D01*
X-7456D02*
Y-914D01*
X-7731Y-628D02*
X-7593D01*
X-7831D02*
X-7808D01*
X-7931D02*
X-7908D01*
X-10600Y-557D02*
X-7593D01*
X-10600Y-581D02*
X-7593D01*
X-8132Y-551D02*
X-8010D01*
X-8741Y-604D02*
X-7593D01*
X-8031Y-628D02*
X-8008D01*
X-7713Y-651D02*
X-7593D01*
X-7708Y-675D02*
X-7593D01*
X-7713Y-699D02*
X-7593D01*
X-7731Y-722D02*
X-7593D01*
X-7831D02*
X-7808D01*
X-7931D02*
X-7908D01*
X-8031D02*
X-8008D01*
X-8032Y-627D02*
Y-551D01*
X-8056Y-616D02*
Y-551D01*
X-8079Y-615D02*
Y-551D01*
X-8103Y-624D02*
Y-551D01*
X-8131Y-628D02*
X-8108D01*
X-8127Y-632D02*
Y-551D01*
X-8150Y-617D02*
Y-548D01*
X-8174Y-614D02*
Y-551D01*
X-8197Y-621D02*
Y-545D01*
X-8231Y-628D02*
X-8208D01*
X-8131Y-722D02*
X-8108D01*
X-8331Y-628D02*
X-8308D01*
X-8231Y-722D02*
X-8208D01*
X-8331D02*
X-8308D01*
X-7507Y-817D02*
X-6612D01*
X-7507Y-840D02*
X-6612D01*
X-8738Y-746D02*
X-7593D01*
X-7507Y-864D02*
X-7117D01*
X-8738Y-770D02*
X-7593D01*
X-8738Y-793D02*
X-7593D01*
X-8738Y-817D02*
X-7593D01*
X-8738Y-840D02*
X-7593D01*
X-8738Y-864D02*
X-7593D01*
X-8738Y-888D02*
X-7604D01*
X-7507Y-935D02*
X-7456D01*
X-7513Y-959D02*
X-7456D01*
X-7513Y-982D02*
X-7456D01*
X-7513Y-1006D02*
X-7456D01*
X-7513Y-1053D02*
X-6612D01*
X-7513Y-1029D02*
X-7456D01*
X-7711Y-959D02*
X-7587D01*
X-7709Y-982D02*
X-7587D01*
X-7723Y-935D02*
X-7593D01*
X-7717Y-1006D02*
X-7587D01*
X-7742Y-1029D02*
X-7587D01*
X-8573Y-1053D02*
X-7587D01*
X-7749Y-918D02*
Y-732D01*
X-7772Y-914D02*
Y-736D01*
X-7796Y-920D02*
Y-730D01*
X-7725Y-933D02*
Y-717D01*
X-7820Y-940D02*
Y-710D01*
X-7867Y-914D02*
Y-736D01*
X-8738Y-911D02*
X-7604D01*
X-8316Y-914D02*
Y-715D01*
X-7843Y-920D02*
Y-730D01*
X-7890Y-918D02*
Y-732D01*
X-7914Y-933D02*
Y-717D01*
X-7823Y-935D02*
X-7815D01*
X-7842Y-1029D02*
X-7797D01*
X-8308Y-935D02*
X-7915D01*
X-8308Y-1036D02*
Y-914D01*
Y-959D02*
X-7928D01*
X-8308Y-982D02*
X-7930D01*
X-8431Y-914D02*
X-8308D01*
Y-1006D02*
X-7922D01*
X-8308Y-1029D02*
X-7897D01*
X-8431Y-1036D02*
X-8308D01*
X-8339Y-222D02*
Y-150D01*
X-8528Y-209D02*
Y-150D01*
X-8552Y-198D02*
Y-150D01*
X-8575Y-194D02*
Y-150D01*
X-8363Y-261D02*
Y-150D01*
X-8505Y-229D02*
Y-150D01*
X-8599Y-196D02*
Y-150D01*
X-8623Y-204D02*
Y-150D01*
X-8939Y-203D02*
X-8620D01*
X-8646Y-221D02*
Y-150D01*
X-8670Y-256D02*
Y-150D01*
X-8906Y-228D02*
Y-150D01*
X-8507Y-226D02*
X-8343D01*
X-8492Y-250D02*
X-8359D01*
X-8485Y-273D02*
X-8366D01*
X-8483Y-297D02*
X-8367D01*
X-8488Y-321D02*
X-8362D01*
X-8907Y-226D02*
X-8652D01*
X-8892Y-250D02*
X-8667D01*
X-8885Y-273D02*
X-8675D01*
X-8883Y-297D02*
X-8676D01*
X-8930Y-208D02*
Y-150D01*
X-8953Y-197D02*
Y-150D01*
X-8977Y-194D02*
Y-150D01*
X-9001Y-196D02*
Y-150D01*
X-9024Y-205D02*
Y-150D01*
X-9048Y-222D02*
Y-150D01*
X-9071Y-261D02*
Y-150D01*
X-9260Y-198D02*
Y-150D01*
X-9284Y-194D02*
Y-150D01*
X-9308Y-196D02*
Y-150D01*
X-9213Y-229D02*
Y-150D01*
X-9237Y-209D02*
Y-150D01*
X-9331Y-204D02*
Y-150D01*
X-9216Y-226D02*
X-9052D01*
X-9201Y-250D02*
X-9067D01*
X-9193Y-273D02*
X-9075D01*
X-9192Y-297D02*
X-9076D01*
X-9355Y-221D02*
Y-150D01*
X-9248Y-203D02*
X-9020D01*
X-9379Y-256D02*
Y-150D01*
X-8386Y-616D02*
Y-150D01*
X-8363Y-614D02*
Y-319D01*
X-8410Y-629D02*
Y-150D01*
X-8694Y-960D02*
Y-150D01*
X-8717Y-991D02*
Y-150D01*
X-8741Y-429D02*
Y-150D01*
X-8888Y-321D02*
X-8671D01*
X-8764Y-429D02*
Y-150D01*
X-8788Y-429D02*
Y-150D01*
X-8812Y-429D02*
Y-150D01*
X-8835Y-429D02*
Y-150D01*
X-8500Y-344D02*
X-8351D01*
X-8339Y-622D02*
Y-358D01*
X-8623Y-958D02*
Y-376D01*
X-8599Y-959D02*
Y-385D01*
X-8575Y-981D02*
Y-387D01*
X-8646Y-958D02*
Y-360D01*
X-8900Y-344D02*
X-8659D01*
X-8923Y-368D02*
X-8637D01*
X-8841Y-429D02*
X-8719D01*
X-8670Y-958D02*
Y-324D01*
X-8719Y-551D02*
Y-429D01*
X-8847Y-439D02*
X-8841D01*
X-9197Y-321D02*
X-9071D01*
X-8859Y-433D02*
Y-150D01*
X-8883Y-429D02*
Y-150D01*
X-9379Y-958D02*
Y-324D01*
X-9449Y-429D02*
Y-150D01*
X-9473Y-429D02*
Y-150D01*
X-9402Y-965D02*
Y-150D01*
X-9497Y-429D02*
Y-150D01*
X-9520Y-429D02*
Y-150D01*
X-8906Y-435D02*
Y-353D01*
X-9231Y-368D02*
X-9037D01*
X-9208Y-344D02*
X-9059D01*
X-8841Y-443D02*
Y-429D01*
X-8930Y-455D02*
Y-373D01*
X-9308Y-958D02*
Y-385D01*
X-9427Y-439D02*
X-8913D01*
X-9427Y-551D02*
Y-429D01*
X-9331Y-958D02*
Y-376D01*
X-9284Y-968D02*
Y-387D01*
X-9355Y-958D02*
Y-360D01*
X-9662Y-197D02*
Y-150D01*
X-9648Y-203D02*
X-9329D01*
X-9686Y-194D02*
Y-150D01*
X-9709Y-196D02*
Y-150D01*
X-9615Y-228D02*
Y-150D01*
X-9638Y-208D02*
Y-150D01*
X-9733Y-205D02*
Y-150D01*
X-9945Y-209D02*
Y-150D01*
X-9969Y-198D02*
Y-150D01*
X-9993Y-194D02*
Y-150D01*
X-9757Y-222D02*
Y-150D01*
X-9780Y-261D02*
Y-150D01*
X-9922Y-229D02*
Y-150D01*
X-9616Y-226D02*
X-9360D01*
X-9601Y-250D02*
X-9376D01*
X-9593Y-273D02*
X-9383D01*
X-9592Y-297D02*
X-9384D01*
X-9956Y-203D02*
X-9729D01*
X-9925Y-226D02*
X-9760D01*
X-9909Y-250D02*
X-9776D01*
X-9902Y-273D02*
X-9783D01*
X-10016Y-196D02*
Y-150D01*
X-10356Y-203D02*
X-10037D01*
X-10040Y-204D02*
Y-150D01*
X-10347Y-208D02*
Y-150D01*
X-10064Y-221D02*
Y-150D01*
X-10087Y-256D02*
Y-150D01*
X-10323Y-228D02*
Y-150D01*
X-10371Y-197D02*
Y-150D01*
X-10394Y-194D02*
Y-150D01*
X-10418Y-196D02*
Y-150D01*
X-10442Y-205D02*
Y-150D01*
X-10465Y-222D02*
Y-150D01*
X-10489Y-261D02*
Y-150D01*
X-10325Y-226D02*
X-10069D01*
X-10309Y-250D02*
X-10084D01*
X-10302Y-273D02*
X-10092D01*
X-10600Y-203D02*
X-10437D01*
X-10600Y-226D02*
X-10469D01*
X-10600Y-250D02*
X-10484D01*
X-10600Y-273D02*
X-10492D01*
X-9597Y-321D02*
X-9380D01*
X-9608Y-344D02*
X-9368D01*
X-9544Y-429D02*
Y-150D01*
X-9568Y-433D02*
Y-150D01*
X-9591Y-429D02*
Y-150D01*
X-9615Y-435D02*
Y-353D01*
X-9905Y-321D02*
X-9780D01*
X-9917Y-344D02*
X-9768D01*
X-9901Y-297D02*
X-9784D01*
X-9631Y-368D02*
X-9345D01*
X-9549Y-429D02*
X-9427D01*
X-9555Y-439D02*
X-9549D01*
Y-443D02*
Y-429D01*
X-9638Y-455D02*
Y-373D01*
X-9940Y-368D02*
X-9745D01*
X-10016Y-958D02*
Y-385D01*
X-10340Y-368D02*
X-10054D01*
X-10040Y-958D02*
Y-376D01*
X-9993Y-962D02*
Y-387D01*
X-10064Y-958D02*
Y-360D01*
X-10158Y-429D02*
Y-150D01*
X-10182Y-429D02*
Y-150D01*
X-10205Y-429D02*
Y-150D01*
X-10111Y-974D02*
Y-150D01*
X-10229Y-429D02*
Y-150D01*
X-10253Y-429D02*
Y-150D01*
X-10301Y-297D02*
X-10093D01*
X-10600D02*
X-10493D01*
X-10276Y-433D02*
Y-150D01*
X-10300Y-429D02*
Y-150D01*
X-10305Y-321D02*
X-10088D01*
X-10317Y-344D02*
X-10077D01*
X-10258Y-429D02*
X-10136D01*
X-10087Y-958D02*
Y-324D01*
X-10136Y-551D02*
Y-429D01*
X-10258Y-443D02*
Y-429D01*
X-10600Y-344D02*
X-10477D01*
X-10600Y-368D02*
X-10454D01*
X-10600Y-321D02*
X-10488D01*
X-10323Y-435D02*
Y-353D01*
X-10347Y-455D02*
Y-373D01*
X-8764Y-584D02*
Y-551D01*
X-8815Y-583D02*
X-8775D01*
X-8788D02*
Y-551D01*
X-8812Y-583D02*
Y-551D01*
X-8741Y-605D02*
Y-551D01*
X-8841D02*
X-8719D01*
X-8835Y-589D02*
Y-551D01*
X-8841D02*
Y-537D01*
X-9441Y-604D02*
X-8849D01*
X-8738Y-628D02*
X-8408D01*
X-8738Y-651D02*
X-8426D01*
X-8738Y-675D02*
X-8431D01*
X-8738Y-699D02*
X-8426D01*
X-8738Y-722D02*
X-8408D01*
X-8852Y-758D02*
Y-620D01*
X-9438Y-628D02*
X-8852D01*
X-9438Y-651D02*
X-8852D01*
X-9438Y-675D02*
X-8852D01*
X-9438Y-699D02*
X-8852D01*
X-9438Y-722D02*
X-8852D01*
X-9438Y-746D02*
X-8852D01*
X-8859Y-758D02*
Y-548D01*
X-8906Y-758D02*
Y-545D01*
X-8883Y-758D02*
Y-551D01*
X-8930Y-761D02*
Y-525D01*
X-9427Y-462D02*
X-8934D01*
X-9427Y-510D02*
X-8937D01*
X-9427Y-486D02*
X-8940D01*
X-9427Y-533D02*
X-8923D01*
X-9549Y-551D02*
X-9427D01*
X-9549D02*
Y-537D01*
X-9449Y-593D02*
Y-551D01*
X-9473Y-583D02*
Y-551D01*
X-9497Y-583D02*
Y-551D01*
X-8915Y-758D02*
X-8852D01*
X-9520Y-583D02*
Y-551D01*
X-9515Y-583D02*
X-9475D01*
X-9544Y-596D02*
Y-551D01*
X-9552Y-758D02*
Y-620D01*
X-8339Y-914D02*
Y-728D01*
X-8363Y-914D02*
Y-736D01*
X-8410Y-914D02*
Y-721D01*
X-8386Y-914D02*
Y-734D01*
X-8602Y-959D02*
X-8431D01*
Y-1036D02*
Y-914D01*
X-8753Y-935D02*
X-8431D01*
X-8680Y-958D02*
X-8610D01*
X-8738Y-905D02*
Y-620D01*
X-8575Y-982D02*
X-8431D01*
X-8573Y-1006D02*
X-8431D01*
X-8573Y-1029D02*
X-8431D01*
X-9302Y-959D02*
X-8688D01*
X-9275Y-982D02*
X-8715D01*
X-9273Y-1006D02*
X-8717D01*
X-9273Y-1029D02*
X-8717D01*
X-9273Y-1053D02*
X-8717D01*
X-8952Y-905D02*
Y-795D01*
X-9438Y-905D02*
Y-620D01*
Y-770D02*
X-8942D01*
X-9438Y-793D02*
X-8952D01*
X-9438Y-817D02*
X-8952D01*
X-9438Y-840D02*
X-8952D01*
X-9438Y-864D02*
X-8952D01*
X-9438Y-888D02*
X-8952D01*
X-8915Y-942D02*
X-8775D01*
X-9380Y-958D02*
X-9310D01*
X-9438Y-911D02*
X-8952D01*
X-9453Y-935D02*
X-8937D01*
X-10136Y-439D02*
X-9621D01*
X-9568Y-758D02*
Y-548D01*
X-9591Y-758D02*
Y-551D01*
X-9615Y-758D02*
Y-545D01*
X-10136Y-462D02*
X-9643D01*
X-10136Y-510D02*
X-9646D01*
X-10136Y-486D02*
X-9649D01*
X-10136Y-533D02*
X-9631D01*
X-10258Y-551D02*
X-10136D01*
X-10158Y-587D02*
Y-551D01*
X-10138Y-628D02*
X-9552D01*
X-10138Y-651D02*
X-9552D01*
X-10138Y-675D02*
X-9552D01*
X-10138Y-699D02*
X-9552D01*
X-10138Y-722D02*
X-9552D01*
X-9615Y-758D02*
X-9552D01*
X-10215Y-583D02*
X-10175D01*
X-10141Y-604D02*
X-9549D01*
X-10182Y-583D02*
Y-551D01*
X-10138Y-746D02*
X-9552D01*
X-10264Y-439D02*
X-10258D01*
Y-551D02*
Y-537D01*
X-10205Y-583D02*
Y-551D01*
X-10229Y-585D02*
Y-551D01*
X-10276Y-758D02*
Y-548D01*
X-10600Y-439D02*
X-10330D01*
X-10600Y-462D02*
X-10351D01*
X-10600Y-510D02*
X-10355D01*
X-10600Y-533D02*
X-10340D01*
X-10600Y-486D02*
X-10358D01*
X-10600Y-604D02*
X-10249D01*
X-10253Y-758D02*
Y-551D01*
X-10252Y-758D02*
Y-620D01*
X-10300Y-758D02*
Y-551D01*
X-10600Y-628D02*
X-10252D01*
X-10600Y-651D02*
X-10252D01*
X-10600Y-675D02*
X-10252D01*
X-10600Y-699D02*
X-10252D01*
X-10600Y-722D02*
X-10252D01*
X-10600Y-746D02*
X-10252D01*
X-9638Y-766D02*
Y-525D01*
X-10138Y-770D02*
X-9642D01*
X-9652Y-905D02*
Y-795D01*
X-10138Y-793D02*
X-9652D01*
X-10138Y-817D02*
X-9652D01*
X-10138Y-840D02*
X-9652D01*
X-10138Y-864D02*
X-9652D01*
X-10138Y-911D02*
X-9652D01*
X-10138Y-888D02*
X-9652D01*
X-10002Y-959D02*
X-9388D01*
X-9975Y-982D02*
X-9415D01*
X-9615Y-942D02*
X-9475D01*
X-9973Y-1006D02*
X-9417D01*
X-9973Y-1029D02*
X-9417D01*
X-9973Y-1053D02*
X-9417D01*
X-10153Y-935D02*
X-9637D01*
X-10080Y-958D02*
X-10010D01*
X-10323Y-759D02*
Y-545D01*
X-10315Y-758D02*
X-10252D01*
X-10347Y-776D02*
Y-525D01*
X-10138Y-905D02*
Y-620D01*
X-10600Y-770D02*
X-10342D01*
X-10600Y-793D02*
X-10352D01*
X-10600Y-817D02*
X-10352D01*
X-10600Y-840D02*
X-10352D01*
X-10600Y-864D02*
X-10352D01*
Y-905D02*
Y-795D01*
X-10600Y-888D02*
X-10352D01*
X-10315Y-942D02*
X-10175D01*
X-10600Y-935D02*
X-10337D01*
X-10600Y-959D02*
X-10088D01*
X-10600Y-911D02*
X-10352D01*
X-10600Y-982D02*
X-10115D01*
X-10600Y-1006D02*
X-10117D01*
X-10600Y-1029D02*
X-10117D01*
X-7513Y-1077D02*
X-6612D01*
X-7513Y-1100D02*
X-6612D01*
X-7513Y-1124D02*
X-6612D01*
X-7513Y-1148D02*
X-6612D01*
X-7513Y-1171D02*
X-6612D01*
X-7513Y-1195D02*
X-6612D01*
X-7513Y-1218D02*
X-6612D01*
X-7513Y-1242D02*
X-6612D01*
X-7513Y-1266D02*
X-6612D01*
X-7513Y-1289D02*
X-6612D01*
X-7513Y-1313D02*
X-6612D01*
X-7513Y-1336D02*
X-6612D01*
X-7513Y-1360D02*
X-6612D01*
X-7513Y-1384D02*
X-6612D01*
X-7513Y-1407D02*
X-6612D01*
X-7513Y-1431D02*
X-6612D01*
X-7033Y-1809D02*
X-3195D01*
X-7017Y-1833D02*
X-4085D01*
X-7513Y-1455D02*
X-6612D01*
X-7513Y-1478D02*
X-6612D01*
X-7513Y-1502D02*
X-6612D01*
X-7513Y-1525D02*
X-6612D01*
X-7513Y-1549D02*
X-6612D01*
X-7513Y-1573D02*
X-6612D01*
X-7519Y-1596D02*
X-6612D01*
X-7040Y-1803D02*
Y-943D01*
X-7064Y-1795D02*
Y-954D01*
X-7158Y-1796D02*
Y-724D01*
X-7182Y-1796D02*
Y-735D01*
X-7134Y-1807D02*
Y-721D01*
X-7111Y-1813D02*
Y-942D01*
X-7205Y-1808D02*
Y-735D01*
X-7229Y-1808D02*
Y-725D01*
X-7513Y-1575D02*
Y-940D01*
X-7587Y-1575D02*
Y-940D01*
X-7253Y-1808D02*
Y-719D01*
X-7276Y-1808D02*
Y-733D01*
X-7300Y-1813D02*
Y-736D01*
X-7087Y-1798D02*
Y-954D01*
X-7133Y-1809D02*
X-7106D01*
X-7129Y-1813D02*
X-7110D01*
X-7773Y-1313D02*
X-7587D01*
X-7773Y-1336D02*
X-7587D01*
X-7773Y-1360D02*
X-7587D01*
X-7280Y-1808D02*
X-7210D01*
X-7773Y-1405D02*
Y-1320D01*
X-6827Y-3300D02*
Y-1026D01*
X-6804Y-3300D02*
Y-1035D01*
X-6851Y-3300D02*
Y-1018D01*
X-6875Y-3300D02*
Y-1033D01*
X-6922Y-3300D02*
Y-1030D01*
X-6898Y-3300D02*
Y-1036D01*
X-6945Y-3300D02*
Y-1008D01*
X-7016Y-1835D02*
Y-943D01*
X-7015Y-1856D02*
X-4102D01*
X-6969Y-3300D02*
Y-943D01*
X-6993Y-3300D02*
Y-943D01*
X-7023Y-1880D02*
X-4105D01*
X-7056Y-1903D02*
X-4097D01*
X-7016Y-3300D02*
Y-1865D01*
X-7040Y-3300D02*
Y-1897D01*
X-7064Y-3300D02*
Y-1905D01*
X-7087Y-3300D02*
Y-1902D01*
X-7129Y-1887D02*
X-7110D01*
X-7156Y-1903D02*
X-7083D01*
X-7111Y-3300D02*
Y-1887D01*
X-7173Y-1927D02*
X-4068D01*
X-7134Y-3300D02*
Y-1893D01*
X-7323Y-2043D02*
Y-729D01*
X-7347Y-2043D02*
Y-1036D01*
X-7465Y-2043D02*
Y-150D01*
X-7371Y-2043D02*
Y-1036D01*
X-7489Y-2043D02*
Y-150D01*
X-7512Y-2043D02*
Y-940D01*
X-7607Y-3300D02*
Y-150D01*
X-7678Y-2058D02*
Y-150D01*
X-7701Y-2058D02*
Y-150D01*
X-7725Y-2058D02*
Y-1017D01*
X-7631Y-3300D02*
Y-150D01*
X-7654Y-2061D02*
Y-150D01*
X-7749Y-2063D02*
Y-1032D01*
X-7173Y-1930D02*
Y-1905D01*
X-7317Y-1930D02*
Y-1845D01*
X-7158Y-3300D02*
Y-1904D01*
X-7394Y-2043D02*
Y-1036D01*
X-7418Y-2043D02*
Y-1036D01*
X-7442Y-2043D02*
Y-1036D01*
X-7536Y-2044D02*
Y-1610D01*
X-7583Y-3300D02*
Y-1592D01*
X-7560Y-2066D02*
Y-1611D01*
X-7772Y-2078D02*
Y-1036D01*
X-7933Y-1100D02*
X-7587D01*
X-7933Y-1124D02*
X-7587D01*
X-7820Y-1283D02*
Y-1010D01*
X-7933Y-1148D02*
X-7587D01*
X-7796Y-1285D02*
Y-1030D01*
X-7843Y-1283D02*
Y-1030D01*
X-7867Y-1283D02*
Y-1036D01*
X-7946Y-1077D02*
X-7587D01*
X-7933Y-1171D02*
X-7587D01*
X-7933Y-1195D02*
X-7587D01*
X-7933Y-1218D02*
X-7587D01*
X-7935Y-1242D02*
X-7587D01*
X-7959Y-1266D02*
X-7587D01*
X-7789Y-1289D02*
X-7587D01*
X-7773Y-1384D02*
X-7587D01*
X-7773Y-1407D02*
X-7587D01*
X-7783Y-1431D02*
X-7587D01*
X-7880Y-1283D02*
X-7810D01*
X-7880Y-1442D02*
X-7810D01*
X-7938Y-1086D02*
Y-727D01*
X-7961Y-1069D02*
Y-735D01*
X-7914Y-1304D02*
Y-1017D01*
X-7890Y-1284D02*
Y-1032D01*
X-7933Y-1230D02*
Y-1105D01*
X-8008Y-1068D02*
Y-722D01*
X-7985Y-1068D02*
Y-734D01*
X-8032Y-1068D02*
Y-723D01*
X-8275Y-1068D02*
X-7970D01*
X-8056D02*
Y-734D01*
X-7917Y-1405D02*
Y-1320D01*
X-8120Y-1267D02*
X-7970D01*
X-8414Y-1407D02*
X-7917D01*
X-9078Y-1289D02*
X-7901D01*
X-8804Y-1313D02*
X-7917D01*
X-8791Y-1336D02*
X-7917D01*
X-8431Y-1360D02*
X-7917D01*
X-8414Y-1431D02*
X-7907D01*
X-8417Y-1384D02*
X-7917D01*
X-7990Y-1620D02*
X-6612D01*
X-7993Y-1644D02*
X-6612D01*
X-7997Y-1596D02*
X-7581D01*
X-8007Y-1667D02*
X-6612D01*
X-7796Y-2084D02*
Y-1440D01*
X-7820Y-3300D02*
Y-1442D01*
X-7843Y-3300D02*
Y-1442D01*
X-8414Y-1455D02*
X-7587D01*
X-8414Y-1478D02*
X-7587D01*
X-8414Y-1502D02*
X-7587D01*
X-8414Y-1525D02*
X-7587D01*
X-8414Y-1549D02*
X-7587D01*
X-8027Y-1573D02*
X-7587D01*
X-7884Y-1833D02*
X-7315D01*
X-7868Y-1856D02*
X-7317D01*
X-7865Y-1880D02*
X-7317D01*
X-7872Y-1903D02*
X-7317D01*
X-7901Y-1927D02*
X-7317D01*
X-7990Y-1714D02*
X-6610D01*
X-7991Y-1738D02*
X-4540D01*
X-8001Y-1691D02*
X-6612D01*
X-8003Y-1762D02*
X-3991D01*
X-10600Y-1785D02*
X-2500D01*
X-10600Y-1809D02*
X-7290D01*
X-7938Y-1820D02*
Y-1249D01*
X-7961Y-1820D02*
Y-1266D01*
X-7985Y-1820D02*
Y-1267D01*
X-7867Y-1859D02*
Y-1442D01*
X-7890Y-1828D02*
Y-1441D01*
X-7914Y-1820D02*
Y-1421D01*
X-8032Y-1571D02*
Y-1267D01*
X-8056Y-1571D02*
Y-1267D01*
X-8414Y-1573D02*
X-8062D01*
X-8008Y-1583D02*
Y-1267D01*
X-8007Y-1685D02*
Y-1665D01*
X-7867Y-3300D02*
Y-1891D01*
X-7890Y-2640D02*
Y-1922D01*
X-8008Y-1820D02*
Y-1767D01*
X-8032Y-1820D02*
Y-1779D01*
X-8144Y-1820D02*
X-7920D01*
X-8056D02*
Y-1779D01*
X-7179Y-1951D02*
X-3216D01*
X-7280Y-1967D02*
X-7210D01*
X-7276Y-2048D02*
Y-1967D01*
X-7300Y-2043D02*
Y-1962D01*
X-7525Y-2043D02*
X-7295D01*
X-7258Y-2092D02*
X-3715D01*
X-7258Y-2116D02*
X-3722D01*
X-7258Y-2140D02*
X-3722D01*
X-7258Y-2163D02*
X-3722D01*
X-7258Y-2187D02*
X-3722D01*
X-7258Y-2220D02*
Y-2080D01*
X-7281Y-2045D02*
X-3444D01*
X-7259Y-2069D02*
X-3657D01*
X-7643D02*
X-7561D01*
X-7258Y-2210D02*
X-3716D01*
X-7260Y-2234D02*
X-3653D01*
X-7633Y-2092D02*
X-7562D01*
X-7730Y-2058D02*
X-7670D01*
X-7562Y-2220D02*
Y-2080D01*
X-7633Y-2116D02*
X-7562D01*
X-7633Y-2205D02*
Y-2095D01*
X-7775Y-2078D02*
X-7763D01*
X-7812Y-2185D02*
Y-2115D01*
X-7633Y-2140D02*
X-7562D01*
X-7633Y-2163D02*
X-7562D01*
X-7633Y-2187D02*
X-7562D01*
X-7633Y-2210D02*
X-7562D01*
X-7647Y-2234D02*
X-7560D01*
X-7775Y-2222D02*
X-7763D01*
X-7730Y-2242D02*
X-7670D01*
X-7182Y-3300D02*
Y-1954D01*
X-7276Y-2605D02*
Y-2252D01*
X-7205Y-3300D02*
Y-1967D01*
X-7229Y-3300D02*
Y-1967D01*
X-7253Y-3300D02*
Y-1967D01*
X-7525Y-2257D02*
X-7295D01*
X-7300Y-2603D02*
Y-2257D01*
X-7300Y-2603D02*
X-7290D01*
X-7253Y-2636D02*
X-3964D01*
X-7253Y-2659D02*
X-4012D01*
X-7253Y-2683D02*
X-4027D01*
X-7253Y-2707D02*
X-4030D01*
X-7259Y-2730D02*
X-4021D01*
X-7253Y-2710D02*
Y-2640D01*
X-7265Y-2612D02*
X-3890D01*
X-7276Y-3300D02*
Y-2745D01*
X-7300Y-2747D02*
X-7290D01*
X-7323Y-2611D02*
Y-2257D01*
X-7560Y-3300D02*
Y-2234D01*
X-7536Y-3300D02*
Y-2256D01*
X-7654Y-3300D02*
Y-2239D01*
X-7678Y-3300D02*
Y-2242D01*
X-7701Y-3300D02*
Y-2242D01*
X-7725Y-3300D02*
Y-2242D01*
X-7772Y-3300D02*
Y-2222D01*
X-7749Y-3300D02*
Y-2237D01*
X-7796Y-3300D02*
Y-2216D01*
X-7300Y-3300D02*
Y-2747D01*
X-7337Y-2710D02*
Y-2640D01*
X-7347Y-3300D02*
Y-2257D01*
X-7323Y-3300D02*
Y-2739D01*
X-7371Y-3300D02*
Y-2257D01*
X-7394Y-3300D02*
Y-2257D01*
X-7418Y-3300D02*
Y-2257D01*
X-7442Y-3300D02*
Y-2257D01*
X-7465Y-3300D02*
Y-2257D01*
X-7489Y-3300D02*
Y-2257D01*
X-7512Y-3300D02*
Y-2257D01*
X-10600Y-1974D02*
X-2500D01*
X-10600Y-1998D02*
X-2500D01*
X-10600Y-1951D02*
X-7311D01*
X-10600Y-2022D02*
X-2500D01*
X-10600Y-2045D02*
X-7539D01*
X-10600Y-2258D02*
X-2500D01*
X-10600Y-2234D02*
X-7753D01*
X-10600Y-2281D02*
X-2500D01*
X-10600Y-2305D02*
X-2500D01*
X-10600Y-2329D02*
X-2500D01*
X-10600Y-2352D02*
X-2500D01*
X-10600Y-2376D02*
X-2500D01*
X-10600Y-2399D02*
X-2500D01*
X-10600Y-2423D02*
X-2500D01*
X-10600Y-2447D02*
X-2500D01*
X-7905Y-2612D02*
X-7325D01*
X-7891Y-2636D02*
X-7337D01*
X-7890Y-2659D02*
X-7337D01*
X-7900Y-2683D02*
X-7337D01*
X-10600Y-2470D02*
X-2500D01*
X-10600Y-2494D02*
X-2500D01*
X-10600Y-2518D02*
X-2500D01*
X-10600Y-2541D02*
X-2500D01*
X-10600Y-2565D02*
X-2500D01*
X-10600Y-2588D02*
X-2500D01*
X-7914Y-2604D02*
Y-1930D01*
X-7938Y-2595D02*
Y-1930D01*
X-7961Y-2597D02*
Y-1930D01*
X-7985Y-2612D02*
Y-1930D01*
X-8008Y-2613D02*
Y-1930D01*
X-8032Y-2615D02*
Y-1930D01*
X-8056Y-2633D02*
Y-1930D01*
X-10600Y-2069D02*
X-7757D01*
X-10600Y-2092D02*
X-7805D01*
X-8144Y-1930D02*
X-7920D01*
X-10600Y-2116D02*
X-7812D01*
X-10600Y-2140D02*
X-7812D01*
X-10600Y-2163D02*
X-7812D01*
X-8019Y-2613D02*
X-7985D01*
X-8004Y-2687D02*
X-7985D01*
X-8014Y-2698D02*
X-8004Y-2687D01*
X-10600Y-2187D02*
X-7812D01*
X-10600Y-2210D02*
X-7802D01*
X-10600Y-2612D02*
X-7984D01*
X-8067Y-2645D02*
X-8046Y-2624D01*
X-10600Y-2636D02*
X-8058D01*
X-7954Y-2754D02*
X-4016D01*
X-7953Y-2777D02*
X-4017D01*
X-7953Y-2801D02*
X-4017D01*
X-7953Y-2825D02*
X-4017D01*
X-7984Y-2872D02*
X-3986D01*
X-10234Y-2896D02*
X-2500D01*
X-7955Y-2848D02*
X-4015D01*
X-10259Y-2919D02*
X-2500D01*
X-10304Y-2943D02*
X-2500D01*
X-10600Y-2966D02*
X-2500D01*
X-10600Y-2990D02*
X-2500D01*
X-10600Y-3014D02*
X-2500D01*
X-10600Y-3037D02*
X-2500D01*
X-8560Y-3179D02*
X-6627D01*
X-8553Y-3203D02*
X-6627D01*
X-8551Y-3226D02*
X-6627D01*
X-8553Y-3250D02*
X-2775D01*
X-8558Y-3273D02*
X-2775D01*
X-8568Y-3297D02*
X-2775D01*
X-10600Y-3061D02*
X-2775D01*
X-8660Y-3085D02*
X-2775D01*
X-8612Y-3108D02*
X-2775D01*
X-8587Y-3132D02*
X-6627D01*
X-8569Y-3300D02*
X-2775D01*
X-8570Y-3155D02*
X-6627D01*
X-7961Y-2741D02*
Y-2703D01*
X-7985Y-2728D02*
Y-2688D01*
X-7890Y-3300D02*
Y-2660D01*
X-7914Y-3300D02*
Y-2696D01*
X-7938Y-3300D02*
Y-2705D01*
X-8008Y-2728D02*
Y-2692D01*
X-8015Y-2707D02*
X-7337D01*
X-7976Y-2730D02*
X-7331D01*
X-7953Y-2835D02*
Y-2765D01*
X-7961Y-3300D02*
Y-2859D01*
X-7985Y-3300D02*
Y-2872D01*
X-8022Y-2728D02*
X-7990D01*
X-8075Y-2872D02*
X-7990D01*
X-8008Y-3300D02*
Y-2872D01*
X-8032Y-3300D02*
Y-2872D01*
X-8056Y-3300D02*
Y-2872D01*
X-8103Y-1068D02*
Y-726D01*
X-8079Y-1068D02*
Y-735D01*
X-8127Y-1068D02*
Y-718D01*
X-8150Y-1068D02*
Y-733D01*
X-8197Y-1068D02*
Y-729D01*
X-8174Y-1068D02*
Y-736D01*
X-8221Y-1068D02*
Y-712D01*
X-8245Y-1068D02*
Y-731D01*
X-8268Y-1068D02*
Y-736D01*
X-8292Y-1072D02*
Y-732D01*
X-8457Y-1346D02*
Y-150D01*
X-8573Y-1080D02*
Y-995D01*
X-8275Y-1187D02*
X-8157D01*
X-8312Y-1150D02*
Y-1105D01*
X-8157Y-1230D02*
Y-1187D01*
X-8573Y-1077D02*
X-8299D01*
X-8579Y-1100D02*
X-8312D01*
X-8835Y-1296D02*
Y-942D01*
X-8717Y-1080D02*
Y-995D01*
X-9095Y-1276D02*
Y-150D01*
X-8859Y-1297D02*
Y-942D01*
X-8812Y-1306D02*
Y-942D01*
X-8883Y-1310D02*
Y-942D01*
X-9071Y-1298D02*
Y-319D01*
X-9273Y-1080D02*
Y-995D01*
Y-1077D02*
X-8717D01*
X-9417Y-1080D02*
Y-995D01*
X-9119Y-1270D02*
Y-150D01*
X-9142Y-1275D02*
Y-150D01*
X-9166Y-1295D02*
Y-150D01*
X-8680Y-1117D02*
X-8610D01*
X-9066Y-1313D02*
X-8885D01*
X-9064Y-1336D02*
X-8898D01*
X-9279Y-1100D02*
X-8711D01*
X-9380Y-1117D02*
X-9310D01*
X-8316Y-3300D02*
Y-1036D01*
X-8339Y-3300D02*
Y-1036D01*
X-8434Y-1358D02*
Y-150D01*
X-8481Y-1346D02*
Y-150D01*
X-8363Y-3300D02*
Y-1036D01*
X-8386Y-3300D02*
Y-1036D01*
X-8410Y-3300D02*
Y-1036D01*
X-8505Y-1357D02*
Y-351D01*
X-8528Y-1556D02*
Y-372D01*
X-8552Y-1579D02*
Y-383D01*
X-8575Y-1603D02*
Y-1094D01*
X-8599Y-1627D02*
Y-1116D01*
X-8623Y-1650D02*
Y-1117D01*
X-8079Y-1582D02*
Y-1267D01*
X-8103Y-1820D02*
Y-1267D01*
X-8127Y-1820D02*
Y-1267D01*
X-8174Y-1828D02*
Y-1187D01*
X-8150Y-1820D02*
Y-1252D01*
X-8197Y-1860D02*
Y-1187D01*
X-8646Y-1681D02*
Y-1117D01*
X-8221Y-3300D02*
Y-1187D01*
X-8670Y-3082D02*
Y-1117D01*
X-8245Y-3300D02*
Y-1187D01*
X-8268Y-3300D02*
Y-1187D01*
X-8292Y-3300D02*
Y-1183D01*
X-8741Y-3084D02*
Y-920D01*
X-8764Y-3093D02*
Y-941D01*
X-8788Y-3107D02*
Y-942D01*
X-8906Y-3300D02*
Y-942D01*
X-8953Y-3300D02*
Y-383D01*
X-8977Y-3300D02*
Y-387D01*
X-9001Y-3300D02*
Y-384D01*
X-9048Y-3300D02*
Y-358D01*
X-9024Y-3300D02*
Y-376D01*
X-9190Y-3300D02*
Y-150D01*
X-9213Y-3300D02*
Y-351D01*
X-9237Y-3300D02*
Y-372D01*
X-9260Y-3300D02*
Y-383D01*
X-9064Y-1525D02*
Y-1325D01*
X-9175Y-1525D02*
Y-1325D01*
X-8717Y-3080D02*
Y-1084D01*
X-8694Y-3079D02*
Y-1115D01*
X-8930Y-3300D02*
Y-939D01*
X-9284Y-3300D02*
Y-1107D01*
X-9308Y-3300D02*
Y-1117D01*
X-9331Y-3300D02*
Y-1117D01*
X-9355Y-3300D02*
Y-1117D01*
X-9379Y-3300D02*
Y-1117D01*
X-9402Y-3300D02*
Y-1110D01*
X-9520Y-1300D02*
Y-942D01*
X-9780Y-1286D02*
Y-319D01*
X-9544Y-1295D02*
Y-942D01*
X-9497Y-1323D02*
Y-942D01*
X-9568Y-1300D02*
Y-942D01*
X-9591Y-1321D02*
Y-942D01*
X-9973Y-1077D02*
X-9417D01*
X-9979Y-1100D02*
X-9411D01*
X-9973Y-1080D02*
Y-995D01*
X-9804Y-1272D02*
Y-150D01*
X-9827Y-1270D02*
Y-150D01*
X-9851Y-1280D02*
Y-150D01*
X-10162Y-1266D02*
X-8131D01*
X-9778Y-1289D02*
X-9161D01*
X-10148D02*
X-9861D01*
X-9504Y-1313D02*
X-9173D01*
X-9766D02*
X-9585D01*
X-10148D02*
X-9873D01*
X-10600Y-1124D02*
X-8312D01*
X-10600Y-1171D02*
X-8306D01*
X-10600Y-1148D02*
X-8312D01*
X-10600Y-1195D02*
X-8157D01*
X-10600Y-1218D02*
X-8157D01*
X-10600Y-1242D02*
X-8155D01*
X-10117Y-1080D02*
Y-995D01*
X-10158Y-1269D02*
Y-938D01*
X-10182Y-1258D02*
Y-942D01*
X-10600Y-1053D02*
X-10117D01*
X-10600Y-1077D02*
X-10117D01*
X-10205Y-1258D02*
Y-942D01*
X-10229Y-1258D02*
Y-942D01*
X-10253Y-1258D02*
Y-942D01*
X-10276Y-1264D02*
Y-942D01*
X-10080Y-1117D02*
X-10010D01*
X-10255Y-1258D02*
X-10185D01*
X-10148Y-1305D02*
Y-1295D01*
X-10600Y-1100D02*
X-10111D01*
X-10600Y-1266D02*
X-10278D01*
X-10600Y-1289D02*
X-10292D01*
X-10292Y-1305D02*
Y-1295D01*
X-10600Y-1313D02*
X-10292D01*
X-9426Y-3300D02*
Y-150D01*
X-9449Y-3300D02*
Y-932D01*
X-9662Y-3300D02*
Y-383D01*
X-9638Y-3300D02*
Y-934D01*
X-9709Y-3300D02*
Y-384D01*
X-9686Y-3300D02*
Y-387D01*
X-9733Y-3300D02*
Y-376D01*
X-9875Y-3300D02*
Y-150D01*
X-9757Y-3300D02*
Y-358D01*
X-9898Y-3300D02*
Y-150D01*
X-9922Y-3300D02*
Y-351D01*
X-9945Y-3300D02*
Y-372D01*
X-9969Y-3300D02*
Y-383D01*
X-9491Y-1336D02*
X-9175D01*
X-9764D02*
X-9598D01*
X-9473Y-3300D02*
Y-942D01*
X-9615Y-3300D02*
Y-942D01*
X-9764Y-1525D02*
Y-1325D01*
X-9875Y-1525D02*
Y-1325D01*
X-9993Y-3300D02*
Y-1113D01*
X-10016Y-3300D02*
Y-1117D01*
X-10040Y-3300D02*
Y-1117D01*
X-10371Y-2651D02*
Y-383D01*
X-10394Y-2657D02*
Y-387D01*
X-10418Y-2666D02*
Y-384D01*
X-10134Y-3300D02*
Y-150D01*
X-10442Y-2681D02*
Y-376D01*
X-10465Y-2704D02*
Y-358D01*
X-10512Y-3300D02*
Y-150D01*
X-10489Y-2743D02*
Y-319D01*
X-10536Y-3300D02*
Y-150D01*
X-10560Y-3300D02*
Y-150D01*
X-10583Y-3300D02*
Y-150D01*
X-10600Y-3300D02*
Y-150D01*
X-10064Y-3300D02*
Y-1117D01*
X-10111Y-3300D02*
Y-1101D01*
X-10087Y-3300D02*
Y-1117D01*
X-10158Y-3300D02*
Y-1331D01*
X-10323Y-2652D02*
Y-941D01*
X-10300Y-2659D02*
Y-942D01*
X-10276Y-2669D02*
Y-1336D01*
X-10347Y-2650D02*
Y-924D01*
X-8790Y-1360D02*
X-8508D01*
X-8793Y-1431D02*
X-8525D01*
X-8414Y-1575D02*
Y-1400D01*
X-8790Y-1455D02*
X-8525D01*
Y-1552D02*
Y-1400D01*
X-8801Y-1384D02*
X-8522D01*
X-8807Y-1407D02*
X-8525D01*
X-8797Y-1478D02*
X-8525D01*
X-8419Y-1596D02*
X-8092D01*
X-8460Y-1644D02*
X-8096D01*
X-8082Y-1685D02*
Y-1665D01*
X-8436Y-1620D02*
X-8099D01*
X-8826Y-1502D02*
X-8525D01*
X-9064Y-1525D02*
X-8525D01*
X-9070Y-1549D02*
X-8525D01*
X-8633Y-1661D02*
X-8525Y-1552D01*
X-8484Y-1667D02*
X-8082D01*
X-9092Y-1573D02*
X-8545D01*
X-9064Y-1384D02*
X-8888D01*
X-8807Y-1410D02*
Y-1390D01*
X-9064Y-1360D02*
X-8899D01*
X-9490D02*
X-9175D01*
X-8882Y-1410D02*
Y-1390D01*
X-9064Y-1407D02*
X-8882D01*
X-8883Y-1410D02*
Y-1390D01*
X-9501Y-1384D02*
X-9175D01*
X-9507Y-1410D02*
Y-1390D01*
X-9497Y-1423D02*
Y-1377D01*
X-9582Y-1410D02*
Y-1390D01*
X-9591Y-1421D02*
Y-1379D01*
X-9064Y-1431D02*
X-8896D01*
X-9064Y-1478D02*
X-8892D01*
X-9064Y-1455D02*
X-8899D01*
X-9064Y-1502D02*
X-8863D01*
X-9507Y-1407D02*
X-9175D01*
X-9493Y-1431D02*
X-9175D01*
X-9490Y-1455D02*
X-9175D01*
X-9497Y-1478D02*
X-9175D01*
X-9526Y-1502D02*
X-9175D01*
X-8079Y-1820D02*
Y-1768D01*
X-8434Y-3300D02*
Y-1617D01*
X-8457Y-3300D02*
Y-1641D01*
X-8481Y-3300D02*
Y-1664D01*
X-8505Y-3300D02*
Y-1688D01*
X-8507Y-1691D02*
X-8088D01*
X-8531Y-1714D02*
X-8099D01*
X-8555Y-1738D02*
X-8098D01*
X-8555Y-1739D02*
X-8431Y-1614D01*
X-8528Y-3300D02*
Y-1712D01*
X-8552Y-3215D02*
Y-1735D01*
X-8079Y-2646D02*
Y-1930D01*
X-8103Y-2656D02*
Y-1930D01*
X-8079Y-3300D02*
Y-2872D01*
X-8103Y-3300D02*
Y-2860D01*
X-8112Y-2835D02*
Y-2765D01*
X-8127Y-3300D02*
Y-1930D01*
X-8174Y-3300D02*
Y-1922D01*
X-8150Y-3300D02*
Y-1930D01*
X-8197Y-3300D02*
Y-1890D01*
X-8812Y-3128D02*
Y-1494D01*
X-8835Y-3163D02*
Y-1504D01*
X-8859Y-3300D02*
Y-1503D01*
X-8883Y-3300D02*
Y-1490D01*
X-9071Y-3300D02*
Y-1552D01*
X-9095Y-3300D02*
Y-1574D01*
X-9497Y-3300D02*
Y-1477D01*
X-9166Y-3300D02*
Y-1555D01*
X-9520Y-3300D02*
Y-1500D01*
X-9568Y-3300D02*
Y-1500D01*
X-9544Y-3300D02*
Y-1505D01*
X-9591Y-3300D02*
Y-1479D01*
X-8623Y-3101D02*
Y-1747D01*
X-8599Y-3119D02*
Y-1755D01*
X-8646Y-3089D02*
Y-1719D01*
X-8552Y-3300D02*
Y-3242D01*
X-8575Y-3147D02*
Y-1752D01*
X-8835Y-3300D02*
Y-3294D01*
X-9119Y-3300D02*
Y-1580D01*
X-9142Y-3300D02*
Y-1575D01*
X-9764Y-1502D02*
X-9563D01*
X-9764Y-1384D02*
X-9588D01*
X-9764Y-1407D02*
X-9582D01*
X-9770Y-1549D02*
X-9169D01*
X-9792Y-1573D02*
X-9147D01*
X-9764Y-1525D02*
X-9175D01*
X-10600Y-1596D02*
X-8569D01*
X-10600Y-1620D02*
X-8592D01*
X-10600Y-1644D02*
X-8616D01*
X-10600Y-1667D02*
X-8639D01*
X-10600Y-1691D02*
X-8649D01*
X-10600Y-1714D02*
X-8648D01*
X-10298Y-2659D02*
X-8107D01*
X-10256Y-2683D02*
X-8122D01*
X-10600Y-1738D02*
X-8634D01*
X-10217Y-2730D02*
X-8116D01*
X-10207Y-2754D02*
X-8111D01*
X-10233Y-2707D02*
X-8124D01*
X-10600Y-1762D02*
X-8086D01*
X-10600Y-1833D02*
X-8180D01*
X-10600Y-1856D02*
X-8196D01*
X-10600Y-1903D02*
X-8192D01*
X-10600Y-1927D02*
X-8163D01*
X-10600Y-1880D02*
X-8199D01*
X-9764Y-1360D02*
X-9599D01*
X-9764Y-1431D02*
X-9596D01*
X-10165Y-1336D02*
X-9875D01*
X-10255Y-1342D02*
X-10185D01*
X-10229Y-2711D02*
Y-1342D01*
X-9764Y-1455D02*
X-9599D01*
X-10253Y-2686D02*
Y-1342D01*
X-10600Y-1360D02*
X-9875D01*
X-10600Y-1384D02*
X-9875D01*
X-10600Y-1336D02*
X-10275D01*
X-10600Y-1407D02*
X-9875D01*
X-10600Y-1431D02*
X-9875D01*
X-10600Y-1455D02*
X-9875D01*
X-9764Y-1478D02*
X-9592D01*
X-10600D02*
X-9875D01*
X-10600Y-1502D02*
X-9875D01*
X-10600Y-1525D02*
X-9875D01*
X-10600Y-1549D02*
X-9869D01*
X-10600Y-1573D02*
X-9847D01*
X-10600Y-2659D02*
X-10402D01*
X-10600Y-2683D02*
X-10444D01*
X-10600Y-2707D02*
X-10467D01*
X-10600Y-2730D02*
X-10483D01*
X-10202Y-2777D02*
X-8112D01*
X-10200Y-2801D02*
X-8112D01*
X-9780Y-3300D02*
Y-1564D01*
X-9804Y-3300D02*
Y-1578D01*
X-9851Y-3300D02*
Y-1570D01*
X-9827Y-3300D02*
Y-1580D01*
X-10182Y-3300D02*
Y-1342D01*
X-10205Y-2760D02*
Y-1342D01*
X-10202Y-2825D02*
X-8112D01*
X-10208Y-2848D02*
X-8110D01*
X-10205Y-3300D02*
Y-2840D01*
X-10218Y-2872D02*
X-8081D01*
X-10600Y-3085D02*
X-8742D01*
X-10600Y-3108D02*
X-8790D01*
X-10600Y-3132D02*
X-8815D01*
X-10600Y-3155D02*
X-8831D01*
X-10600Y-3179D02*
X-8842D01*
X-10600Y-3203D02*
X-8848D01*
X-10600Y-3250D02*
X-8849D01*
X-10600Y-3226D02*
X-8850D01*
X-10600Y-3297D02*
X-8834D01*
X-10600Y-3300D02*
X-8832D01*
X-10600Y-3273D02*
X-8843D01*
X-10600Y-2754D02*
X-10493D01*
X-10229Y-3300D02*
Y-2889D01*
X-10489Y-3300D02*
Y-2857D01*
X-10600Y-2777D02*
X-10498D01*
X-10600Y-2801D02*
X-10500D01*
X-10600Y-2825D02*
X-10498D01*
X-10600Y-2872D02*
X-10482D01*
X-10600Y-2896D02*
X-10466D01*
X-10600Y-2848D02*
X-10492D01*
X-10253Y-3300D02*
Y-2914D01*
X-10276Y-3300D02*
Y-2931D01*
X-10300Y-3300D02*
Y-2941D01*
X-10323Y-3300D02*
Y-2948D01*
X-10347Y-3300D02*
Y-2950D01*
X-10371Y-3300D02*
Y-2949D01*
X-10394Y-3300D02*
Y-2943D01*
X-10600Y-2943D02*
X-10396D01*
X-10600Y-2919D02*
X-10441D01*
X-10442Y-3300D02*
Y-2919D01*
X-10418Y-3300D02*
Y-2934D01*
X-10465Y-3300D02*
Y-2896D01*
X-10700Y-100D02*
X-3450D01*
Y-900D02*
Y-100D01*
X-2975Y-900D02*
X-2775D01*
X-7550Y-900D02*
Y-100D01*
X-7075Y-900D02*
X-6869D01*
X-2775D02*
X-2700Y-975D01*
X-6869Y-900D02*
X-6794Y-975D01*
X-11111Y-1161D02*
Y-511D01*
X-10700Y-100D01*
D26*
X-5025Y-1525D02*
Y-1325D01*
X-4375Y-1575D02*
Y-1400D01*
X-4500Y-1700D02*
X-4375Y-1575D01*
X-5725Y-1525D02*
Y-1325D01*
X-4050Y-1875D02*
X-3825D01*
X-9119Y-1525D02*
Y-1325D01*
X-8469Y-1575D02*
Y-1400D01*
X-8594Y-1700D02*
X-8469Y-1575D01*
X-9819Y-1525D02*
Y-1325D01*
X-8144Y-1875D02*
X-7919D01*
X-14636Y-1785D02*
X-14440D01*
X-14636Y-2809D02*
X-14434D01*
X-14325Y-2700D01*
Y-1900D01*
X-14440Y-1785D02*
X-14325Y-1900D01*
X-15375Y-2680D02*
Y-2450D01*
X-14975Y-1534D02*
X-14636Y-1194D01*
X-14975Y-2125D02*
Y-1534D01*
X-15392Y-2308D02*
X-15158D01*
X-15392Y-2433D02*
Y-2308D01*
X-15158D02*
X-14975Y-2125D01*
X-15146Y-2729D02*
X-14636Y-2218D01*
X-15475Y-2975D02*
X-15250D01*
X-15146Y-2871D02*
Y-2729D01*
X-15250Y-2975D02*
X-15146Y-2871D01*
X-15608Y-2842D02*
Y-2308D01*
Y-2842D02*
X-15475Y-2975D01*
X-15392Y-2433D02*
X-15375Y-2450D01*
X-15500Y-1750D02*
Y-1550D01*
X-15608Y-1858D02*
X-15500Y-1750D01*
X-15608Y-2142D02*
Y-1858D01*
X-14217Y-817D02*
Y-705D01*
X-15392Y-2142D02*
X-15225Y-1975D01*
X-15400Y-2150D02*
X-15392Y-2142D01*
X-15225Y-1975D02*
Y-1000D01*
X-15150Y-925D01*
X-14325D01*
X-14217Y-817D01*
X-15380Y-705D02*
X-14917D01*
X-15500Y-1150D02*
Y-825D01*
X-15380Y-705D01*
X-10350Y-3000D02*
Y-2600D01*
X-12864Y-1391D02*
X-12600Y-1656D01*
X-12864Y-2809D02*
X-12600Y-2544D01*
X-12864Y-2809D02*
Y-2789D01*
X-12600Y-2544D02*
Y-1656D01*
X-12864Y-2415D02*
Y-1785D01*
X-11650Y-3150D02*
X-11300D01*
X-11700Y-3275D02*
Y-3200D01*
X-11650Y-3150D01*
X-11050Y-3000D02*
Y-2900D01*
X-11200Y-3150D02*
X-11050Y-3000D01*
X-11200Y-2450D02*
X-11050Y-2600D01*
Y-2700D02*
Y-2600D01*
X-11200Y-2450D02*
Y-2075D01*
X-11450Y-2300D02*
X-11300Y-2450D01*
X-11750Y-2300D02*
X-11450D01*
X-11300Y-3150D02*
Y-2450D01*
Y-2800D02*
X-10100D01*
X-12050Y-2300D02*
X-11825Y-2075D01*
X-11400D01*
D27*
X-2792Y-290D02*
Y-206D01*
Y-290D02*
X-2707D01*
X-2877D02*
X-2792D01*
Y-375D02*
Y-290D01*
X-3192D02*
Y-206D01*
Y-290D02*
X-3107D01*
X-3277D02*
X-3192D01*
Y-375D02*
Y-290D01*
X-3092Y-490D02*
Y-441D01*
X-3141Y-490D02*
X-3092D01*
Y-539D02*
Y-490D01*
X-3776Y-290D02*
Y-206D01*
Y-290D02*
X-3692D01*
X-3861D02*
X-3776D01*
Y-375D02*
Y-290D01*
X-4176D02*
Y-206D01*
Y-290D02*
X-4092D01*
X-4261D02*
X-4176D01*
Y-375D02*
Y-290D01*
X-4076Y-490D02*
Y-441D01*
X-4126Y-490D02*
X-4076D01*
Y-539D02*
Y-490D01*
X-2800Y-675D02*
Y-626D01*
X-2900Y-675D02*
Y-626D01*
X-2800Y-724D02*
Y-675D01*
X-2900Y-724D02*
Y-675D01*
X-3100D02*
Y-626D01*
Y-724D02*
Y-675D01*
X-3200D02*
Y-626D01*
Y-724D02*
Y-675D01*
X-3300Y-975D02*
Y-926D01*
Y-975D02*
X-3251D01*
X-3349D02*
X-3300D01*
X-3775Y-675D02*
Y-626D01*
X-3875Y-675D02*
Y-626D01*
X-3775Y-724D02*
Y-675D01*
X-3875Y-724D02*
Y-675D01*
X-4075D02*
Y-626D01*
Y-724D02*
Y-675D01*
X-4175D02*
Y-626D01*
Y-724D02*
Y-675D01*
X-4275Y-975D02*
X-4226D01*
X-4485Y-290D02*
Y-206D01*
Y-290D02*
X-4400D01*
X-4570D02*
X-4485D01*
X-4885D02*
X-4800D01*
X-4885D02*
Y-206D01*
X-4970Y-290D02*
X-4885D01*
X-5194D02*
Y-206D01*
Y-290D02*
X-5109D01*
X-5278D02*
X-5194D01*
X-4485Y-375D02*
Y-290D01*
X-4885Y-375D02*
Y-290D01*
X-5194Y-375D02*
Y-290D01*
X-5594D02*
X-5509D01*
X-5594D02*
Y-206D01*
X-5678Y-290D02*
X-5594D01*
X-5902D02*
X-5818D01*
X-5902D02*
Y-206D01*
X-5987Y-290D02*
X-5902D01*
X-6302D02*
Y-206D01*
Y-290D02*
X-6218D01*
X-6387D02*
X-6302D01*
X-5594Y-375D02*
Y-290D01*
X-5902Y-375D02*
Y-290D01*
X-6302Y-375D02*
Y-290D01*
X-4785Y-490D02*
Y-441D01*
X-4834Y-490D02*
X-4785D01*
Y-539D02*
Y-490D01*
X-5494D02*
Y-441D01*
Y-539D02*
Y-490D01*
X-4275Y-975D02*
Y-926D01*
X-4324Y-975D02*
X-4275D01*
X-5543Y-490D02*
X-5494D01*
X-6202D02*
Y-441D01*
Y-539D02*
Y-490D01*
X-6252D02*
X-6202D01*
X-3300Y-1024D02*
Y-975D01*
X-4275Y-1024D02*
Y-975D01*
X-6887Y-290D02*
Y-206D01*
Y-290D02*
X-6802D01*
X-6971D02*
X-6887D01*
Y-375D02*
Y-290D01*
X-7287D02*
Y-206D01*
Y-290D02*
X-7202D01*
X-7371D02*
X-7287D01*
Y-375D02*
Y-290D01*
X-7187Y-490D02*
Y-441D01*
Y-539D02*
Y-490D01*
X-7236D02*
X-7187D01*
X-7871Y-290D02*
Y-206D01*
Y-290D02*
X-7786D01*
X-7956D02*
X-7871D01*
Y-375D02*
Y-290D01*
X-8271D02*
Y-206D01*
Y-290D02*
X-8186D01*
X-8356D02*
X-8271D01*
Y-375D02*
Y-290D01*
X-8171Y-490D02*
Y-441D01*
X-8220Y-490D02*
X-8171D01*
Y-539D02*
Y-490D01*
X-6894Y-675D02*
Y-626D01*
Y-724D02*
Y-675D01*
X-6994D02*
Y-626D01*
Y-724D02*
Y-675D01*
X-7194D02*
Y-626D01*
X-7294Y-675D02*
Y-626D01*
X-7194Y-724D02*
Y-675D01*
X-7294Y-724D02*
Y-675D01*
X-7394Y-975D02*
Y-926D01*
Y-975D02*
X-7345D01*
X-7394Y-1024D02*
Y-975D01*
X-7444D02*
X-7394D01*
X-7869Y-675D02*
Y-626D01*
X-7969Y-675D02*
Y-626D01*
X-7869Y-724D02*
Y-675D01*
X-7969Y-724D02*
Y-675D01*
X-8169D02*
Y-626D01*
Y-724D02*
Y-675D01*
X-8269D02*
Y-626D01*
Y-724D02*
Y-675D01*
X-8580Y-290D02*
Y-206D01*
Y-290D02*
X-8495D01*
X-8664D02*
X-8580D01*
X-8980D02*
X-8895D01*
X-8980D02*
Y-206D01*
X-9064Y-290D02*
X-8980D01*
X-9288D02*
Y-206D01*
Y-290D02*
X-9204D01*
X-9373D02*
X-9288D01*
X-8580Y-375D02*
Y-290D01*
X-8980Y-375D02*
Y-290D01*
X-9288Y-375D02*
Y-290D01*
X-9688D02*
X-9604D01*
X-9688D02*
Y-206D01*
X-9773Y-290D02*
X-9688D01*
X-9997D02*
X-9912D01*
X-9997D02*
Y-206D01*
X-10081Y-290D02*
X-9997D01*
X-10397D02*
Y-206D01*
Y-290D02*
X-10312D01*
X-10481D02*
X-10397D01*
X-9688Y-375D02*
Y-290D01*
X-9997Y-375D02*
Y-290D01*
X-10397Y-375D02*
Y-290D01*
X-8880Y-490D02*
Y-441D01*
X-8929Y-490D02*
X-8880D01*
Y-539D02*
Y-490D01*
X-8369Y-975D02*
Y-926D01*
Y-975D02*
X-8320D01*
X-8419D02*
X-8369D01*
Y-1024D02*
Y-975D01*
X-9588Y-490D02*
Y-441D01*
X-9637Y-490D02*
X-9588D01*
Y-539D02*
Y-490D01*
X-10297D02*
Y-441D01*
Y-539D02*
Y-490D01*
X-10346D02*
X-10297D01*
X-10350Y-2800D02*
X-10212D01*
X-10350D02*
Y-2662D01*
X-10488Y-2800D02*
X-10350D01*
Y-2938D02*
Y-2800D01*
X-8044Y-1725D02*
Y-1625D01*
X-8019Y-2650D02*
X-7944D01*
X-8069Y-2700D02*
X-8019Y-2650D01*
X-8844Y-1450D02*
Y-1350D01*
X-9544Y-1450D02*
Y-1350D01*
X-7169Y-1850D02*
X-7069D01*
X-3075D02*
X-2975D01*
X-3950Y-1725D02*
Y-1625D01*
X-4750Y-1450D02*
Y-1350D01*
X-3925Y-2650D02*
X-3850D01*
X-3975Y-2700D02*
X-3925Y-2650D01*
X-5450Y-1450D02*
Y-1350D01*
D28*
X-11300Y-241D02*
Y-300D01*
X-11330D01*
X-11339Y-290D01*
Y-251D01*
X-11330Y-241D01*
X-11300D01*
X-11398Y-251D02*
X-11389Y-241D01*
X-11369D01*
X-11359Y-251D01*
Y-261D01*
X-11369Y-270D01*
X-11389D01*
X-11398Y-280D01*
Y-290D01*
X-11389Y-300D01*
X-11369D01*
X-11359Y-290D01*
X-11457Y-300D02*
X-11418D01*
X-11457Y-261D01*
Y-251D01*
X-11448Y-241D01*
X-11428D01*
X-11418Y-251D01*
X-11477Y-300D02*
X-11497D01*
X-11487D01*
Y-241D01*
X-11477Y-251D01*
X-11556Y-300D02*
Y-241D01*
X-11526Y-270D01*
X-11566D01*
X-11625Y-251D02*
X-11615Y-241D01*
X-11595D01*
X-11585Y-251D01*
Y-261D01*
X-11595Y-270D01*
X-11615D01*
X-11625Y-280D01*
Y-290D01*
X-11615Y-300D01*
X-11595D01*
X-11585Y-290D01*
X-11644Y-241D02*
Y-300D01*
X-11674D01*
X-11684Y-290D01*
Y-251D01*
X-11674Y-241D01*
X-11644D01*
X-11762D02*
Y-280D01*
X-11782Y-300D01*
X-11802Y-280D01*
Y-241D01*
X-11851Y-300D02*
X-11831D01*
X-11821Y-290D01*
Y-270D01*
X-11831Y-261D01*
X-11851D01*
X-11861Y-270D01*
Y-280D01*
X-11821D01*
X-11881Y-261D02*
Y-300D01*
Y-280D01*
X-11890Y-270D01*
X-11900Y-261D01*
X-11910D01*
X-11940Y-300D02*
Y-290D01*
X-11949D01*
Y-300D01*
X-11940D01*
X-12018D02*
Y-241D01*
X-11989Y-270D01*
X-12028D01*
X-12166Y-300D02*
Y-241D01*
X-12205Y-300D01*
Y-241D01*
X-12235Y-261D02*
X-12254D01*
X-12264Y-270D01*
Y-300D01*
X-12235D01*
X-12225Y-290D01*
X-12235Y-280D01*
X-12264D01*
X-12284Y-300D02*
Y-261D01*
X-12294D01*
X-12304Y-270D01*
Y-300D01*
Y-270D01*
X-12313Y-261D01*
X-12323Y-270D01*
Y-300D01*
X-12372D02*
X-12353D01*
X-12343Y-290D01*
Y-270D01*
X-12353Y-261D01*
X-12372D01*
X-12382Y-270D01*
Y-280D01*
X-12343D01*
X-12402Y-261D02*
X-12412D01*
Y-270D01*
X-12402D01*
Y-261D01*
Y-290D02*
X-12412D01*
Y-300D01*
X-12402D01*
Y-290D01*
X-12451Y-241D02*
Y-300D01*
X-12481D01*
X-12491Y-290D01*
Y-251D01*
X-12481Y-241D01*
X-12451D01*
X-12550Y-300D02*
X-12510D01*
X-12550Y-261D01*
Y-251D01*
X-12540Y-241D01*
X-12520D01*
X-12510Y-251D01*
X-12569Y-300D02*
X-12589D01*
X-12579D01*
Y-241D01*
X-12569Y-251D01*
X-12648Y-300D02*
Y-241D01*
X-12618Y-270D01*
X-12658D01*
X-12678Y-241D02*
Y-300D01*
X-12707D01*
X-12717Y-290D01*
Y-251D01*
X-12707Y-241D01*
X-12678D01*
X-12766Y-300D02*
Y-241D01*
X-12737Y-270D01*
X-12776D01*
X-12855Y-241D02*
Y-300D01*
X-12894D01*
X-12953D02*
X-12914D01*
X-12953Y-261D01*
Y-251D01*
X-12943Y-241D01*
X-12923D01*
X-12914Y-251D01*
D29*
X-7769Y-975D02*
D03*
X-3675D02*
D03*
X-6794D02*
D03*
X-2700D02*
D03*
X-6466Y-3175D02*
D03*
X-3710D02*
D03*
X-11700Y-3275D02*
D03*
X-6202Y-490D02*
D03*
X-5494D02*
D03*
X-4785D02*
D03*
X-3092D02*
D03*
X-4076D02*
D03*
X-3300Y-675D02*
D03*
X-3200D02*
D03*
X-3100D02*
D03*
X-3000D02*
D03*
X-2900D02*
D03*
X-2800D02*
D03*
X-2700D02*
D03*
X-4275D02*
D03*
X-4175D02*
D03*
X-4075D02*
D03*
X-3975D02*
D03*
X-3875D02*
D03*
X-3775D02*
D03*
X-3675D02*
D03*
X-10297Y-490D02*
D03*
X-9588D02*
D03*
X-8880D02*
D03*
X-7187D02*
D03*
X-8171D02*
D03*
X-7394Y-675D02*
D03*
X-7294D02*
D03*
X-7194D02*
D03*
X-7094D02*
D03*
X-6994D02*
D03*
X-6894D02*
D03*
X-6794D02*
D03*
X-8369D02*
D03*
X-8269D02*
D03*
X-8169D02*
D03*
X-8069D02*
D03*
X-7969D02*
D03*
X-7869D02*
D03*
X-7769D02*
D03*
D30*
X-6566Y-3175D02*
D03*
X-3810D02*
D03*
X-11600Y-3275D02*
D03*
X-3300Y-975D02*
D03*
X-4275D02*
D03*
X-7394D02*
D03*
X-8369D02*
D03*
D31*
X-12800Y-600D02*
D03*
X-15500Y-950D02*
D03*
Y-1750D02*
D03*
Y-1150D02*
D03*
Y-1550D02*
D03*
X-14636Y-1194D02*
D03*
Y-1785D02*
D03*
Y-2218D02*
D03*
Y-2809D02*
D03*
X-12864D02*
D03*
Y-2415D02*
D03*
Y-1785D02*
D03*
Y-1391D02*
D03*
D32*
X-15591Y-3228D02*
D03*
X-8701D02*
D03*
X-12047D02*
D03*
X-2598D02*
D03*
D33*
X-15352Y-325D02*
D03*
X-13782D02*
D03*
X-10350Y-2800D02*
D03*
X-14980Y-1116D02*
D03*
Y-3084D02*
D03*
X-12520D02*
D03*
Y-1116D02*
D03*
D34*
X-14217Y-705D02*
D03*
X-14567D02*
D03*
X-14917D02*
D03*
D35*
X-12050Y-2300D02*
D03*
X-15392Y-2142D02*
D03*
D36*
X-11750Y-2300D02*
D03*
X-15392Y-2308D02*
D03*
D37*
X-11300Y-2450D02*
D03*
Y-3150D02*
D03*
X-11200Y-2075D02*
D03*
X-11400D02*
D03*
X-2800Y-975D02*
D03*
X-3775D02*
D03*
X-6894D02*
D03*
X-7869D02*
D03*
D38*
X-11200Y-2450D02*
D03*
Y-3150D02*
D03*
X-6102Y-490D02*
D03*
X-5394D02*
D03*
X-4685D02*
D03*
X-2992D02*
D03*
X-3976D02*
D03*
X-10197D02*
D03*
X-9488D02*
D03*
X-8780D02*
D03*
X-7087D02*
D03*
X-8071D02*
D03*
D39*
X-15375Y-2575D02*
D03*
Y-2975D02*
D03*
Y-2680D02*
D03*
X-11050Y-2900D02*
D03*
Y-2800D02*
D03*
Y-2700D02*
D03*
D40*
X-15608Y-2308D02*
D03*
Y-2142D02*
D03*
D41*
X-6302Y-290D02*
D03*
X-5902D02*
D03*
X-5594D02*
D03*
X-5194D02*
D03*
X-4885D02*
D03*
X-4485D02*
D03*
X-3192D02*
D03*
X-2792D02*
D03*
X-4176D02*
D03*
X-3776D02*
D03*
X-10397D02*
D03*
X-9997D02*
D03*
X-9688D02*
D03*
X-9288D02*
D03*
X-8980D02*
D03*
X-8580D02*
D03*
X-7287D02*
D03*
X-6887D02*
D03*
X-8271D02*
D03*
X-7871D02*
D03*
D42*
X-7675Y-1196D02*
D03*
X-11111Y-1161D02*
D03*
X-7075Y-900D02*
D03*
X-7550Y-900D02*
D03*
X-3571Y-1196D02*
D03*
X-2975Y-900D02*
D03*
X-3450D02*
D03*
X-3763Y-2113D02*
D03*
X-3275Y-1375D02*
D03*
X-7857Y-2113D02*
D03*
X-7369Y-1375D02*
D03*
X-4200Y-3025D02*
D03*
X-7944Y-2450D02*
D03*
X-10294Y-1125D02*
D03*
X-9594D02*
D03*
X-8894D02*
D03*
X-8094Y-1450D02*
D03*
X-6994Y-1575D02*
D03*
X-8044Y-1625D02*
D03*
Y-1725D02*
D03*
X-7944Y-2650D02*
D03*
X-8069Y-2700D02*
D03*
X-8844Y-1350D02*
D03*
X-9544D02*
D03*
X-8844Y-1450D02*
D03*
X-9544D02*
D03*
X-7069Y-1850D02*
D03*
X-7169D02*
D03*
X-10069Y-1275D02*
D03*
X-9369D02*
D03*
X-8669D02*
D03*
X-7869Y-1600D02*
D03*
X-8294Y-3025D02*
D03*
X-9119Y-1325D02*
D03*
X-8469Y-1400D02*
D03*
X-7919Y-1875D02*
D03*
X-8144D02*
D03*
X-8594Y-1700D02*
D03*
X-9819Y-1325D02*
D03*
X-9119Y-1525D02*
D03*
X-9819D02*
D03*
X-7669Y-2875D02*
D03*
X-7219Y-2550D02*
D03*
X-7294Y-2425D02*
D03*
X-8194Y-2775D02*
D03*
X-7394Y-1875D02*
D03*
X-6969Y-1325D02*
D03*
X-7232Y-1288D02*
D03*
X-3825Y-1875D02*
D03*
X-4050D02*
D03*
X-4375Y-1400D02*
D03*
X-4500Y-1700D02*
D03*
X-5025Y-1525D02*
D03*
X-5725D02*
D03*
X-4750Y-1450D02*
D03*
Y-1350D02*
D03*
X-5450Y-1450D02*
D03*
Y-1350D02*
D03*
X-5725Y-1325D02*
D03*
X-5025D02*
D03*
X-3950Y-1725D02*
D03*
Y-1625D02*
D03*
X-2975Y-1850D02*
D03*
X-3075D02*
D03*
X-3975Y-2700D02*
D03*
X-3850Y-2650D02*
D03*
X-4100Y-2775D02*
D03*
X-3850Y-2450D02*
D03*
X-3125Y-2550D02*
D03*
X-3200Y-2425D02*
D03*
X-3575Y-2875D02*
D03*
X-3137Y-1288D02*
D03*
X-2900Y-1575D02*
D03*
X-3300Y-1875D02*
D03*
X-2875Y-1325D02*
D03*
X-4000Y-1450D02*
D03*
X-4575Y-1275D02*
D03*
X-3775Y-1600D02*
D03*
X-4800Y-1125D02*
D03*
X-5275Y-1275D02*
D03*
X-5500Y-1125D02*
D03*
X-5975Y-1275D02*
D03*
X-6200Y-1125D02*
D03*
M02*
