%FSLAX23Y23*%
%MOIN*%
G70*
G01*
G75*
%ADD10C,0.024*%
%ADD11R,0.035X0.037*%
%ADD12R,0.024X0.047*%
%ADD13R,0.060X0.052*%
%ADD14R,0.052X0.060*%
%ADD15R,0.118X0.059*%
%ADD16R,0.028X0.036*%
%ADD17R,0.036X0.028*%
%ADD18R,0.059X0.051*%
%ADD19R,0.024X0.087*%
%ADD20R,0.024X0.087*%
%ADD21R,0.063X0.071*%
%ADD22R,0.051X0.059*%
%ADD23R,0.083X0.024*%
%ADD24R,0.024X0.083*%
%ADD25R,0.071X0.063*%
%ADD26C,0.047*%
%ADD27C,0.012*%
%ADD28C,0.010*%
%ADD29C,0.059*%
%ADD30R,0.059X0.059*%
%ADD31C,0.100*%
%ADD32C,0.236*%
%ADD33C,0.237*%
%ADD34C,0.110*%
%ADD35R,0.079X0.079*%
%ADD36C,0.079*%
%ADD37C,0.059*%
%ADD38R,0.059X0.059*%
%ADD39C,0.070*%
%ADD40C,0.079*%
%ADD41C,0.130*%
%ADD42C,0.047*%
%ADD43R,0.043X0.045*%
%ADD44R,0.032X0.055*%
%ADD45R,0.068X0.060*%
%ADD46R,0.060X0.068*%
%ADD47R,0.126X0.067*%
%ADD48R,0.036X0.044*%
%ADD49R,0.044X0.036*%
%ADD50R,0.067X0.059*%
%ADD51R,0.032X0.095*%
%ADD52R,0.032X0.095*%
%ADD53R,0.071X0.079*%
%ADD54R,0.059X0.067*%
%ADD55R,0.091X0.032*%
%ADD56R,0.032X0.091*%
%ADD57R,0.079X0.071*%
%ADD58C,0.067*%
%ADD59R,0.067X0.067*%
%ADD60C,0.108*%
%ADD61C,0.244*%
%ADD62C,0.245*%
%ADD63C,0.118*%
%ADD64R,0.087X0.087*%
%ADD65C,0.087*%
%ADD66C,0.067*%
%ADD67R,0.067X0.067*%
%ADD68C,0.078*%
%ADD69C,0.087*%
%ADD70C,0.138*%
%ADD71C,0.055*%
D58*
X-7769Y-975D02*
D03*
X-3675D02*
D03*
X-6794D02*
D03*
X-2700D02*
D03*
X-6466Y-3175D02*
D03*
X-3710D02*
D03*
X-11700Y-3275D02*
D03*
X-6202Y-490D02*
D03*
X-5494D02*
D03*
X-4785D02*
D03*
X-3092D02*
D03*
X-4076D02*
D03*
X-3300Y-675D02*
D03*
X-3200D02*
D03*
X-3100D02*
D03*
X-3000D02*
D03*
X-2900D02*
D03*
X-2800D02*
D03*
X-2700D02*
D03*
X-4275D02*
D03*
X-4175D02*
D03*
X-4075D02*
D03*
X-3975D02*
D03*
X-3875D02*
D03*
X-3775D02*
D03*
X-3675D02*
D03*
X-10297Y-490D02*
D03*
X-9588D02*
D03*
X-8880D02*
D03*
X-7187D02*
D03*
X-8171D02*
D03*
X-7394Y-675D02*
D03*
X-7294D02*
D03*
X-7194D02*
D03*
X-7094D02*
D03*
X-6994D02*
D03*
X-6894D02*
D03*
X-6794D02*
D03*
X-8369D02*
D03*
X-8269D02*
D03*
X-8169D02*
D03*
X-8069D02*
D03*
X-7969D02*
D03*
X-7869D02*
D03*
X-7769D02*
D03*
D59*
X-6566Y-3175D02*
D03*
X-3810D02*
D03*
X-11600Y-3275D02*
D03*
X-3300Y-975D02*
D03*
X-4275D02*
D03*
X-7394D02*
D03*
X-8369D02*
D03*
D60*
X-12800Y-600D02*
D03*
X-15500Y-950D02*
D03*
Y-1750D02*
D03*
Y-1150D02*
D03*
Y-1550D02*
D03*
X-14636Y-1194D02*
D03*
Y-1785D02*
D03*
Y-2218D02*
D03*
Y-2809D02*
D03*
X-12864D02*
D03*
Y-2415D02*
D03*
Y-1785D02*
D03*
Y-1391D02*
D03*
D61*
X-15591Y-3228D02*
D03*
X-8701D02*
D03*
X-12047D02*
D03*
X-2598D02*
D03*
D62*
X-15352Y-325D02*
D03*
X-13782D02*
D03*
X-10350Y-2800D02*
D03*
X-14980Y-1116D02*
D03*
Y-3084D02*
D03*
X-12520D02*
D03*
Y-1116D02*
D03*
D63*
X-14217Y-705D02*
D03*
X-14567D02*
D03*
X-14917D02*
D03*
D64*
X-12050Y-2300D02*
D03*
X-15392Y-2142D02*
D03*
D65*
X-11750Y-2300D02*
D03*
X-15392Y-2308D02*
D03*
D66*
X-11300Y-2450D02*
D03*
Y-3150D02*
D03*
X-11200Y-2075D02*
D03*
X-11400D02*
D03*
X-2800Y-975D02*
D03*
X-3775D02*
D03*
X-6894D02*
D03*
X-7869D02*
D03*
D67*
X-11200Y-2450D02*
D03*
Y-3150D02*
D03*
X-6102Y-490D02*
D03*
X-5394D02*
D03*
X-4685D02*
D03*
X-2992D02*
D03*
X-3976D02*
D03*
X-10197D02*
D03*
X-9488D02*
D03*
X-8780D02*
D03*
X-7087D02*
D03*
X-8071D02*
D03*
D68*
X-15375Y-2575D02*
D03*
Y-2975D02*
D03*
Y-2680D02*
D03*
X-11050Y-2900D02*
D03*
Y-2800D02*
D03*
Y-2700D02*
D03*
D69*
X-15608Y-2308D02*
D03*
Y-2142D02*
D03*
D70*
X-6302Y-290D02*
D03*
X-5902D02*
D03*
X-5594D02*
D03*
X-5194D02*
D03*
X-4885D02*
D03*
X-4485D02*
D03*
X-3192D02*
D03*
X-2792D02*
D03*
X-4176D02*
D03*
X-3776D02*
D03*
X-10397D02*
D03*
X-9997D02*
D03*
X-9688D02*
D03*
X-9288D02*
D03*
X-8980D02*
D03*
X-8580D02*
D03*
X-7287D02*
D03*
X-6887D02*
D03*
X-8271D02*
D03*
X-7871D02*
D03*
D71*
X-7675Y-1196D02*
D03*
X-11111Y-1161D02*
D03*
X-7075Y-900D02*
D03*
X-7550Y-900D02*
D03*
X-3571Y-1196D02*
D03*
X-2975Y-900D02*
D03*
X-3450D02*
D03*
X-3763Y-2113D02*
D03*
X-3275Y-1375D02*
D03*
X-7857Y-2113D02*
D03*
X-7369Y-1375D02*
D03*
X-4200Y-3025D02*
D03*
X-7944Y-2450D02*
D03*
X-10294Y-1125D02*
D03*
X-9594D02*
D03*
X-8894D02*
D03*
X-8094Y-1450D02*
D03*
X-6994Y-1575D02*
D03*
X-8044Y-1625D02*
D03*
Y-1725D02*
D03*
X-7944Y-2650D02*
D03*
X-8069Y-2700D02*
D03*
X-8844Y-1350D02*
D03*
X-9544D02*
D03*
X-8844Y-1450D02*
D03*
X-9544D02*
D03*
X-7069Y-1850D02*
D03*
X-7169D02*
D03*
X-10069Y-1275D02*
D03*
X-9369D02*
D03*
X-8669D02*
D03*
X-7869Y-1600D02*
D03*
X-8294Y-3025D02*
D03*
X-9119Y-1325D02*
D03*
X-8469Y-1400D02*
D03*
X-7919Y-1875D02*
D03*
X-8144D02*
D03*
X-8594Y-1700D02*
D03*
X-9819Y-1325D02*
D03*
X-9119Y-1525D02*
D03*
X-9819D02*
D03*
X-7669Y-2875D02*
D03*
X-7219Y-2550D02*
D03*
X-7294Y-2425D02*
D03*
X-8194Y-2775D02*
D03*
X-7394Y-1875D02*
D03*
X-6969Y-1325D02*
D03*
X-7232Y-1288D02*
D03*
X-3825Y-1875D02*
D03*
X-4050D02*
D03*
X-4375Y-1400D02*
D03*
X-4500Y-1700D02*
D03*
X-5025Y-1525D02*
D03*
X-5725D02*
D03*
X-4750Y-1450D02*
D03*
Y-1350D02*
D03*
X-5450Y-1450D02*
D03*
Y-1350D02*
D03*
X-5725Y-1325D02*
D03*
X-5025D02*
D03*
X-3950Y-1725D02*
D03*
Y-1625D02*
D03*
X-2975Y-1850D02*
D03*
X-3075D02*
D03*
X-3975Y-2700D02*
D03*
X-3850Y-2650D02*
D03*
X-4100Y-2775D02*
D03*
X-3850Y-2450D02*
D03*
X-3125Y-2550D02*
D03*
X-3200Y-2425D02*
D03*
X-3575Y-2875D02*
D03*
X-3137Y-1288D02*
D03*
X-2900Y-1575D02*
D03*
X-3300Y-1875D02*
D03*
X-2875Y-1325D02*
D03*
X-4000Y-1450D02*
D03*
X-4575Y-1275D02*
D03*
X-3775Y-1600D02*
D03*
X-4800Y-1125D02*
D03*
X-5275Y-1275D02*
D03*
X-5500Y-1125D02*
D03*
X-5975Y-1275D02*
D03*
X-6200Y-1125D02*
D03*
M02*
