%FSLAX23Y23*%
%MOIN*%
G70*
G01*
G75*
%ADD10C,0.024*%
%ADD11R,0.035X0.037*%
%ADD12R,0.024X0.047*%
%ADD13R,0.060X0.052*%
%ADD14R,0.052X0.060*%
%ADD15R,0.118X0.059*%
%ADD16R,0.028X0.036*%
%ADD17R,0.036X0.028*%
%ADD18R,0.059X0.051*%
%ADD19R,0.024X0.087*%
%ADD20R,0.024X0.087*%
%ADD21R,0.063X0.071*%
%ADD22R,0.051X0.059*%
%ADD23R,0.083X0.024*%
%ADD24R,0.024X0.083*%
%ADD25R,0.071X0.063*%
%ADD26C,0.047*%
%ADD27C,0.012*%
%ADD28C,0.010*%
%ADD29C,0.059*%
%ADD30R,0.059X0.059*%
%ADD31C,0.100*%
%ADD32C,0.236*%
%ADD33C,0.237*%
%ADD34C,0.110*%
%ADD35R,0.079X0.079*%
%ADD36C,0.079*%
%ADD37C,0.059*%
%ADD38R,0.059X0.059*%
%ADD39C,0.070*%
%ADD40C,0.079*%
%ADD41C,0.130*%
%ADD42C,0.047*%
%ADD43R,0.043X0.045*%
%ADD44R,0.032X0.055*%
%ADD45R,0.068X0.060*%
%ADD46R,0.060X0.068*%
%ADD47R,0.126X0.067*%
%ADD48R,0.036X0.044*%
%ADD49R,0.044X0.036*%
%ADD50R,0.067X0.059*%
%ADD51R,0.032X0.095*%
%ADD52R,0.032X0.095*%
%ADD53R,0.071X0.079*%
%ADD54R,0.059X0.067*%
%ADD55R,0.091X0.032*%
%ADD56R,0.032X0.091*%
%ADD57R,0.079X0.071*%
%ADD58C,0.067*%
%ADD59R,0.067X0.067*%
%ADD60C,0.108*%
%ADD61C,0.244*%
%ADD62C,0.245*%
%ADD63C,0.118*%
%ADD64R,0.087X0.087*%
%ADD65C,0.087*%
%ADD66C,0.067*%
%ADD67R,0.067X0.067*%
%ADD68C,0.078*%
%ADD69C,0.087*%
%ADD70C,0.138*%
%ADD71C,0.055*%
D43*
X-7587Y-1196D02*
D03*
X-7513D02*
D03*
X-7550Y-1104D02*
D03*
X-3487Y-1196D02*
D03*
X-3413D02*
D03*
X-3450Y-1104D02*
D03*
D44*
X-11189Y-1402D02*
D03*
X-11150D02*
D03*
X-11111D02*
D03*
Y-1298D02*
D03*
X-11150D02*
D03*
X-11189D02*
D03*
D45*
X-11100Y-1613D02*
D03*
Y-1687D02*
D03*
X-13075Y-613D02*
D03*
Y-687D02*
D03*
X-11200Y-2737D02*
D03*
Y-2663D02*
D03*
Y-2863D02*
D03*
Y-2937D02*
D03*
X-6300Y-1038D02*
D03*
Y-1112D02*
D03*
X-5875Y-1237D02*
D03*
Y-1163D02*
D03*
X-3600Y-2113D02*
D03*
Y-2187D02*
D03*
X-3225D02*
D03*
Y-2113D02*
D03*
X-6100Y-813D02*
D03*
Y-887D02*
D03*
Y-638D02*
D03*
Y-712D02*
D03*
X-5600Y-1038D02*
D03*
Y-1112D02*
D03*
X-5175Y-1237D02*
D03*
Y-1163D02*
D03*
X-3375Y-2987D02*
D03*
Y-2913D02*
D03*
X-3475Y-2987D02*
D03*
Y-2913D02*
D03*
X-5400Y-813D02*
D03*
Y-887D02*
D03*
Y-638D02*
D03*
Y-712D02*
D03*
X-4900Y-1038D02*
D03*
Y-1112D02*
D03*
X-4475Y-1237D02*
D03*
Y-1163D02*
D03*
X-4700Y-813D02*
D03*
Y-887D02*
D03*
Y-638D02*
D03*
Y-712D02*
D03*
X-4100Y-1363D02*
D03*
Y-1437D02*
D03*
X-3675Y-1562D02*
D03*
Y-1488D02*
D03*
X-3900Y-1138D02*
D03*
Y-1212D02*
D03*
X-10394Y-1038D02*
D03*
Y-1112D02*
D03*
X-9969Y-1237D02*
D03*
Y-1163D02*
D03*
X-7694Y-2113D02*
D03*
Y-2187D02*
D03*
X-7319D02*
D03*
Y-2113D02*
D03*
X-10194Y-813D02*
D03*
Y-887D02*
D03*
Y-638D02*
D03*
Y-712D02*
D03*
X-9694Y-1038D02*
D03*
Y-1112D02*
D03*
X-9269Y-1237D02*
D03*
Y-1163D02*
D03*
X-7469Y-2987D02*
D03*
Y-2913D02*
D03*
X-7569Y-2987D02*
D03*
Y-2913D02*
D03*
X-9494Y-813D02*
D03*
Y-887D02*
D03*
Y-638D02*
D03*
Y-712D02*
D03*
X-8994Y-1038D02*
D03*
Y-1112D02*
D03*
X-8569Y-1237D02*
D03*
Y-1163D02*
D03*
X-8794Y-813D02*
D03*
Y-887D02*
D03*
Y-638D02*
D03*
Y-712D02*
D03*
X-8194Y-1363D02*
D03*
Y-1437D02*
D03*
X-7769Y-1562D02*
D03*
Y-1488D02*
D03*
X-7994Y-1138D02*
D03*
Y-1212D02*
D03*
D46*
X-11187Y-1500D02*
D03*
X-11113D02*
D03*
X-13213Y-600D02*
D03*
X-13287D02*
D03*
Y-725D02*
D03*
X-13213D02*
D03*
X-11587Y-3125D02*
D03*
X-11513D02*
D03*
X-3412Y-2100D02*
D03*
X-3338D02*
D03*
Y-2200D02*
D03*
X-3412D02*
D03*
X-3137Y-1225D02*
D03*
X-3063D02*
D03*
X-2888Y-1125D02*
D03*
X-2962D02*
D03*
X-2888Y-1225D02*
D03*
X-2962D02*
D03*
X-4162Y-1125D02*
D03*
X-4088D02*
D03*
X-7507Y-2100D02*
D03*
X-7432D02*
D03*
Y-2200D02*
D03*
X-7507D02*
D03*
X-7232Y-1225D02*
D03*
X-7157D02*
D03*
X-6982Y-1125D02*
D03*
X-7057D02*
D03*
X-6982Y-1225D02*
D03*
X-7057D02*
D03*
X-8257Y-1125D02*
D03*
X-8182D02*
D03*
D47*
X-12127Y-2800D02*
D03*
Y-2600D02*
D03*
X-11773D02*
D03*
Y-2800D02*
D03*
D48*
X-5975Y-1174D02*
D03*
Y-1226D02*
D03*
X-3675Y-2176D02*
D03*
Y-2124D02*
D03*
X-4125Y-2949D02*
D03*
Y-3001D02*
D03*
X-3200Y-2499D02*
D03*
Y-2551D02*
D03*
X-5275Y-1174D02*
D03*
Y-1226D02*
D03*
X-4050Y-2826D02*
D03*
Y-2774D02*
D03*
X-3975Y-2826D02*
D03*
Y-2774D02*
D03*
X-3900Y-2826D02*
D03*
Y-2774D02*
D03*
X-3200Y-2649D02*
D03*
Y-2701D02*
D03*
X-4575Y-1174D02*
D03*
Y-1226D02*
D03*
X-3375Y-1874D02*
D03*
Y-1926D02*
D03*
X-3775Y-1499D02*
D03*
Y-1551D02*
D03*
X-3050Y-1376D02*
D03*
Y-1324D02*
D03*
X-3000Y-1376D02*
D03*
Y-1324D02*
D03*
X-2775Y-1501D02*
D03*
Y-1449D02*
D03*
Y-1626D02*
D03*
Y-1574D02*
D03*
X-10069Y-1174D02*
D03*
Y-1226D02*
D03*
X-7769Y-2176D02*
D03*
Y-2124D02*
D03*
X-8219Y-2949D02*
D03*
Y-3001D02*
D03*
X-7294Y-2499D02*
D03*
Y-2551D02*
D03*
X-9369Y-1174D02*
D03*
Y-1226D02*
D03*
X-8144Y-2826D02*
D03*
Y-2774D02*
D03*
X-8069Y-2826D02*
D03*
Y-2774D02*
D03*
X-7994Y-2826D02*
D03*
Y-2774D02*
D03*
X-7294Y-2649D02*
D03*
Y-2701D02*
D03*
X-8669Y-1174D02*
D03*
Y-1226D02*
D03*
X-7469Y-1874D02*
D03*
Y-1926D02*
D03*
X-7869Y-1499D02*
D03*
Y-1551D02*
D03*
X-7144Y-1376D02*
D03*
Y-1324D02*
D03*
X-7094Y-1376D02*
D03*
Y-1324D02*
D03*
X-6869Y-1501D02*
D03*
Y-1449D02*
D03*
Y-1626D02*
D03*
Y-1574D02*
D03*
D49*
X-5799Y-1325D02*
D03*
X-5851D02*
D03*
X-5924Y-1000D02*
D03*
X-5976D02*
D03*
X-5924Y-1075D02*
D03*
X-5976D02*
D03*
X-3749Y-2225D02*
D03*
X-3801D02*
D03*
X-3676Y-2875D02*
D03*
X-3624D02*
D03*
X-5099Y-1325D02*
D03*
X-5151D02*
D03*
X-5224Y-1000D02*
D03*
X-5276D02*
D03*
X-5224Y-1075D02*
D03*
X-5276D02*
D03*
X-4399Y-1325D02*
D03*
X-4451D02*
D03*
X-4524Y-1000D02*
D03*
X-4576D02*
D03*
X-4524Y-1075D02*
D03*
X-4576D02*
D03*
X-3176Y-1375D02*
D03*
X-3124D02*
D03*
X-2926D02*
D03*
X-2874D02*
D03*
X-3176Y-1775D02*
D03*
X-3124D02*
D03*
X-3249Y-1925D02*
D03*
X-3301D02*
D03*
X-3599Y-1650D02*
D03*
X-3651D02*
D03*
X-3176Y-1925D02*
D03*
X-3124D02*
D03*
X-3176Y-1850D02*
D03*
X-3124D02*
D03*
X-3724Y-1400D02*
D03*
X-3776D02*
D03*
X-3724Y-1325D02*
D03*
X-3776D02*
D03*
X-6151Y-1300D02*
D03*
X-6099D02*
D03*
X-9894Y-1325D02*
D03*
X-9945D02*
D03*
X-10019Y-1000D02*
D03*
X-10070D02*
D03*
X-10019Y-1075D02*
D03*
X-10070D02*
D03*
X-7844Y-2225D02*
D03*
X-7895D02*
D03*
X-7770Y-2875D02*
D03*
X-7719D02*
D03*
X-9194Y-1325D02*
D03*
X-9245D02*
D03*
X-9319Y-1000D02*
D03*
X-9370D02*
D03*
X-9319Y-1075D02*
D03*
X-9370D02*
D03*
X-8494Y-1325D02*
D03*
X-8545D02*
D03*
X-8619Y-1000D02*
D03*
X-8670D02*
D03*
X-8619Y-1075D02*
D03*
X-8670D02*
D03*
X-7270Y-1375D02*
D03*
X-7219D02*
D03*
X-7020D02*
D03*
X-6969D02*
D03*
X-7270Y-1775D02*
D03*
X-7219D02*
D03*
X-7344Y-1925D02*
D03*
X-7395D02*
D03*
X-7694Y-1650D02*
D03*
X-7745D02*
D03*
X-7270Y-1925D02*
D03*
X-7219D02*
D03*
X-7270Y-1850D02*
D03*
X-7219D02*
D03*
X-7819Y-1400D02*
D03*
X-7870D02*
D03*
X-7819Y-1325D02*
D03*
X-7870D02*
D03*
X-10245Y-1300D02*
D03*
X-10194D02*
D03*
D50*
X-5775Y-1163D02*
D03*
Y-1237D02*
D03*
X-6200Y-813D02*
D03*
Y-887D02*
D03*
X-3800Y-3012D02*
D03*
Y-2938D02*
D03*
X-5075Y-1163D02*
D03*
Y-1237D02*
D03*
X-5500Y-813D02*
D03*
Y-887D02*
D03*
X-4375Y-1163D02*
D03*
Y-1237D02*
D03*
X-4800Y-813D02*
D03*
Y-887D02*
D03*
X-3375Y-1688D02*
D03*
Y-1762D02*
D03*
X-3275Y-1688D02*
D03*
Y-1762D02*
D03*
X-3575Y-1488D02*
D03*
Y-1562D02*
D03*
X-4000Y-1138D02*
D03*
Y-1212D02*
D03*
X-9869Y-1163D02*
D03*
Y-1237D02*
D03*
X-10294Y-813D02*
D03*
Y-887D02*
D03*
X-7894Y-3012D02*
D03*
Y-2938D02*
D03*
X-9169Y-1163D02*
D03*
Y-1237D02*
D03*
X-9594Y-813D02*
D03*
Y-887D02*
D03*
X-8469Y-1163D02*
D03*
Y-1237D02*
D03*
X-8894Y-813D02*
D03*
Y-887D02*
D03*
X-7469Y-1688D02*
D03*
Y-1762D02*
D03*
X-7369Y-1688D02*
D03*
Y-1762D02*
D03*
X-7669Y-1488D02*
D03*
Y-1562D02*
D03*
X-8094Y-1138D02*
D03*
Y-1212D02*
D03*
D51*
X-6100Y-998D02*
D03*
X-6150D02*
D03*
X-6200D02*
D03*
X-6050Y-1202D02*
D03*
X-6100D02*
D03*
X-6150D02*
D03*
X-6200D02*
D03*
X-5400Y-998D02*
D03*
X-5450D02*
D03*
X-5500D02*
D03*
X-5350Y-1202D02*
D03*
X-5400D02*
D03*
X-5450D02*
D03*
X-5500D02*
D03*
X-4700Y-998D02*
D03*
X-4750D02*
D03*
X-4800D02*
D03*
X-4650Y-1202D02*
D03*
X-4700D02*
D03*
X-4750D02*
D03*
X-4800D02*
D03*
X-3150Y-1677D02*
D03*
X-3100D02*
D03*
X-3050D02*
D03*
X-3000D02*
D03*
X-2950D02*
D03*
X-2900D02*
D03*
X-2850D02*
D03*
X-3150Y-1473D02*
D03*
X-3100D02*
D03*
X-3050D02*
D03*
X-3000D02*
D03*
X-2950D02*
D03*
X-2900D02*
D03*
X-2850D02*
D03*
X-3900Y-1323D02*
D03*
X-3950D02*
D03*
X-4000D02*
D03*
X-3850Y-1527D02*
D03*
X-3900D02*
D03*
X-3950D02*
D03*
X-4000D02*
D03*
X-10194Y-998D02*
D03*
X-10244D02*
D03*
X-10294D02*
D03*
X-10144Y-1202D02*
D03*
X-10194D02*
D03*
X-10244D02*
D03*
X-10294D02*
D03*
X-9494Y-998D02*
D03*
X-9544D02*
D03*
X-9594D02*
D03*
X-9444Y-1202D02*
D03*
X-9494D02*
D03*
X-9544D02*
D03*
X-9594D02*
D03*
X-8794Y-998D02*
D03*
X-8844D02*
D03*
X-8894D02*
D03*
X-8744Y-1202D02*
D03*
X-8794D02*
D03*
X-8844D02*
D03*
X-8894D02*
D03*
X-7244Y-1677D02*
D03*
X-7194D02*
D03*
X-7144D02*
D03*
X-7094D02*
D03*
X-7044D02*
D03*
X-6994D02*
D03*
X-6944D02*
D03*
X-7244Y-1473D02*
D03*
X-7194D02*
D03*
X-7144D02*
D03*
X-7094D02*
D03*
X-7044D02*
D03*
X-6994D02*
D03*
X-6944D02*
D03*
X-7994Y-1323D02*
D03*
X-8044D02*
D03*
X-8094D02*
D03*
X-7944Y-1527D02*
D03*
X-7994D02*
D03*
X-8044D02*
D03*
X-8094D02*
D03*
D52*
X-6050Y-998D02*
D03*
X-5350D02*
D03*
X-4650D02*
D03*
X-3850Y-1323D02*
D03*
X-10144Y-998D02*
D03*
X-9444D02*
D03*
X-8744D02*
D03*
X-7944Y-1323D02*
D03*
D53*
X-4030Y-3025D02*
D03*
X-3920D02*
D03*
X-8125D02*
D03*
X-8014D02*
D03*
D54*
X-3987Y-2925D02*
D03*
X-3913D02*
D03*
X-3137Y-1125D02*
D03*
X-3063D02*
D03*
X-8082Y-2925D02*
D03*
X-8007D02*
D03*
X-7232Y-1125D02*
D03*
X-7157D02*
D03*
D55*
X-3299Y-2700D02*
D03*
Y-2650D02*
D03*
Y-2600D02*
D03*
Y-2550D02*
D03*
Y-2500D02*
D03*
Y-2450D02*
D03*
Y-2400D02*
D03*
X-3751Y-2700D02*
D03*
Y-2650D02*
D03*
Y-2600D02*
D03*
Y-2550D02*
D03*
Y-2500D02*
D03*
Y-2450D02*
D03*
Y-2400D02*
D03*
X-7393Y-2700D02*
D03*
Y-2650D02*
D03*
Y-2600D02*
D03*
Y-2550D02*
D03*
Y-2500D02*
D03*
Y-2450D02*
D03*
Y-2400D02*
D03*
X-7846Y-2700D02*
D03*
Y-2650D02*
D03*
Y-2600D02*
D03*
Y-2550D02*
D03*
Y-2500D02*
D03*
Y-2450D02*
D03*
Y-2400D02*
D03*
D56*
X-3375Y-2324D02*
D03*
X-3425D02*
D03*
X-3475D02*
D03*
X-3525D02*
D03*
X-3575D02*
D03*
X-3625D02*
D03*
X-3675D02*
D03*
X-3375Y-2776D02*
D03*
X-3425D02*
D03*
X-3475D02*
D03*
X-3525D02*
D03*
X-3575D02*
D03*
X-3625D02*
D03*
X-3675D02*
D03*
X-7469Y-2324D02*
D03*
X-7519D02*
D03*
X-7569D02*
D03*
X-7619D02*
D03*
X-7669D02*
D03*
X-7719D02*
D03*
X-7769D02*
D03*
X-7469Y-2776D02*
D03*
X-7519D02*
D03*
X-7569D02*
D03*
X-7619D02*
D03*
X-7669D02*
D03*
X-7719D02*
D03*
X-7769D02*
D03*
D57*
X-3275Y-1445D02*
D03*
Y-1555D02*
D03*
X-7369Y-1445D02*
D03*
Y-1555D02*
D03*
D58*
X-7769Y-975D02*
D03*
X-3675D02*
D03*
X-6794D02*
D03*
X-2700D02*
D03*
X-6466Y-3175D02*
D03*
X-3710D02*
D03*
X-11700Y-3275D02*
D03*
X-6202Y-490D02*
D03*
X-5494D02*
D03*
X-4785D02*
D03*
X-3092D02*
D03*
X-4076D02*
D03*
X-3300Y-675D02*
D03*
X-3200D02*
D03*
X-3100D02*
D03*
X-3000D02*
D03*
X-2900D02*
D03*
X-2800D02*
D03*
X-2700D02*
D03*
X-4275D02*
D03*
X-4175D02*
D03*
X-4075D02*
D03*
X-3975D02*
D03*
X-3875D02*
D03*
X-3775D02*
D03*
X-3675D02*
D03*
X-10297Y-490D02*
D03*
X-9588D02*
D03*
X-8880D02*
D03*
X-7187D02*
D03*
X-8171D02*
D03*
X-7394Y-675D02*
D03*
X-7294D02*
D03*
X-7194D02*
D03*
X-7094D02*
D03*
X-6994D02*
D03*
X-6894D02*
D03*
X-6794D02*
D03*
X-8369D02*
D03*
X-8269D02*
D03*
X-8169D02*
D03*
X-8069D02*
D03*
X-7969D02*
D03*
X-7869D02*
D03*
X-7769D02*
D03*
D59*
X-6566Y-3175D02*
D03*
X-3810D02*
D03*
X-11600Y-3275D02*
D03*
X-3300Y-975D02*
D03*
X-4275D02*
D03*
X-7394D02*
D03*
X-8369D02*
D03*
D60*
X-12800Y-600D02*
D03*
X-15500Y-950D02*
D03*
Y-1750D02*
D03*
Y-1150D02*
D03*
Y-1550D02*
D03*
X-14636Y-1194D02*
D03*
Y-1785D02*
D03*
Y-2218D02*
D03*
Y-2809D02*
D03*
X-12864D02*
D03*
Y-2415D02*
D03*
Y-1785D02*
D03*
Y-1391D02*
D03*
D61*
X-15591Y-3228D02*
D03*
X-8701D02*
D03*
X-12047D02*
D03*
X-2598D02*
D03*
D62*
X-15352Y-325D02*
D03*
X-13782D02*
D03*
X-10350Y-2800D02*
D03*
X-14980Y-1116D02*
D03*
Y-3084D02*
D03*
X-12520D02*
D03*
Y-1116D02*
D03*
D63*
X-14217Y-705D02*
D03*
X-14567D02*
D03*
X-14917D02*
D03*
D64*
X-12050Y-2300D02*
D03*
X-15392Y-2142D02*
D03*
D65*
X-11750Y-2300D02*
D03*
X-15392Y-2308D02*
D03*
D66*
X-11300Y-2450D02*
D03*
Y-3150D02*
D03*
X-11200Y-2075D02*
D03*
X-11400D02*
D03*
X-2800Y-975D02*
D03*
X-3775D02*
D03*
X-6894D02*
D03*
X-7869D02*
D03*
D67*
X-11200Y-2450D02*
D03*
Y-3150D02*
D03*
X-6102Y-490D02*
D03*
X-5394D02*
D03*
X-4685D02*
D03*
X-2992D02*
D03*
X-3976D02*
D03*
X-10197D02*
D03*
X-9488D02*
D03*
X-8780D02*
D03*
X-7087D02*
D03*
X-8071D02*
D03*
D68*
X-15375Y-2575D02*
D03*
Y-2975D02*
D03*
Y-2680D02*
D03*
X-11050Y-2900D02*
D03*
Y-2800D02*
D03*
Y-2700D02*
D03*
D69*
X-15608Y-2308D02*
D03*
Y-2142D02*
D03*
D70*
X-6302Y-290D02*
D03*
X-5902D02*
D03*
X-5594D02*
D03*
X-5194D02*
D03*
X-4885D02*
D03*
X-4485D02*
D03*
X-3192D02*
D03*
X-2792D02*
D03*
X-4176D02*
D03*
X-3776D02*
D03*
X-10397D02*
D03*
X-9997D02*
D03*
X-9688D02*
D03*
X-9288D02*
D03*
X-8980D02*
D03*
X-8580D02*
D03*
X-7287D02*
D03*
X-6887D02*
D03*
X-8271D02*
D03*
X-7871D02*
D03*
D71*
X-7675Y-1196D02*
D03*
X-11111Y-1161D02*
D03*
X-7075Y-900D02*
D03*
X-7550Y-900D02*
D03*
X-3571Y-1196D02*
D03*
X-2975Y-900D02*
D03*
X-3450D02*
D03*
X-3763Y-2113D02*
D03*
X-3275Y-1375D02*
D03*
X-7857Y-2113D02*
D03*
X-7369Y-1375D02*
D03*
X-4200Y-3025D02*
D03*
X-7944Y-2450D02*
D03*
X-10294Y-1125D02*
D03*
X-9594D02*
D03*
X-8894D02*
D03*
X-8094Y-1450D02*
D03*
X-6994Y-1575D02*
D03*
X-8044Y-1625D02*
D03*
Y-1725D02*
D03*
X-7944Y-2650D02*
D03*
X-8069Y-2700D02*
D03*
X-8844Y-1350D02*
D03*
X-9544D02*
D03*
X-8844Y-1450D02*
D03*
X-9544D02*
D03*
X-7069Y-1850D02*
D03*
X-7169D02*
D03*
X-10069Y-1275D02*
D03*
X-9369D02*
D03*
X-8669D02*
D03*
X-7869Y-1600D02*
D03*
X-8294Y-3025D02*
D03*
X-9119Y-1325D02*
D03*
X-8469Y-1400D02*
D03*
X-7919Y-1875D02*
D03*
X-8144D02*
D03*
X-8594Y-1700D02*
D03*
X-9819Y-1325D02*
D03*
X-9119Y-1525D02*
D03*
X-9819D02*
D03*
X-7669Y-2875D02*
D03*
X-7219Y-2550D02*
D03*
X-7294Y-2425D02*
D03*
X-8194Y-2775D02*
D03*
X-7394Y-1875D02*
D03*
X-6969Y-1325D02*
D03*
X-7232Y-1288D02*
D03*
X-3825Y-1875D02*
D03*
X-4050D02*
D03*
X-4375Y-1400D02*
D03*
X-4500Y-1700D02*
D03*
X-5025Y-1525D02*
D03*
X-5725D02*
D03*
X-4750Y-1450D02*
D03*
Y-1350D02*
D03*
X-5450Y-1450D02*
D03*
Y-1350D02*
D03*
X-5725Y-1325D02*
D03*
X-5025D02*
D03*
X-3950Y-1725D02*
D03*
Y-1625D02*
D03*
X-2975Y-1850D02*
D03*
X-3075D02*
D03*
X-3975Y-2700D02*
D03*
X-3850Y-2650D02*
D03*
X-4100Y-2775D02*
D03*
X-3850Y-2450D02*
D03*
X-3125Y-2550D02*
D03*
X-3200Y-2425D02*
D03*
X-3575Y-2875D02*
D03*
X-3137Y-1288D02*
D03*
X-2900Y-1575D02*
D03*
X-3300Y-1875D02*
D03*
X-2875Y-1325D02*
D03*
X-4000Y-1450D02*
D03*
X-4575Y-1275D02*
D03*
X-3775Y-1600D02*
D03*
X-4800Y-1125D02*
D03*
X-5275Y-1275D02*
D03*
X-5500Y-1125D02*
D03*
X-5975Y-1275D02*
D03*
X-6200Y-1125D02*
D03*
M02*
